SplineFontDB: 3.0
FontName: Paprika-Regular
FullName: Paprika
FamilyName: Paprika
Weight: Book
Copyright: Copyright (c) 2012, Eduardo Tunni (http://www.tipo.net.ar), with Reserved Font Name 'Paprika'
Version: 1.001
ItalicAngle: 0
UnderlinePosition: -74
UnderlineWidth: 49
Ascent: 800
Descent: 200
sfntRevision: 0x00010042
LayerCount: 2
Layer: 0 1 "Back"  1
Layer: 1 1 "Fore"  0
XUID: [1021 812 921503508 3183594]
FSType: 0
OS2Version: 3
OS2_WeightWidthSlopeOnly: 0
OS2_UseTypoMetrics: 1
CreationTime: 1343411400
ModificationTime: 1351265106
PfmFamily: 17
TTFWeight: 400
TTFWidth: 5
LineGap: 0
VLineGap: 0
Panose: 2 0 5 3 6 0 0 2 0 4
OS2TypoAscent: 1145
OS2TypoAOffset: 0
OS2TypoDescent: -274
OS2TypoDOffset: 0
OS2TypoLinegap: 0
OS2WinAscent: 1145
OS2WinAOffset: 0
OS2WinDescent: 274
OS2WinDOffset: 0
HheadAscent: 1145
HheadAOffset: 0
HheadDescent: -274
HheadDOffset: 0
OS2SubXSize: 650
OS2SubYSize: 600
OS2SubXOff: 0
OS2SubYOff: 75
OS2SupXSize: 650
OS2SupYSize: 600
OS2SupXOff: 0
OS2SupYOff: 350
OS2StrikeYSize: 49
OS2StrikeYPos: 402
OS2Vendor: 'TIPO'
OS2CodePages: 20000001.00000000
OS2UnicodeRanges: 800000af.5000204b.00000000.00000000
Lookup: 4 0 1 "'liga' Standard Ligatures in Latin lookup 0"  {"'liga' Standard Ligatures in Latin lookup 0 subtable"  } ['liga' ('latn' <'dflt' > ) ]
Lookup: 257 0 0 "'cpsp' Capital Spacing in Latin lookup 0"  {"'cpsp' Capital Spacing in Latin lookup 0 subtable"  } ['cpsp' ('latn' <'dflt' > ) ]
Lookup: 257 0 0 "'case' Case-Sensitive Forms in Latin lookup 1"  {"'case' Case-Sensitive Forms in Latin lookup 1 per glyph data 0"  "'case' Case-Sensitive Forms in Latin lookup 1 per glyph data 1"  } ['case' ('latn' <'dflt' > ) ]
Lookup: 258 0 0 "'kern' Horizontal Kerning in Latin lookup 2"  {"'kern' Horizontal Kerning in Latin lookup 2 per glyph data 0"  "'kern' Horizontal Kerning in Latin lookup 2 kerning class 1"  } ['kern' ('latn' <'dflt' > ) ]
DEI: 91125
KernClass2: 9+ 11 "'kern' Horizontal Kerning in Latin lookup 2 kerning class 1" 

StartChar: exclam
Encoding: 33 33 6
Width: 388
GlyphClass: 2
Flags: W
LayerCount: 2
Fore
SplineSet
247 83 m 0,0,1
 247 56 247 56 235 14 c 1,2,3
 191 -14 191 -14 156.5 -14 c 128,-1,4
 122 -14 122 -14 107.5 -0.5 c 128,-1,5
 93 13 93 13 93 38 c 128,-1,6
 93 63 93 63 101 106 c 1,7,8
 144 133 144 133 181 133 c 0,9,10
 247 133 247 133 247 83 c 0,0,1
297.5 862.5 m 128,-1,12
 315 838 315 838 315 784 c 128,-1,13
 315 730 315 730 274 526.5 c 128,-1,14
 233 323 233 323 233 277 c 0,15,16
 233 267 233 267 236 258 c 1,17,18
 216 242 216 242 188 242 c 0,19,20
 153 242 153 242 153 283 c 0,21,22
 153 286 153 286 174 473.5 c 128,-1,23
 195 661 195 661 195 741.5 c 128,-1,24
 195 822 195 822 173 864 c 1,25,26
 184 873 184 873 205.5 880 c 128,-1,27
 227 887 227 887 243 887 c 0,28,11
 280 887 280 887 297.5 862.5 c 128,-1,12
EndSplineSet
EndChar

StartChar: quotedbl
Encoding: 34 34 7
Width: 396
GlyphClass: 2
Flags: W
LayerCount: 2
Fore
SplineSet
232 863 m 0,0,1
 232 846 232 846 216 785.5 c 128,-1,2
 200 725 200 725 200 697.5 c 128,-1,3
 200 670 200 670 212 647 c 1,4,5
 190 633 190 633 161 633 c 0,6,7
 115 633 115 633 115 693 c 0,8,9
 115 723 115 723 124.5 772 c 128,-1,10
 134 821 134 821 134 845.5 c 128,-1,11
 134 870 134 870 126 887 c 1,12,13
 153 910 153 910 200 910 c 0,14,15
 232 910 232 910 232 863 c 0,0,1
401 863 m 0,16,17
 401 846 401 846 385 785.5 c 128,-1,18
 369 725 369 725 369 698.5 c 128,-1,19
 369 672 369 672 381 647 c 1,20,21
 359 633 359 633 330 633 c 0,22,23
 284 633 284 633 284 693 c 0,24,25
 284 723 284 723 294 772 c 128,-1,26
 304 821 304 821 304 844.5 c 128,-1,27
 304 868 304 868 295 887 c 1,28,29
 322 910 322 910 369 910 c 0,30,31
 401 910 401 910 401 863 c 0,16,17
EndSplineSet
EndChar

StartChar: numbersign
Encoding: 35 35 8
Width: 817
GlyphClass: 2
Flags: W
LayerCount: 2
Fore
SplineSet
483 247 m 1,0,-1
 283 249 l 1,1,2
 279 206 279 206 279 158 c 0,3,4
 279 71 279 71 321 31 c 1,5,6
 304 -6 304 -6 255 -6 c 0,7,8
 170 -6 170 -6 170 121 c 0,9,10
 170 164 170 164 183 250 c 1,11,12
 123 248 123 248 99 230 c 1,13,14
 80 259 80 259 80 290 c 0,15,16
 80 346 80 346 134 346 c 0,17,18
 143 346 143 346 199 344 c 1,19,-1
 229 524 l 1,20,-1
 223 524 l 2,21,22
 159 524 159 524 132 504 c 1,23,24
 113 533 113 533 113 564 c 0,25,26
 113 620 113 620 167 620 c 0,27,28
 178 620 178 620 242 618 c 1,29,30
 252 700 252 700 252 761.5 c 128,-1,31
 252 823 252 823 229 863 c 1,32,33
 240 872 240 872 262.5 879 c 128,-1,34
 285 886 285 886 301 886 c 0,35,36
 334 886 334 886 349.5 864 c 128,-1,37
 365 842 365 842 365 792.5 c 128,-1,38
 365 743 365 743 342 614 c 1,39,40
 467 609 467 609 529 609 c 2,41,-1
 541 609 l 1,42,43
 552 704 552 704 552 763.5 c 128,-1,44
 552 823 552 823 529 863 c 1,45,46
 540 872 540 872 562.5 879 c 128,-1,47
 585 886 585 886 601 886 c 0,48,49
 634 886 634 886 649.5 864 c 128,-1,50
 665 842 665 842 665 792.5 c 128,-1,51
 665 743 665 743 642 614 c 1,52,53
 726 621 726 621 752 633 c 1,54,55
 767 610 767 610 767 580 c 0,56,57
 767 520 767 520 664 520 c 2,58,-1
 625 520 l 1,59,60
 605 414 605 414 594 339 c 1,61,62
 692 347 692 347 719 359 c 1,63,64
 734 336 734 336 734 306 c 0,65,66
 734 246 734 246 631 246 c 2,67,-1
 583 246 l 1,68,69
 579 205 579 205 579 158 c 0,70,71
 579 71 579 71 621 31 c 1,72,73
 604 -6 604 -6 555 -6 c 0,74,75
 470 -6 470 -6 470 121 c 0,76,77
 470 164 470 164 483 247 c 1,0,-1
528 521 m 1,78,-1
 325 523 l 1,79,80
 304 412 304 412 295 341 c 1,81,82
 453 335 453 335 497 335 c 1,83,-1
 528 521 l 1,78,-1
EndSplineSet
EndChar

StartChar: dollar
Encoding: 36 36 9
Width: 660
GlyphClass: 2
Flags: W
LayerCount: 2
Fore
SplineSet
129 654 m 0,0,1
 129 748 129 748 183 807 c 128,-1,2
 237 866 237 866 330 883 c 1,3,4
 339 939 339 939 356.5 962.5 c 128,-1,5
 374 986 374 986 403 986 c 0,6,7
 415 986 415 986 427.5 979.5 c 128,-1,8
 440 973 440 973 445 963 c 1,9,10
 423 931 423 931 413 889 c 1,11,12
 480 887 480 887 525 858.5 c 128,-1,13
 570 830 570 830 570 782.5 c 128,-1,14
 570 735 570 735 525 695 c 1,15,16
 509 734 509 734 476 765 c 128,-1,17
 443 796 443 796 399 808 c 1,18,19
 389 731 389 731 376 492 c 1,20,21
 435 444 435 444 451 430 c 0,22,23
 512 378 512 378 540 331 c 128,-1,24
 568 284 568 284 568 203.5 c 128,-1,25
 568 123 568 123 504 60 c 128,-1,26
 440 -3 440 -3 338 -14 c 1,27,28
 314 -105 314 -105 254 -105 c 0,29,30
 224 -105 224 -105 220 -69 c 1,31,32
 243 -46 243 -46 257 -15 c 1,33,34
 177 -8 177 -8 122 27.5 c 128,-1,35
 67 63 67 63 67 123 c 0,36,37
 67 169 67 169 119 227 c 1,38,39
 154 77 154 77 277 53 c 1,40,41
 294 153 294 153 305 401 c 1,42,43
 271 427 271 427 248 447 c 1,44,45
 190 494 190 494 159.5 541 c 128,-1,46
 129 588 129 588 129 654 c 0,0,1
435 91 m 128,-1,48
 469 123 469 123 469 176 c 128,-1,49
 469 229 469 229 446 266 c 128,-1,50
 423 303 423 303 369 349 c 1,51,52
 358 121 358 121 350 51 c 1,53,47
 401 59 401 59 435 91 c 128,-1,48
250.5 770.5 m 128,-1,55
 222 737 222 737 222 688 c 128,-1,56
 222 639 222 639 239 613 c 128,-1,57
 256 587 256 587 311 544 c 1,58,59
 320 768 320 768 323 812 c 1,60,54
 279 804 279 804 250.5 770.5 c 128,-1,55
EndSplineSet
EndChar

StartChar: percent
Encoding: 37 37 10
Width: 901
GlyphClass: 2
Flags: W
LayerCount: 2
Fore
SplineSet
578 845 m 1,0,-1
 577 864 l 1,1,2
 611 887 611 887 637 887 c 0,3,4
 682 887 682 887 682 845 c 0,5,6
 682 820 682 820 665.5 774 c 128,-1,7
 649 728 649 728 528 488 c 128,-1,8
 407 248 407 248 371 147 c 1,9,10
 351 87 351 87 351 58.5 c 128,-1,11
 351 30 351 30 362 10 c 1,12,13
 319 -26 319 -26 295 -26 c 0,14,15
 246 -26 246 -26 246 23 c 0,16,17
 246 52 246 52 264.5 106.5 c 128,-1,18
 283 161 283 161 401 400.5 c 128,-1,19
 519 640 519 640 548.5 725.5 c 128,-1,20
 578 811 578 811 578 845 c 1,0,-1
294.5 784 m 128,-1,22
 270 826 270 826 227 826 c 0,23,24
 199 826 199 826 178 802 c 128,-1,25
 157 778 157 778 146 742 c 0,26,27
 125 672 125 672 125 608 c 0,28,29
 125 442 125 442 217 442 c 0,30,31
 245 442 245 442 266.5 466.5 c 128,-1,32
 288 491 288 491 298 528 c 0,33,34
 319 602 319 602 319 672 c 128,-1,21
 319 742 319 742 294.5 784 c 128,-1,22
305.5 427.5 m 128,-1,36
 258 381 258 381 192 381 c 128,-1,37
 126 381 126 381 87.5 439.5 c 128,-1,38
 49 498 49 498 49 579 c 128,-1,39
 49 660 49 660 70 726 c 128,-1,40
 91 792 91 792 138.5 839 c 128,-1,41
 186 886 186 886 252 886 c 128,-1,42
 318 886 318 886 356.5 827 c 128,-1,43
 395 768 395 768 395 687 c 128,-1,44
 395 606 395 606 374 540 c 128,-1,35
 353 474 353 474 305.5 427.5 c 128,-1,36
751.5 372 m 128,-1,46
 727 414 727 414 684 414 c 0,47,48
 656 414 656 414 635 390 c 128,-1,49
 614 366 614 366 603 330 c 0,50,51
 582 260 582 260 582 196 c 0,52,53
 582 30 582 30 674 30 c 0,54,55
 702 30 702 30 723.5 54.5 c 128,-1,56
 745 79 745 79 756 116 c 0,57,58
 776 190 776 190 776 260 c 128,-1,45
 776 330 776 330 751.5 372 c 128,-1,46
762.5 15.5 m 128,-1,60
 715 -31 715 -31 649 -31 c 128,-1,61
 583 -31 583 -31 544.5 27.5 c 128,-1,62
 506 86 506 86 506 167 c 128,-1,63
 506 248 506 248 527 314 c 128,-1,64
 548 380 548 380 595.5 427 c 128,-1,65
 643 474 643 474 709 474 c 128,-1,66
 775 474 775 474 813.5 415 c 128,-1,67
 852 356 852 356 852 275 c 128,-1,68
 852 194 852 194 831 128 c 128,-1,59
 810 62 810 62 762.5 15.5 c 128,-1,60
EndSplineSet
EndChar

StartChar: ampersand
Encoding: 38 38 11
Width: 777
GlyphClass: 2
Flags: W
LayerCount: 2
Fore
SplineSet
263.5 370.5 m 128,-1,1
 202 303 202 303 202 227.5 c 128,-1,2
 202 152 202 152 244 103.5 c 128,-1,3
 286 55 286 55 362.5 55 c 128,-1,4
 439 55 439 55 496.5 112 c 128,-1,5
 554 169 554 169 554 255 c 0,6,7
 554 285 554 285 547 314 c 1,8,9
 410 273 410 273 366 238 c 0,10,11
 345 221 345 221 334 200 c 1,12,13
 325 227 325 227 325 263 c 128,-1,14
 325 299 325 299 360 326.5 c 128,-1,15
 395 354 395 354 449.5 371 c 128,-1,16
 504 388 504 388 562 404 c 0,17,18
 708 445 708 445 748 506 c 1,19,20
 757 473 757 473 757 451 c 0,21,22
 757 384 757 384 635 342 c 1,23,24
 643 299 643 299 643 266 c 0,25,26
 643 135 643 135 551.5 58 c 128,-1,27
 460 -19 460 -19 339 -19 c 0,28,29
 273 -19 273 -19 223 3 c 128,-1,30
 173 25 173 25 146 60 c 0,31,32
 91 131 91 131 91 217 c 128,-1,33
 91 303 91 303 149.5 375 c 128,-1,34
 208 447 208 447 311 484 c 1,35,36
 142 539 142 539 142 689 c 0,37,38
 142 772 142 772 207 829.5 c 128,-1,39
 272 887 272 887 387.5 887 c 128,-1,40
 503 887 503 887 553.5 849.5 c 128,-1,41
 604 812 604 812 604 769 c 0,42,43
 604 741 604 741 587.5 724.5 c 128,-1,44
 571 708 571 708 529 692 c 1,45,46
 500 827 500 827 389 827 c 0,47,48
 324 827 324 827 285.5 784.5 c 128,-1,49
 247 742 247 742 247 691 c 0,50,51
 247 541 247 541 416 522 c 0,52,53
 439 520 439 520 447 515 c 128,-1,54
 455 510 455 510 455 494 c 128,-1,55
 455 478 455 478 448 459 c 1,56,0
 325 438 325 438 263.5 370.5 c 128,-1,1
EndSplineSet
EndChar

StartChar: quotesingle
Encoding: 39 39 12
Width: 228
GlyphClass: 2
Flags: W
LayerCount: 2
Fore
SplineSet
232 863 m 0,0,1
 232 846 232 846 216 785.5 c 128,-1,2
 200 725 200 725 200 698.5 c 128,-1,3
 200 672 200 672 212 647 c 1,4,5
 190 633 190 633 161 633 c 0,6,7
 115 633 115 633 115 693 c 0,8,9
 115 723 115 723 125 772 c 128,-1,10
 135 821 135 821 135 844.5 c 128,-1,11
 135 868 135 868 126 887 c 1,12,13
 153 910 153 910 200 910 c 0,14,15
 232 910 232 910 232 863 c 0,0,1
EndSplineSet
EndChar

StartChar: parenleft
Encoding: 40 40 13
Width: 407
GlyphClass: 2
Flags: W
LayerCount: 2
Fore
SplineSet
255 65 m 128,-1,1
 315 -43 315 -43 422 -53 c 1,2,3
 405 -96 405 -96 381.5 -111.5 c 128,-1,4
 358 -127 358 -127 322 -127 c 0,5,6
 256 -127 256 -127 204 -66.5 c 128,-1,7
 152 -6 152 -6 125 92 c 128,-1,8
 98 190 98 190 98 306.5 c 128,-1,9
 98 423 98 423 131 539.5 c 128,-1,10
 164 656 164 656 214.5 740 c 128,-1,11
 265 824 265 824 326 876 c 128,-1,12
 387 928 387 928 442 928 c 0,13,14
 474 928 474 928 487 876 c 1,15,16
 413 849 413 849 355.5 790.5 c 128,-1,17
 298 732 298 732 264 658 c 0,18,19
 195 508 195 508 195 340.5 c 128,-1,0
 195 173 195 173 255 65 c 128,-1,1
EndSplineSet
Position2: "'case' Case-Sensitive Forms in Latin lookup 1 per glyph data 0" dx=0 dy=40 dh=0 dv=0
EndChar

StartChar: parenright
Encoding: 41 41 14
Width: 407
GlyphClass: 2
Flags: W
LayerCount: 2
Fore
SplineSet
152 735 m 128,-1,1
 92 843 92 843 -15 853 c 1,2,3
 2 895 2 895 25.5 911 c 128,-1,4
 49 927 49 927 85 927 c 0,5,6
 151 927 151 927 203 866.5 c 128,-1,7
 255 806 255 806 282 708 c 128,-1,8
 309 610 309 610 309 493.5 c 128,-1,9
 309 377 309 377 276 260.5 c 128,-1,10
 243 144 243 144 192.5 60 c 128,-1,11
 142 -24 142 -24 81 -76 c 128,-1,12
 20 -128 20 -128 -35 -128 c 0,13,14
 -67 -128 -67 -128 -80 -76 c 1,15,16
 -6 -49 -6 -49 51.5 9.5 c 128,-1,17
 109 68 109 68 143 142 c 0,18,19
 212 292 212 292 212 459.5 c 128,-1,0
 212 627 212 627 152 735 c 128,-1,1
EndSplineSet
Position2: "'case' Case-Sensitive Forms in Latin lookup 1 per glyph data 0" dx=0 dy=40 dh=0 dv=0
EndChar

StartChar: asterisk
Encoding: 42 42 15
Width: 480
GlyphClass: 2
Flags: W
LayerCount: 2
Fore
SplineSet
437 513 m 0,0,1
 422 513 422 513 401.5 525.5 c 128,-1,2
 381 538 381 538 367 551 c 128,-1,3
 353 564 353 564 331.5 586 c 128,-1,4
 310 608 310 608 304 614 c 1,5,6
 302 580 302 580 302 538.5 c 128,-1,7
 302 497 302 497 314 471 c 1,8,9
 288 447 288 447 240 447 c 0,10,11
 223 447 223 447 215.5 456.5 c 128,-1,12
 208 466 208 466 208 486.5 c 128,-1,13
 208 507 208 507 212.5 529 c 128,-1,14
 217 551 217 551 225 579.5 c 128,-1,15
 233 608 233 608 236 624 c 1,16,17
 146 583 146 583 116 545 c 1,18,19
 95 553 95 553 74 573.5 c 128,-1,20
 53 594 53 594 53 610.5 c 128,-1,21
 53 627 53 627 65.5 637.5 c 128,-1,22
 78 648 78 648 100 656.5 c 128,-1,23
 122 665 122 665 141 670 c 0,24,25
 173 680 173 680 210 689 c 1,26,27
 127 746 127 746 81 753 c 1,28,29
 81 780 81 780 90.5 812.5 c 128,-1,30
 100 845 100 845 121 845 c 0,31,32
 137 845 137 845 157 832.5 c 128,-1,33
 177 820 177 820 190.5 807 c 128,-1,34
 204 794 204 794 225.5 771.5 c 128,-1,35
 247 749 247 749 253 743 c 1,36,37
 255 775 255 775 255 811 c 128,-1,38
 255 847 255 847 244 887 c 1,39,40
 270 911 270 911 318 911 c 0,41,42
 335 911 335 911 342.5 901.5 c 128,-1,43
 350 892 350 892 350 871 c 128,-1,44
 350 850 350 850 345.5 829 c 128,-1,45
 341 808 341 808 332.5 778.5 c 128,-1,46
 324 749 324 749 321 734 c 1,47,48
 411 774 411 774 442 813 c 1,49,50
 463 806 463 806 484 785 c 128,-1,51
 505 764 505 764 505 748 c 128,-1,52
 505 732 505 732 492.5 721.5 c 128,-1,53
 480 711 480 711 457.5 702 c 128,-1,54
 435 693 435 693 417.5 687.5 c 128,-1,55
 400 682 400 682 375.5 676 c 128,-1,56
 351 670 351 670 348 669 c 1,57,58
 420 613 420 613 477 605 c 1,59,60
 477 578 477 578 467.5 545.5 c 128,-1,61
 458 513 458 513 437 513 c 0,0,1
EndSplineSet
EndChar

StartChar: plus
Encoding: 43 43 16
Width: 544
GlyphClass: 2
Flags: W
LayerCount: 2
Fore
SplineSet
109 482 m 1,0,-1
 236 476 l 1,1,2
 246 542 246 542 246 576.5 c 128,-1,3
 246 611 246 611 232 640 c 1,4,5
 254 658 254 658 287 658 c 0,6,7
 337 658 337 658 337 586 c 0,8,9
 337 570 337 570 324 472 c 1,10,-1
 342 472 l 2,11,12
 374 472 374 472 421.5 478 c 128,-1,13
 469 484 469 484 486 493 c 1,14,15
 501 476 501 476 501 442 c 0,16,17
 501 386 501 386 383 386 c 2,18,-1
 312 386 l 1,19,20
 307 344 307 344 307 319 c 0,21,22
 307 269 307 269 336 235 c 1,23,24
 310 205 310 205 278 205 c 0,25,26
 216 205 216 205 216 303 c 0,27,28
 216 344 216 344 222 388 c 1,29,30
 200 389 200 389 174 389 c 0,31,32
 101 389 101 389 68 372 c 1,33,34
 49 400 49 400 49 437 c 0,35,36
 49 457 49 457 65.5 469.5 c 128,-1,37
 82 482 82 482 109 482 c 1,0,-1
EndSplineSet
EndChar

StartChar: comma
Encoding: 44 44 17
Width: 319
GlyphClass: 2
Flags: W
LayerCount: 2
Fore
SplineSet
41 -89 m 0,0,1
 79 -89 79 -89 102 -57.5 c 128,-1,2
 125 -26 125 -26 125 21.5 c 128,-1,3
 125 69 125 69 92 96 c 1,4,5
 139 133 139 133 186 133 c 0,6,7
 240 133 240 133 240 60.5 c 128,-1,8
 240 -12 240 -12 185 -74.5 c 128,-1,9
 130 -137 130 -137 59 -137 c 0,10,11
 25 -137 25 -137 25 -109 c 0,12,13
 25 -97 25 -97 26 -88 c 1,14,15
 31 -89 31 -89 41 -89 c 0,0,1
EndSplineSet
EndChar

StartChar: hyphen
Encoding: 45 45 18
Width: 351
GlyphClass: 2
Flags: W
LayerCount: 2
Fore
SplineSet
239 343 m 1,0,-1
 151 347 l 1,1,2
 94 347 94 347 62 329 c 1,3,4
 38 361 38 361 38 402.5 c 128,-1,5
 38 444 38 444 101 444 c 1,6,-1
 250 433 l 1,7,8
 297 433 297 433 329 455 c 1,9,10
 344 435 344 435 344 403 c 0,11,12
 344 343 344 343 239 343 c 1,0,-1
EndSplineSet
Position2: "'case' Case-Sensitive Forms in Latin lookup 1 per glyph data 0" dx=0 dy=40 dh=0 dv=0
EndChar

StartChar: period
Encoding: 46 46 19
Width: 295
GlyphClass: 2
Flags: W
LayerCount: 2
Fore
SplineSet
206.5 120.5 m 128,-1,1
 225 108 225 108 225 81 c 128,-1,2
 225 54 225 54 212 14 c 1,3,4
 168 -14 168 -14 133.5 -14 c 128,-1,5
 99 -14 99 -14 85 -1 c 128,-1,6
 71 12 71 12 71 37.5 c 128,-1,7
 71 63 71 63 79 106 c 1,8,9
 121 133 121 133 154.5 133 c 128,-1,0
 188 133 188 133 206.5 120.5 c 128,-1,1
EndSplineSet
EndChar

StartChar: slash
Encoding: 47 47 20
Width: 388
GlyphClass: 2
Flags: W
LayerCount: 2
Fore
SplineSet
90.5 -102 m 128,-1,1
 67 -128 67 -128 34.5 -128 c 128,-1,2
 2 -128 2 -128 -24 -101 c 1,3,4
 25 -43 25 -43 50 29 c 0,5,6
 91 144 91 144 151 439 c 128,-1,7
 211 734 211 734 233 798 c 0,8,9
 286 947 286 947 360 947 c 0,10,11
 378 947 378 947 395 936.5 c 128,-1,12
 412 926 412 926 413 903 c 1,13,14
 374 882 374 882 352 845 c 128,-1,15
 330 808 330 808 312 753 c 0,16,17
 270 627 270 627 213.5 337 c 128,-1,18
 157 47 157 47 135.5 -14.5 c 128,-1,0
 114 -76 114 -76 90.5 -102 c 128,-1,1
EndSplineSet
EndChar

StartChar: zero
Encoding: 48 48 21
Width: 659
GlyphClass: 2
Flags: W
LayerCount: 2
Fore
SplineSet
527 487 m 0,0,1
 527 645 527 645 478 727.5 c 128,-1,2
 429 810 429 810 338 810 c 0,3,4
 282 810 282 810 239.5 763 c 128,-1,5
 197 716 197 716 175 646 c 0,6,7
 132 508 132 508 132 388 c 0,8,9
 132 226 132 226 180.5 143.5 c 128,-1,10
 229 61 229 61 320 61 c 0,11,12
 378 61 378 61 421 109 c 128,-1,13
 464 157 464 157 486 230 c 0,14,15
 527 369 527 369 527 487 c 0,0,1
278 -16 m 0,16,17
 159 -16 159 -16 92.5 87 c 128,-1,18
 26 190 26 190 26 350 c 0,19,20
 26 548 26 548 114 711 c 0,21,22
 156 790 156 790 225.5 838.5 c 128,-1,23
 295 887 295 887 381 887 c 0,24,25
 500 887 500 887 566.5 782 c 128,-1,26
 633 677 633 677 633 517 c 0,27,28
 633 320 633 320 546 158 c 0,29,30
 503 80 503 80 433.5 32 c 128,-1,31
 364 -16 364 -16 278 -16 c 0,16,17
EndSplineSet
EndChar

StartChar: one
Encoding: 49 49 22
Width: 581
GlyphClass: 2
Flags: W
LayerCount: 2
Fore
SplineSet
388.5 498 m 128,-1,1
 350 267 350 267 350 168.5 c 128,-1,2
 350 70 350 70 388 29 c 1,3,4
 357 -7 357 -7 319 -7 c 0,5,6
 241 -7 241 -7 241 125 c 0,7,8
 241 171 241 171 276.5 403 c 128,-1,9
 312 635 312 635 312 769 c 1,10,11
 272 710 272 710 234 674 c 128,-1,12
 196 638 196 638 177.5 630 c 128,-1,13
 159 622 159 622 141 622 c 128,-1,14
 123 622 123 622 105 634.5 c 128,-1,15
 87 647 87 647 66 690 c 1,16,17
 108 701 108 701 140 722 c 128,-1,18
 172 743 172 743 207 775.5 c 128,-1,19
 242 808 242 808 265.5 836 c 128,-1,20
 289 864 289 864 309 875.5 c 128,-1,21
 329 887 329 887 361 887 c 128,-1,22
 393 887 393 887 410 863 c 128,-1,23
 427 839 427 839 427 784 c 128,-1,0
 427 729 427 729 388.5 498 c 128,-1,1
EndSplineSet
EndChar

StartChar: two
Encoding: 50 50 23
Width: 669
GlyphClass: 2
Flags: W
LayerCount: 2
Fore
SplineSet
576 692 m 0,0,1
 576 578 576 578 475 430 c 0,2,3
 438 375 438 375 413.5 342 c 128,-1,4
 389 309 389 309 338 250 c 0,5,6
 273 174 273 174 189 83 c 1,7,8
 312 116 312 116 402 116 c 128,-1,9
 492 116 492 116 527.5 98.5 c 128,-1,10
 563 81 563 81 563 21 c 0,11,12
 563 16 563 16 562.5 4.5 c 128,-1,13
 562 -7 562 -7 562 -13 c 1,14,15
 515 5 515 5 462.5 12 c 128,-1,16
 410 19 410 19 298.5 19 c 128,-1,17
 187 19 187 19 118 2 c 1,18,19
 100 -16 100 -16 82 -16 c 0,20,21
 45 -16 45 -16 27 22 c 1,22,23
 36 32 36 32 86.5 88 c 128,-1,24
 137 144 137 144 176.5 189.5 c 128,-1,25
 216 235 216 235 272 306.5 c 128,-1,26
 328 378 328 378 365.5 437 c 128,-1,27
 403 496 403 496 430.5 561.5 c 128,-1,28
 458 627 458 627 458 680.5 c 128,-1,29
 458 734 458 734 418.5 775.5 c 128,-1,30
 379 817 379 817 311 817 c 0,31,32
 182 817 182 817 160 663 c 1,33,34
 120 679 120 679 104.5 693.5 c 128,-1,35
 89 708 89 708 89 733 c 0,36,37
 89 795 89 795 147.5 841 c 128,-1,38
 206 887 206 887 328.5 887 c 128,-1,39
 451 887 451 887 513.5 834.5 c 128,-1,40
 576 782 576 782 576 692 c 0,0,1
EndSplineSet
EndChar

StartChar: three
Encoding: 51 51 24
Width: 679
GlyphClass: 2
Flags: W
LayerCount: 2
Fore
SplineSet
170 409 m 1,0,1
 169 416 169 416 169 445 c 128,-1,2
 169 474 169 474 176.5 481.5 c 128,-1,3
 184 489 184 489 212 492 c 0,4,5
 322 504 322 504 377.5 556.5 c 128,-1,6
 433 609 433 609 433 671.5 c 128,-1,7
 433 734 433 734 397 775.5 c 128,-1,8
 361 817 361 817 298.5 817 c 128,-1,9
 236 817 236 817 205 784.5 c 128,-1,10
 174 752 174 752 154 692 c 1,11,12
 116 707 116 707 102 722.5 c 128,-1,13
 88 738 88 738 88 763 c 0,14,15
 88 806 88 806 143.5 846.5 c 128,-1,16
 199 887 199 887 316 887 c 128,-1,17
 433 887 433 887 491.5 834.5 c 128,-1,18
 550 782 550 782 550 692 c 0,19,20
 550 636 550 636 509.5 576 c 128,-1,21
 469 516 469 516 393 473 c 1,22,23
 564 434 564 434 564 280 c 0,24,25
 564 203 564 203 514 128 c 1,26,27
 457 39 457 39 352 4 c 0,28,29
 293 -16 293 -16 216.5 -16 c 128,-1,30
 140 -16 140 -16 83 26.5 c 128,-1,31
 26 69 26 69 26 123 c 0,32,33
 26 163 26 163 95 189 c 1,34,35
 123 58 123 58 246 58 c 0,36,37
 337 58 337 58 391.5 121 c 128,-1,38
 446 184 446 184 446 255.5 c 128,-1,39
 446 327 446 327 406 373 c 128,-1,40
 366 419 366 419 282 428 c 1,41,42
 234 414 234 414 170 409 c 1,0,1
EndSplineSet
EndChar

StartChar: four
Encoding: 52 52 25
Width: 595
GlyphClass: 2
Flags: W
LayerCount: 2
Fore
SplineSet
376 820 m 0,0,1
 376 726 376 726 294.5 557.5 c 128,-1,2
 213 389 213 389 100 242 c 1,3,4
 235 277 235 277 364 279 c 1,5,6
 374 326 374 326 374 364.5 c 128,-1,7
 374 403 374 403 357 433 c 1,8,9
 384 452 384 452 419.5 452 c 128,-1,10
 455 452 455 452 470.5 435 c 128,-1,11
 486 418 486 418 486 384 c 128,-1,12
 486 350 486 350 471 268 c 1,13,14
 534 250 534 250 534 194 c 0,15,16
 534 183 534 183 532 159 c 1,17,18
 507 170 507 170 456 180 c 1,19,20
 449 133 449 133 449 109 c 0,21,22
 449 59 449 59 485 24 c 1,23,24
 452 -6 452 -6 414 -6 c 128,-1,25
 376 -6 376 -6 356.5 16.5 c 128,-1,26
 337 39 337 39 337 87 c 128,-1,27
 337 135 337 135 347 192 c 1,28,29
 303 195 303 195 259 195 c 0,30,31
 130 195 130 195 43 174 c 1,32,33
 26 157 26 157 8 157 c 0,34,35
 -29 157 -29 157 -47 194 c 1,36,37
 64 316 64 316 159.5 495 c 128,-1,38
 255 674 255 674 255 808 c 0,39,40
 255 832 255 832 246 851 c 1,41,42
 289 887 289 887 328 887 c 0,43,44
 352 887 352 887 364 873 c 128,-1,45
 376 859 376 859 376 820 c 0,0,1
EndSplineSet
EndChar

StartChar: five
Encoding: 53 53 26
Width: 679
GlyphClass: 2
Flags: W
LayerCount: 2
Fore
SplineSet
250 58 m 0,0,1
 341 58 341 58 396 121 c 128,-1,2
 451 184 451 184 451 263 c 0,3,4
 451 322 451 322 414 372 c 0,5,6
 395 398 395 398 356 414 c 128,-1,7
 317 430 317 430 271 430 c 128,-1,8
 225 430 225 430 189 424 c 128,-1,9
 153 418 153 418 131 412.5 c 128,-1,10
 109 407 109 407 106 407 c 0,11,12
 93 407 93 407 93 422 c 0,13,14
 93 427 93 427 102 476 c 0,15,16
 127 625 127 625 127 724.5 c 128,-1,17
 127 824 127 824 106 866 c 1,18,19
 133 889 133 889 174.5 889 c 128,-1,20
 216 889 216 889 231 853 c 1,21,22
 253 852 253 852 331.5 852 c 128,-1,23
 410 852 410 852 462 859 c 128,-1,24
 514 866 514 866 561 884 c 1,25,26
 563 862 563 862 563 850 c 0,27,28
 563 790 563 790 527 772.5 c 128,-1,29
 491 755 491 755 413.5 755 c 128,-1,30
 336 755 336 755 242 777 c 1,31,32
 241 726 241 726 200 487 c 1,33,34
 239 491 239 491 281 491 c 0,35,36
 433 491 433 491 501 430.5 c 128,-1,37
 569 370 569 370 569 280 c 0,38,39
 569 203 569 203 520 128 c 0,40,41
 462 39 462 39 358 4 c 0,42,43
 298 -16 298 -16 221.5 -16 c 128,-1,44
 145 -16 145 -16 88 26.5 c 128,-1,45
 31 69 31 69 31 123 c 0,46,47
 31 163 31 163 100 189 c 1,48,49
 128 58 128 58 250 58 c 0,0,1
EndSplineSet
EndChar

StartChar: six
Encoding: 54 54 27
Width: 685
GlyphClass: 2
Flags: W
LayerCount: 2
Fore
SplineSet
204 405 m 0,0,1
 189 405 189 405 189 421 c 0,2,3
 189 449 189 449 202 472 c 1,4,5
 278 505 278 505 355 505 c 0,6,7
 454 505 454 505 518.5 447 c 128,-1,8
 583 389 583 389 583 280 c 0,9,10
 583 183 583 183 516 90 c 0,11,12
 483 44 483 44 422.5 14 c 128,-1,13
 362 -16 362 -16 285 -16 c 0,14,15
 169 -16 169 -16 104 83 c 128,-1,16
 39 182 39 182 39 336 c 0,17,18
 39 432 39 432 65 528 c 128,-1,19
 91 624 91 624 139 705 c 128,-1,20
 187 786 187 786 263.5 836.5 c 128,-1,21
 340 887 340 887 432 887 c 0,22,23
 567 887 567 887 567 805 c 0,24,25
 567 788 567 788 555.5 769.5 c 128,-1,26
 544 751 544 751 529 740 c 1,27,28
 502 776 502 776 469 788 c 128,-1,29
 436 800 436 800 385 800 c 128,-1,30
 334 800 334 800 292.5 768 c 128,-1,31
 251 736 251 736 224.5 688 c 128,-1,32
 198 640 198 640 180 582 c 0,33,34
 146 476 146 476 146 382 c 0,35,36
 146 217 146 217 181.5 139 c 128,-1,37
 217 61 217 61 297 61 c 128,-1,38
 377 61 377 61 420.5 122.5 c 128,-1,39
 464 184 464 184 464 268 c 128,-1,40
 464 352 464 352 426.5 394.5 c 128,-1,41
 389 437 389 437 327 437 c 0,42,43
 276 437 276 437 224 413 c 0,44,45
 206 405 206 405 204 405 c 0,0,1
EndSplineSet
EndChar

StartChar: seven
Encoding: 55 55 28
Width: 589
GlyphClass: 2
Flags: W
LayerCount: 2
Fore
SplineSet
140 51 m 0,0,1
 140 182 140 182 226.5 407.5 c 128,-1,2
 313 633 313 633 425 789 c 1,3,4
 300 755 300 755 207.5 755 c 128,-1,5
 115 755 115 755 79 772.5 c 128,-1,6
 43 790 43 790 43 850 c 0,7,8
 43 862 43 862 45 884 c 1,9,10
 91 866 91 866 143.5 859 c 128,-1,11
 196 852 196 852 307.5 852 c 128,-1,12
 419 852 419 852 488 868 c 1,13,14
 505 887 505 887 525 887 c 0,15,16
 562 887 562 887 580 849 c 1,17,18
 449 717 449 717 354.5 472.5 c 128,-1,19
 260 228 260 228 260 63 c 0,20,21
 260 39 260 39 270 20 c 1,22,23
 227 -16 227 -16 188 -16 c 0,24,25
 164 -16 164 -16 152 -1.5 c 128,-1,26
 140 13 140 13 140 51 c 0,0,1
EndSplineSet
EndChar

StartChar: eight
Encoding: 56 56 29
Width: 688
GlyphClass: 2
Flags: W
LayerCount: 2
Fore
SplineSet
416 494.5 m 128,-1,1
 402 504 402 504 402 511 c 128,-1,2
 402 518 402 518 416 531 c 128,-1,3
 430 544 430 544 447 561.5 c 128,-1,4
 464 579 464 579 478 614.5 c 128,-1,5
 492 650 492 650 492 696 c 128,-1,6
 492 742 492 742 456 777 c 128,-1,7
 420 812 420 812 355 812 c 128,-1,8
 290 812 290 812 247 774 c 128,-1,9
 204 736 204 736 204 679 c 128,-1,10
 204 622 204 622 242.5 576 c 128,-1,11
 281 530 281 530 335.5 493.5 c 128,-1,12
 390 457 390 457 445 418.5 c 128,-1,13
 500 380 500 380 538.5 326 c 128,-1,14
 577 272 577 272 577 209 c 0,15,16
 577 110 577 110 497.5 47 c 128,-1,17
 418 -16 418 -16 289 -16 c 128,-1,18
 160 -16 160 -16 96.5 43.5 c 128,-1,19
 33 103 33 103 33 186 c 128,-1,20
 33 269 33 269 84 334 c 128,-1,21
 135 399 135 399 235 434 c 1,22,23
 169 484 169 484 132 538 c 128,-1,24
 95 592 95 592 95 660 c 0,25,26
 95 763 95 763 171.5 825 c 128,-1,27
 248 887 248 887 367.5 887 c 128,-1,28
 487 887 487 887 542 835.5 c 128,-1,29
 597 784 597 784 597 711 c 0,30,31
 597 569 597 569 444 483 c 1,32,0
 430 485 430 485 416 494.5 c 128,-1,1
466 202 m 0,33,34
 466 238 466 238 448.5 259.5 c 128,-1,35
 431 281 431 281 422 292 c 128,-1,36
 413 303 413 303 390 321 c 128,-1,37
 367 339 367 339 356.5 346.5 c 128,-1,38
 346 354 346 354 316 374.5 c 128,-1,39
 286 395 286 395 277 402 c 1,40,41
 137 291 137 291 137 194 c 0,42,43
 137 136 137 136 180.5 97.5 c 128,-1,44
 224 59 224 59 290 59 c 128,-1,45
 356 59 356 59 411 97 c 128,-1,46
 466 135 466 135 466 202 c 0,33,34
EndSplineSet
EndChar

StartChar: nine
Encoding: 57 57 30
Width: 655
GlyphClass: 2
Flags: W
LayerCount: 2
Fore
SplineSet
326 887 m 0,0,1
 442 887 442 887 507 788 c 128,-1,2
 572 689 572 689 572 534 c 0,3,4
 572 438 572 438 546 342.5 c 128,-1,5
 520 247 520 247 472 166 c 128,-1,6
 424 85 424 85 347.5 34.5 c 128,-1,7
 271 -16 271 -16 179 -16 c 0,8,9
 44 -16 44 -16 44 65 c 0,10,11
 44 82 44 82 55.5 101 c 128,-1,12
 67 120 67 120 82 130 c 1,13,14
 109 94 109 94 142 82 c 128,-1,15
 175 70 175 70 231.5 70 c 128,-1,16
 288 70 288 70 336.5 117 c 128,-1,17
 385 164 385 164 411 234 c 0,18,19
 464 377 464 377 464 488 c 0,20,21
 464 654 464 654 428.5 732 c 128,-1,22
 393 810 393 810 313.5 810 c 128,-1,23
 234 810 234 810 190 748.5 c 128,-1,24
 146 687 146 687 146 603 c 128,-1,25
 146 519 146 519 184 476.5 c 128,-1,26
 222 434 222 434 284 434 c 0,27,28
 335 434 335 434 388 458 c 0,29,30
 405 466 405 466 407 466 c 0,31,32
 421 466 421 466 421 450 c 0,33,34
 421 423 421 423 409 399 c 1,35,36
 332 365 332 365 256 365 c 0,37,38
 157 365 157 365 92.5 423.5 c 128,-1,39
 28 482 28 482 28 591 c 0,40,41
 28 670 28 670 70 743 c 0,42,43
 153 887 153 887 326 887 c 0,0,1
EndSplineSet
EndChar

StartChar: colon
Encoding: 58 58 31
Width: 295
GlyphClass: 2
Flags: W
LayerCount: 2
Fore
SplineSet
206.5 120.5 m 128,-1,1
 225 108 225 108 225 81 c 128,-1,2
 225 54 225 54 212 14 c 1,3,4
 168 -14 168 -14 133.5 -14 c 128,-1,5
 99 -14 99 -14 85 -1 c 128,-1,6
 71 12 71 12 71 37.5 c 128,-1,7
 71 63 71 63 79 106 c 1,8,9
 121 133 121 133 154.5 133 c 128,-1,0
 188 133 188 133 206.5 120.5 c 128,-1,1
231.5 636.5 m 128,-1,11
 250 624 250 624 250 597 c 128,-1,12
 250 570 250 570 237 530 c 1,13,14
 193 502 193 502 158.5 502 c 128,-1,15
 124 502 124 502 110 515 c 128,-1,16
 96 528 96 528 96 553.5 c 128,-1,17
 96 579 96 579 104 622 c 1,18,19
 146 649 146 649 179.5 649 c 128,-1,10
 213 649 213 649 231.5 636.5 c 128,-1,11
EndSplineSet
EndChar

StartChar: semicolon
Encoding: 59 59 32
Width: 295
GlyphClass: 2
Flags: W
LayerCount: 2
Fore
SplineSet
231.5 636.5 m 128,-1,1
 250 624 250 624 250 597 c 128,-1,2
 250 570 250 570 237 530 c 1,3,4
 193 502 193 502 158.5 502 c 128,-1,5
 124 502 124 502 110 515 c 128,-1,6
 96 528 96 528 96 553.5 c 128,-1,7
 96 579 96 579 104 622 c 1,8,9
 146 649 146 649 179.5 649 c 128,-1,0
 213 649 213 649 231.5 636.5 c 128,-1,1
22 -89 m 0,10,11
 60 -89 60 -89 83 -57.5 c 128,-1,12
 106 -26 106 -26 106 21.5 c 128,-1,13
 106 69 106 69 73 96 c 1,14,15
 120 133 120 133 167 133 c 0,16,17
 221 133 221 133 221 60.5 c 128,-1,18
 221 -12 221 -12 166 -74.5 c 128,-1,19
 111 -137 111 -137 40 -137 c 0,20,21
 6 -137 6 -137 6 -109 c 0,22,23
 6 -97 6 -97 7 -88 c 1,24,25
 12 -89 12 -89 22 -89 c 0,10,11
EndSplineSet
EndChar

StartChar: less
Encoding: 60 60 33
Width: 544
GlyphClass: 2
Flags: W
LayerCount: 2
Fore
SplineSet
442.5 235.5 m 128,-1,1
 429 210 429 210 406.5 210 c 128,-1,2
 384 210 384 210 370 219 c 128,-1,3
 356 228 356 228 271 290 c 128,-1,4
 186 352 186 352 127.5 386 c 128,-1,5
 69 420 69 420 25 428 c 1,6,7
 25 490 25 490 113 530 c 0,8,9
 146 545 146 545 226.5 577.5 c 128,-1,10
 307 610 307 610 350.5 633 c 128,-1,11
 394 656 394 656 411 679 c 1,12,13
 460 647 460 647 460 614 c 128,-1,14
 460 581 460 581 422 562 c 0,15,16
 398 550 398 550 302 517.5 c 128,-1,17
 206 485 206 485 162 463 c 1,18,19
 175 454 175 454 224.5 419.5 c 128,-1,20
 274 385 274 385 295.5 371.5 c 128,-1,21
 317 358 317 358 354 336 c 1,22,23
 421 294 421 294 458 292 c 1,24,0
 456 261 456 261 442.5 235.5 c 128,-1,1
EndSplineSet
EndChar

StartChar: equal
Encoding: 61 61 34
Width: 544
GlyphClass: 2
Flags: W
LayerCount: 2
Fore
SplineSet
383 264 m 1,0,-1
 174 267 l 1,1,2
 101 267 101 267 68 250 c 1,3,4
 49 278 49 278 49 315 c 0,5,6
 49 335 49 335 65.5 347.5 c 128,-1,7
 82 360 82 360 109 360 c 1,8,-1
 342 350 l 1,9,10
 374 350 374 350 421.5 356 c 128,-1,11
 469 362 469 362 486 371 c 1,12,13
 501 354 501 354 501 320 c 0,14,15
 501 264 501 264 383 264 c 1,0,-1
383 508 m 1,16,-1
 174 511 l 1,17,18
 101 511 101 511 68 494 c 1,19,20
 49 522 49 522 49 560 c 0,21,22
 49 580 49 580 65.5 592 c 128,-1,23
 82 604 82 604 109 604 c 1,24,-1
 342 594 l 1,25,26
 374 594 374 594 421.5 600 c 128,-1,27
 469 606 469 606 486 615 c 1,28,29
 501 598 501 598 501 564 c 0,30,31
 501 508 501 508 383 508 c 1,16,-1
EndSplineSet
EndChar

StartChar: greater
Encoding: 62 62 35
Width: 544
GlyphClass: 2
Flags: W
LayerCount: 2
Fore
SplineSet
122 562 m 0,0,1
 84 581 84 581 84 614 c 128,-1,2
 84 647 84 647 133 679 c 1,3,4
 150 656 150 656 193.5 633 c 128,-1,5
 237 610 237 610 317.5 577.5 c 128,-1,6
 398 545 398 545 431 530 c 0,7,8
 519 490 519 490 519 428 c 1,9,10
 475 420 475 420 416.5 386 c 128,-1,11
 358 352 358 352 273 290 c 128,-1,12
 188 228 188 228 174 219 c 128,-1,13
 160 210 160 210 137.5 210 c 128,-1,14
 115 210 115 210 101.5 235.5 c 128,-1,15
 88 261 88 261 86 292 c 1,16,17
 123 294 123 294 175 326 c 128,-1,18
 227 358 227 358 248.5 371.5 c 128,-1,19
 270 385 270 385 319.5 419.5 c 128,-1,20
 369 454 369 454 382 463 c 1,21,22
 338 485 338 485 242 517.5 c 128,-1,23
 146 550 146 550 122 562 c 0,0,1
EndSplineSet
EndChar

StartChar: question
Encoding: 63 63 36
Width: 496
GlyphClass: 2
Flags: W
LayerCount: 2
Fore
SplineSet
484 692 m 0,0,1
 484 547 484 547 265 273 c 1,2,3
 238 237 238 237 212 237 c 128,-1,4
 186 237 186 237 171 267 c 1,5,6
 236 350 236 350 301.5 471.5 c 128,-1,7
 367 593 367 593 367 675 c 0,8,9
 367 734 367 734 334.5 775.5 c 128,-1,10
 302 817 302 817 245 817 c 0,11,12
 124 817 124 817 124 647 c 1,13,14
 43 683 43 683 43 745 c 128,-1,15
 43 807 43 807 103.5 847 c 128,-1,16
 164 887 164 887 262 887 c 128,-1,17
 360 887 360 887 422 835.5 c 128,-1,18
 484 784 484 784 484 692 c 0,0,1
279 83 m 0,19,20
 279 56 279 56 267 14 c 1,21,22
 223 -14 223 -14 188.5 -14 c 128,-1,23
 154 -14 154 -14 139.5 -0.5 c 128,-1,24
 125 13 125 13 125 38 c 128,-1,25
 125 63 125 63 133 106 c 1,26,27
 176 133 176 133 213 133 c 0,28,29
 279 133 279 133 279 83 c 0,19,20
EndSplineSet
EndChar

StartChar: at
Encoding: 64 64 37
Width: 1116
GlyphClass: 2
Flags: W
LayerCount: 2
Fore
SplineSet
788 198 m 0,0,1
 853 198 853 198 896.5 273.5 c 128,-1,2
 940 349 940 349 940 479 c 0,3,4
 940 670 940 670 854.5 765.5 c 128,-1,5
 769 861 769 861 591 861 c 0,6,7
 468 861 468 861 372 790.5 c 128,-1,8
 276 720 276 720 226 606 c 128,-1,9
 176 492 176 492 176 358 c 0,10,11
 176 -33 176 -33 504 -33 c 0,12,13
 654 -33 654 -33 809 63 c 1,14,15
 839 22 839 22 839 -12.5 c 128,-1,16
 839 -47 839 -47 730.5 -74 c 128,-1,17
 622 -101 622 -101 504 -101 c 0,18,19
 73 -101 73 -101 73 354 c 0,20,21
 73 507 73 507 142 638.5 c 128,-1,22
 211 770 211 770 336 849.5 c 128,-1,23
 461 929 461 929 613 929 c 0,24,25
 820 929 820 929 931 820 c 128,-1,26
 1042 711 1042 711 1042 510 c 0,27,28
 1042 415 1042 415 1012.5 330 c 128,-1,29
 983 245 983 245 922.5 187.5 c 128,-1,30
 862 130 862 130 783 130 c 0,31,32
 705 130 705 130 668 172 c 0,33,34
 628 219 628 219 628 364 c 1,35,36
 589 273 589 273 541 215.5 c 128,-1,37
 493 158 493 158 454 158 c 0,38,39
 399 158 399 158 364 210 c 128,-1,40
 329 262 329 262 329 350 c 0,41,42
 329 490 329 490 397.5 588.5 c 128,-1,43
 466 687 466 687 561 687 c 0,44,45
 620 687 620 687 662 645 c 1,46,47
 673 680 673 680 702.5 680 c 128,-1,48
 732 680 732 680 754 654 c 1,49,50
 741 618 741 618 731 534.5 c 128,-1,51
 721 451 721 451 721 390 c 128,-1,52
 721 329 721 329 722 307 c 128,-1,53
 723 285 723 285 729 255 c 0,54,55
 740 198 740 198 788 198 c 0,0,1
443 281.5 m 128,-1,57
 456 250 456 250 480 250 c 128,-1,58
 504 250 504 250 542 305.5 c 128,-1,59
 580 361 580 361 611.5 441.5 c 128,-1,60
 643 522 643 522 651 587 c 1,61,62
 605 622 605 622 564 622 c 0,63,64
 505 622 505 622 467.5 551 c 128,-1,65
 430 480 430 480 430 368 c 0,66,56
 430 313 430 313 443 281.5 c 128,-1,57
EndSplineSet
EndChar

StartChar: A
Encoding: 65 65 38
Width: 657
GlyphClass: 2
Flags: W
LayerCount: 2
Fore
SplineSet
667 29 m 1,0,1
 651 -7 651 -7 603 -7 c 128,-1,2
 555 -7 555 -7 526.5 18 c 128,-1,3
 498 43 498 43 480.5 101 c 128,-1,4
 463 159 463 159 451 255 c 1,5,-1
 158 255 l 1,6,7
 107 140 107 140 107 77 c 0,8,9
 107 48 107 48 119 29 c 1,10,11
 95 -7 95 -7 50 -7 c 128,-1,12
 5 -7 5 -7 5 43 c 0,13,14
 5 71 5 71 22.5 125.5 c 128,-1,15
 40 180 40 180 151 410.5 c 128,-1,16
 262 641 262 641 289.5 723.5 c 128,-1,17
 317 806 317 806 317 830 c 128,-1,18
 317 854 317 854 314 866 c 1,19,20
 347 889 347 889 386 889 c 128,-1,21
 425 889 425 889 448.5 869.5 c 128,-1,22
 472 850 472 850 489.5 794 c 128,-1,23
 507 738 507 738 529.5 497 c 128,-1,24
 552 256 552 256 581 156 c 0,25,26
 602 82 602 82 667 29 c 1,0,1
386 737 m 1,27,28
 363 683 363 683 291 537 c 128,-1,29
 219 391 219 391 188 323 c 1,30,-1
 444 323 l 1,31,32
 439 386 439 386 427.5 487.5 c 128,-1,33
 416 589 416 589 412 616 c 0,34,35
 400 687 400 687 386 737 c 1,27,28
EndSplineSet
Position2: "'cpsp' Capital Spacing in Latin lookup 0 subtable" dx=0 dy=0 dh=20 dv=0
EndChar

StartChar: B
Encoding: 66 66 39
Width: 663
GlyphClass: 2
Flags: W
LayerCount: 2
Fore
SplineSet
547 836.5 m 128,-1,1
 612 786 612 786 612 716 c 128,-1,2
 612 646 612 646 565 583.5 c 128,-1,3
 518 521 518 521 432 479 c 1,4,5
 626 449 626 449 626 290 c 0,6,7
 626 213 626 213 576 136 c 0,8,9
 481 -11 481 -11 283 -11 c 0,10,11
 184 -11 184 -11 141 19 c 128,-1,12
 98 49 98 49 98 110 c 128,-1,13
 98 171 98 171 136 423.5 c 128,-1,14
 174 676 174 676 174 746.5 c 128,-1,15
 174 817 174 817 159 864 c 1,16,17
 282 887 282 887 361 887 c 0,18,0
 482 887 482 887 547 836.5 c 128,-1,1
234 427 m 1,19,20
 207 249 207 249 207 181.5 c 128,-1,21
 207 114 207 114 215 84 c 1,22,23
 253 59 253 59 310 59 c 0,24,25
 405 59 405 59 462 122 c 128,-1,26
 519 185 519 185 519 262 c 128,-1,27
 519 339 519 339 470.5 388.5 c 128,-1,28
 422 438 422 438 320 441 c 1,29,30
 276 431 276 431 234 427 c 1,19,20
440 547 m 128,-1,32
 507 604 507 604 507 673.5 c 128,-1,33
 507 743 507 743 468.5 786 c 128,-1,34
 430 829 430 829 350 829 c 0,35,36
 326 829 326 829 287 822 c 1,37,38
 286 764 286 764 242 482 c 1,39,31
 373 490 373 490 440 547 c 128,-1,32
EndSplineSet
Position2: "'cpsp' Capital Spacing in Latin lookup 0 subtable" dx=0 dy=0 dh=20 dv=0
EndChar

StartChar: C
Encoding: 67 67 40
Width: 608
GlyphClass: 2
Flags: W
LayerCount: 2
Fore
SplineSet
326 854 m 0,0,1
 389 887 389 887 460 887 c 128,-1,2
 531 887 531 887 574.5 862.5 c 128,-1,3
 618 838 618 838 618 793 c 0,4,5
 618 768 618 768 608.5 746.5 c 128,-1,6
 599 725 599 725 591 716 c 128,-1,7
 583 707 583 707 567 693 c 1,8,9
 542 750 542 750 505.5 780 c 128,-1,10
 469 810 469 810 414 810 c 128,-1,11
 359 810 359 810 317.5 777 c 128,-1,12
 276 744 276 744 252.5 695 c 128,-1,13
 229 646 229 646 213 585 c 0,14,15
 186 482 186 482 186 382 c 0,16,17
 186 221 186 221 238 135 c 128,-1,18
 290 49 290 49 393 49 c 0,19,20
 449 49 449 49 492.5 84 c 128,-1,21
 536 119 536 119 559 186 c 1,22,23
 584 158 584 158 584 117 c 0,24,25
 584 65 584 65 516.5 22 c 128,-1,26
 449 -21 449 -21 365 -21 c 0,27,28
 220 -21 220 -21 149 78 c 128,-1,29
 78 177 78 177 78 336 c 0,30,31
 78 498 78 498 140 638 c 0,32,33
 208 792 208 792 326 854 c 0,0,1
EndSplineSet
Position2: "'cpsp' Capital Spacing in Latin lookup 0 subtable" dx=0 dy=0 dh=20 dv=0
EndChar

StartChar: D
Encoding: 68 68 41
Width: 730
GlyphClass: 2
Flags: W
LayerCount: 2
Fore
SplineSet
283 -11 m 0,0,1
 184 -11 184 -11 141 19 c 128,-1,2
 98 49 98 49 98 115.5 c 128,-1,3
 98 182 98 182 136 420 c 128,-1,4
 174 658 174 658 174 733.5 c 128,-1,5
 174 809 174 809 159 854 c 1,6,7
 278 880 278 880 373 880 c 0,8,9
 528 880 528 880 609.5 806.5 c 128,-1,10
 691 733 691 733 691 569 c 128,-1,11
 691 405 691 405 642 276 c 128,-1,12
 593 147 593 147 498.5 68 c 128,-1,13
 404 -11 404 -11 283 -11 c 0,0,1
207 160 m 0,14,15
 207 115 207 115 215 85 c 1,16,17
 257 59 257 59 320.5 59 c 128,-1,18
 384 59 384 59 440 103.5 c 128,-1,19
 496 148 496 148 526 218 c 0,20,21
 586 358 586 358 586 521 c 128,-1,22
 586 684 586 684 537 751.5 c 128,-1,23
 488 819 488 819 364 819 c 0,24,25
 326 819 326 819 288 812 c 1,26,27
 288 761 288 761 247.5 512.5 c 128,-1,28
 207 264 207 264 207 160 c 0,14,15
EndSplineSet
Position2: "'cpsp' Capital Spacing in Latin lookup 0 subtable" dx=0 dy=0 dh=20 dv=0
EndChar

StartChar: E
Encoding: 69 69 42
Width: 602
GlyphClass: 2
Flags: W
LayerCount: 2
Fore
SplineSet
321 867 m 1,0,-1
 483 865 l 1,1,2
 603 865 603 865 643 884 c 1,3,4
 638 819 638 819 611.5 797.5 c 128,-1,5
 585 776 585 776 528 776 c 0,6,7
 434 776 434 776 293 798 c 1,8,9
 293 731 293 731 251 479 c 1,10,11
 447 481 447 481 507 512 c 1,12,13
 501 433 501 433 462 414 c 0,14,15
 441 403 441 403 422 400.5 c 128,-1,16
 403 398 403 398 376 398 c 128,-1,17
 349 398 349 398 239 407 c 1,18,19
 208 208 208 208 208 112 c 0,20,21
 208 92 208 92 209 83 c 1,22,23
 291 79 291 79 347 79 c 0,24,25
 536 79 536 79 585 105 c 1,26,27
 582 65 582 65 571.5 41 c 128,-1,28
 561 17 561 17 537 6 c 128,-1,29
 513 -5 513 -5 490.5 -7.5 c 128,-1,30
 468 -10 468 -10 418.5 -10 c 128,-1,31
 369 -10 369 -10 222 11 c 1,32,33
 195 -8 195 -8 168 -8 c 0,34,35
 96 -8 96 -8 96 89 c 0,36,37
 96 152 96 152 141 412 c 1,38,39
 125 413 125 413 90 413 c 1,40,41
 95 450 95 450 106 462.5 c 128,-1,42
 117 475 117 475 152 478 c 1,43,44
 180 655 180 655 180 724.5 c 128,-1,45
 180 794 180 794 165 839 c 1,46,47
 200 867 200 867 321 867 c 1,0,-1
EndSplineSet
Position2: "'cpsp' Capital Spacing in Latin lookup 0 subtable" dx=0 dy=0 dh=20 dv=0
EndChar

StartChar: F
Encoding: 70 70 43
Width: 570
GlyphClass: 2
Flags: W
LayerCount: 2
Fore
SplineSet
319 867 m 1,0,-1
 470 865 l 1,1,2
 581 865 581 865 619 884 c 1,3,4
 614 820 614 820 587 798 c 128,-1,5
 560 776 560 776 490 776 c 128,-1,6
 420 776 420 776 293 798 c 1,7,8
 292 741 292 741 250 479 c 1,9,10
 446 481 446 481 507 512 c 1,11,12
 501 433 501 433 462 414 c 0,13,14
 441 403 441 403 422 400.5 c 128,-1,15
 403 398 403 398 376.5 398 c 128,-1,16
 350 398 350 398 238 407 c 1,17,18
 214 245 214 245 214 158.5 c 128,-1,19
 214 72 214 72 253 29 c 1,20,21
 222 -7 222 -7 184 -7 c 0,22,23
 106 -7 106 -7 106 125 c 0,24,25
 106 186 106 186 142 412 c 1,26,27
 126 413 126 413 90 413 c 1,28,29
 95 450 95 450 106 462.5 c 128,-1,30
 117 475 117 475 153 478 c 1,31,32
 180 665 180 665 180 729.5 c 128,-1,33
 180 794 180 794 165 839 c 1,34,35
 200 867 200 867 319 867 c 1,0,-1
EndSplineSet
Position2: "'cpsp' Capital Spacing in Latin lookup 0 subtable" dx=0 dy=0 dh=20 dv=0
EndChar

StartChar: G
Encoding: 71 71 44
Width: 689
GlyphClass: 2
Flags: W
LayerCount: 2
Fore
SplineSet
326 854 m 0,0,1
 389 887 389 887 460 887 c 128,-1,2
 531 887 531 887 574.5 862.5 c 128,-1,3
 618 838 618 838 618 793 c 0,4,5
 618 768 618 768 608.5 746.5 c 128,-1,6
 599 725 599 725 591 716 c 128,-1,7
 583 707 583 707 567 693 c 1,8,9
 542 750 542 750 505.5 780 c 128,-1,10
 469 810 469 810 414 810 c 128,-1,11
 359 810 359 810 317.5 777 c 128,-1,12
 276 744 276 744 252.5 695 c 128,-1,13
 229 646 229 646 213 585 c 0,14,15
 186 482 186 482 186 382 c 0,16,17
 186 226 186 226 231 137.5 c 128,-1,18
 276 49 276 49 350 49 c 0,19,20
 400 49 400 49 445 74.5 c 128,-1,21
 490 100 490 100 521 144 c 1,22,23
 524 179 524 179 535.5 251 c 128,-1,24
 547 323 547 323 547 362.5 c 128,-1,25
 547 402 547 402 532 435 c 1,26,27
 554 454 554 454 586 454 c 128,-1,28
 618 454 618 454 631.5 436.5 c 128,-1,29
 645 419 645 419 645 383.5 c 128,-1,30
 645 348 645 348 628 247 c 128,-1,31
 611 146 611 146 611 102.5 c 128,-1,32
 611 59 611 59 641 24 c 1,33,34
 615 -6 615 -6 581 -6 c 0,35,36
 526 -6 526 -6 519 70 c 1,37,38
 432 -21 432 -21 318.5 -21 c 128,-1,39
 205 -21 205 -21 141.5 80 c 128,-1,40
 78 181 78 181 78 336 c 0,41,42
 78 498 78 498 140 638 c 0,43,44
 208 792 208 792 326 854 c 0,0,1
EndSplineSet
Position2: "'cpsp' Capital Spacing in Latin lookup 0 subtable" dx=0 dy=0 dh=20 dv=0
EndChar

StartChar: H
Encoding: 72 72 45
Width: 782
GlyphClass: 2
Flags: W
LayerCount: 2
Fore
SplineSet
267 864.5 m 128,-1,1
 284 840 284 840 284 775 c 128,-1,2
 284 710 284 710 240 468 c 1,3,-1
 567 468 l 1,4,5
 594 655 594 655 594 739.5 c 128,-1,6
 594 824 594 824 573 866 c 1,7,8
 583 875 583 875 603.5 882 c 128,-1,9
 624 889 624 889 640 889 c 0,10,11
 675 889 675 889 691.5 865 c 128,-1,12
 708 841 708 841 708 785.5 c 128,-1,13
 708 730 708 730 669.5 498.5 c 128,-1,14
 631 267 631 267 631 169.5 c 128,-1,15
 631 72 631 72 669 29 c 1,16,17
 639 -7 639 -7 600 -7 c 0,18,19
 522 -7 522 -7 522 125 c 0,20,21
 522 175 522 175 556 395 c 1,22,-1
 229 395 l 1,23,24
 207 255 207 255 207 162.5 c 128,-1,25
 207 70 207 70 245 29 c 1,26,27
 214 -7 214 -7 176 -7 c 0,28,29
 98 -7 98 -7 98 125 c 0,30,31
 98 180 98 180 133.5 410.5 c 128,-1,32
 169 641 169 641 169 732.5 c 128,-1,33
 169 824 169 824 148 866 c 1,34,35
 175 889 175 889 212.5 889 c 128,-1,0
 250 889 250 889 267 864.5 c 128,-1,1
EndSplineSet
Position2: "'cpsp' Capital Spacing in Latin lookup 0 subtable" dx=0 dy=0 dh=20 dv=0
EndChar

StartChar: I
Encoding: 73 73 46
Width: 332
GlyphClass: 2
Flags: W
LayerCount: 2
Fore
SplineSet
245.5 498.5 m 128,-1,1
 207 267 207 267 207 168.5 c 128,-1,2
 207 70 207 70 245 29 c 1,3,4
 214 -7 214 -7 176 -7 c 0,5,6
 98 -7 98 -7 98 125 c 0,7,8
 98 180 98 180 133.5 410.5 c 128,-1,9
 169 641 169 641 169 732.5 c 128,-1,10
 169 824 169 824 148 866 c 1,11,12
 175 889 175 889 212.5 889 c 128,-1,13
 250 889 250 889 267 864.5 c 128,-1,14
 284 840 284 840 284 785 c 128,-1,0
 284 730 284 730 245.5 498.5 c 128,-1,1
EndSplineSet
Position2: "'cpsp' Capital Spacing in Latin lookup 0 subtable" dx=0 dy=0 dh=20 dv=0
EndChar

StartChar: J
Encoding: 74 74 47
Width: 336
GlyphClass: 2
Flags: W
LayerCount: 2
Fore
SplineSet
276 783 m 0,0,1
 276 576 276 576 246 352 c 1,2,3
 217 126 217 126 134 -50 c 0,4,5
 95 -133 95 -133 37 -181 c 128,-1,6
 -21 -229 -21 -229 -92 -229 c 0,7,8
 -139 -229 -139 -229 -175.5 -206 c 128,-1,9
 -212 -183 -212 -183 -212 -134 c 128,-1,10
 -212 -85 -212 -85 -176 -51 c 1,11,12
 -159 -100 -159 -100 -135 -124.5 c 128,-1,13
 -111 -149 -111 -149 -65 -149 c 128,-1,14
 -19 -149 -19 -149 17.5 -105 c 128,-1,15
 54 -61 54 -61 78 15 c 128,-1,16
 102 91 102 91 119 180.5 c 128,-1,17
 136 270 136 270 145 374 c 0,18,19
 162 569 162 569 162 731 c 0,20,21
 162 824 162 824 141 866 c 1,22,23
 151 875 151 875 171.5 882 c 128,-1,24
 192 889 192 889 208 889 c 0,25,26
 242 889 242 889 259 864.5 c 128,-1,27
 276 840 276 840 276 783 c 0,0,1
EndSplineSet
Position2: "'cpsp' Capital Spacing in Latin lookup 0 subtable" dx=0 dy=0 dh=20 dv=0
EndChar

StartChar: K
Encoding: 75 75 48
Width: 632
GlyphClass: 2
Flags: W
LayerCount: 2
Fore
SplineSet
222 346 m 1,0,1
 207 238 207 238 207 154 c 128,-1,2
 207 70 207 70 245 29 c 1,3,4
 214 -7 214 -7 176 -7 c 0,5,6
 98 -7 98 -7 98 125 c 0,7,8
 98 180 98 180 133.5 410.5 c 128,-1,9
 169 641 169 641 169 732.5 c 128,-1,10
 169 824 169 824 148 866 c 1,11,12
 175 889 175 889 212.5 889 c 128,-1,13
 250 889 250 889 267 864.5 c 128,-1,14
 284 840 284 840 284 783 c 0,15,16
 284 718 284 718 236 440 c 1,17,18
 366 569 366 569 462.5 701.5 c 128,-1,19
 559 834 559 834 571 879 c 1,20,21
 612 879 612 879 636.5 866 c 128,-1,22
 661 853 661 853 661 834.5 c 128,-1,23
 661 816 661 816 564 702 c 128,-1,24
 467 588 467 588 354 472 c 1,25,26
 362 457 362 457 392 396 c 128,-1,27
 422 335 422 335 441 298 c 0,28,29
 495 191 495 191 523 151 c 0,30,31
 572 83 572 83 632 74 c 1,32,33
 625 28 625 28 600.5 9 c 128,-1,34
 576 -10 576 -10 553 -10 c 0,35,36
 503 -10 503 -10 458 57 c 0,37,38
 437 88 437 88 283 403 c 1,39,40
 241 363 241 363 222 346 c 1,0,1
EndSplineSet
Position2: "'cpsp' Capital Spacing in Latin lookup 0 subtable" dx=0 dy=0 dh=20 dv=0
EndChar

StartChar: L
Encoding: 76 76 49
Width: 562
GlyphClass: 2
Flags: W
LayerCount: 2
Fore
SplineSet
267 864.5 m 128,-1,1
 284 840 284 840 284 781 c 128,-1,2
 284 722 284 722 241.5 468.5 c 128,-1,3
 199 215 199 215 199 112 c 0,4,5
 199 92 199 92 200 82 c 1,6,7
 257 79 257 79 329 79 c 0,8,9
 515 79 515 79 562 105 c 1,10,11
 559 65 559 65 549 41 c 128,-1,12
 539 17 539 17 516.5 6 c 128,-1,13
 494 -5 494 -5 472.5 -7.5 c 128,-1,14
 451 -10 451 -10 404 -10 c 128,-1,15
 357 -10 357 -10 214 11 c 1,16,17
 187 -8 187 -8 158 -8 c 0,18,19
 86 -8 86 -8 86 89 c 0,20,21
 86 153 86 153 127.5 391 c 128,-1,22
 169 629 169 629 169 726.5 c 128,-1,23
 169 824 169 824 148 866 c 1,24,25
 175 889 175 889 212.5 889 c 128,-1,0
 250 889 250 889 267 864.5 c 128,-1,1
EndSplineSet
Position2: "'cpsp' Capital Spacing in Latin lookup 0 subtable" dx=0 dy=0 dh=20 dv=0
EndChar

StartChar: M
Encoding: 77 77 50
Width: 886
GlyphClass: 2
Flags: W
LayerCount: 2
Fore
SplineSet
799.5 498.5 m 128,-1,1
 761 267 761 267 761 169.5 c 128,-1,2
 761 72 761 72 799 29 c 1,3,4
 768 -7 768 -7 730 -7 c 0,5,6
 652 -7 652 -7 652 125 c 0,7,8
 652 179 652 179 688 411.5 c 128,-1,9
 724 644 724 644 724 740 c 1,10,11
 577 445 577 445 552 367.5 c 128,-1,12
 527 290 527 290 527 254 c 0,13,14
 527 246 527 246 529 230 c 1,15,16
 522 221 522 221 501.5 214 c 128,-1,17
 481 207 481 207 460 207 c 0,18,19
 416 207 416 207 392.5 235.5 c 128,-1,20
 369 264 369 264 350 341.5 c 128,-1,21
 331 419 331 419 306 529 c 128,-1,22
 281 639 281 639 260 716 c 1,23,24
 258 697 258 697 222.5 478.5 c 128,-1,25
 187 260 187 260 187 166 c 128,-1,26
 187 72 187 72 226 29 c 1,27,28
 212 -7 212 -7 171 -7 c 0,29,30
 98 -7 98 -7 98 125 c 0,31,32
 98 180 98 180 133.5 410.5 c 128,-1,33
 169 641 169 641 169 732.5 c 128,-1,34
 169 824 169 824 148 866 c 1,35,36
 171 889 171 889 218 888.5 c 128,-1,37
 265 888 265 888 298.5 861.5 c 128,-1,38
 332 835 332 835 350.5 774.5 c 128,-1,39
 369 714 369 714 399.5 570 c 128,-1,40
 430 426 430 426 460 330 c 1,41,42
 482 390 482 390 540 511.5 c 128,-1,43
 598 633 598 633 638 726.5 c 128,-1,44
 678 820 678 820 678 861 c 1,45,46
 710 889 710 889 770 889 c 0,47,48
 804 889 804 889 821 864.5 c 128,-1,49
 838 840 838 840 838 785 c 128,-1,0
 838 730 838 730 799.5 498.5 c 128,-1,1
EndSplineSet
Position2: "'cpsp' Capital Spacing in Latin lookup 0 subtable" dx=0 dy=0 dh=20 dv=0
EndChar

StartChar: N
Encoding: 78 78 51
Width: 769
GlyphClass: 2
Flags: W
LayerCount: 2
Fore
SplineSet
682.5 498.5 m 128,-1,1
 644 267 644 267 644 170.5 c 128,-1,2
 644 74 644 74 685 29 c 1,3,4
 671 -7 671 -7 623 -7 c 128,-1,5
 575 -7 575 -7 542 18.5 c 128,-1,6
 509 44 509 44 476.5 107 c 128,-1,7
 444 170 444 170 372 394 c 128,-1,8
 300 618 300 618 259 707 c 1,9,10
 258 698 258 698 222.5 478.5 c 128,-1,11
 187 259 187 259 187 165.5 c 128,-1,12
 187 72 187 72 226 29 c 1,13,14
 212 -7 212 -7 171 -7 c 0,15,16
 98 -7 98 -7 98 125 c 0,17,18
 98 180 98 180 133.5 410.5 c 128,-1,19
 169 641 169 641 169 732.5 c 128,-1,20
 169 824 169 824 148 866 c 1,21,22
 153 875 153 875 172 882 c 128,-1,23
 191 889 191 889 224 889 c 128,-1,24
 257 889 257 889 284 869 c 128,-1,25
 311 849 311 849 339.5 794 c 128,-1,26
 368 739 368 739 439.5 509.5 c 128,-1,27
 511 280 511 280 558 180 c 1,28,29
 562 219 562 219 594 432.5 c 128,-1,30
 626 646 626 646 626 735 c 128,-1,31
 626 824 626 824 605 866 c 1,32,33
 613 875 613 875 632.5 882 c 128,-1,34
 652 889 652 889 665 889 c 0,35,36
 694 889 694 889 707.5 865 c 128,-1,37
 721 841 721 841 721 785.5 c 128,-1,0
 721 730 721 730 682.5 498.5 c 128,-1,1
EndSplineSet
Position2: "'cpsp' Capital Spacing in Latin lookup 0 subtable" dx=0 dy=0 dh=20 dv=0
EndChar

StartChar: O
Encoding: 79 79 52
Width: 782
GlyphClass: 2
Flags: W
LayerCount: 2
Fore
SplineSet
630 487 m 0,0,1
 630 644 630 644 571.5 727 c 128,-1,2
 513 810 513 810 411 810 c 0,3,4
 359 810 359 810 318 776.5 c 128,-1,5
 277 743 277 743 253 694.5 c 128,-1,6
 229 646 229 646 213 584 c 0,7,8
 186 481 186 481 186 380 c 0,9,10
 186 223 186 223 244.5 140 c 128,-1,11
 303 57 303 57 405 57 c 0,12,13
 457 57 457 57 498 90.5 c 128,-1,14
 539 124 539 124 563 172.5 c 128,-1,15
 587 221 587 221 603 282 c 0,16,17
 630 386 630 386 630 487 c 0,0,1
344 -21 m 0,18,19
 219 -21 219 -21 148.5 80 c 128,-1,20
 78 181 78 181 78 336 c 0,21,22
 78 536 78 536 176 706 c 0,23,24
 223 787 223 787 300.5 838 c 128,-1,25
 378 889 378 889 472 889 c 0,26,27
 597 889 597 889 667.5 787.5 c 128,-1,28
 738 686 738 686 738 531 c 0,29,30
 738 370 738 370 674 229 c 0,31,32
 604 73 604 73 486 12 c 0,33,34
 420 -21 420 -21 344 -21 c 0,18,19
EndSplineSet
Position2: "'cpsp' Capital Spacing in Latin lookup 0 subtable" dx=0 dy=0 dh=20 dv=0
EndChar

StartChar: P
Encoding: 80 80 53
Width: 575
GlyphClass: 2
Flags: W
LayerCount: 2
Fore
SplineSet
624 684 m 0,0,1
 624 620 624 620 596 564.5 c 128,-1,2
 568 509 568 509 526 470.5 c 128,-1,3
 484 432 484 432 427 400 c 0,4,5
 330 347 330 347 218 319 c 1,6,7
 207 229 207 229 207 166 c 0,8,9
 207 70 207 70 245 29 c 1,10,11
 214 -7 214 -7 176 -7 c 0,12,13
 98 -7 98 -7 98 125 c 0,14,15
 98 180 98 180 136 428 c 128,-1,16
 174 676 174 676 174 746.5 c 128,-1,17
 174 817 174 817 159 864 c 1,18,19
 294 889 294 889 377 889 c 0,20,21
 624 889 624 889 624 684 c 0,0,1
519 663 m 0,22,23
 519 828 519 828 355 828 c 0,24,25
 323 828 323 828 287 822 c 1,26,27
 287 760 287 760 260.5 596.5 c 128,-1,28
 234 433 234 433 227 387 c 1,29,30
 343 411 343 411 427 474 c 0,31,32
 470 507 470 507 494.5 555.5 c 128,-1,33
 519 604 519 604 519 663 c 0,22,23
EndSplineSet
Position2: "'cpsp' Capital Spacing in Latin lookup 0 subtable" dx=0 dy=0 dh=20 dv=0
EndChar

StartChar: Q
Encoding: 81 81 54
Width: 772
GlyphClass: 2
Flags: W
LayerCount: 2
Fore
SplineSet
339 -21 m 0,0,1
 214 -21 214 -21 143.5 80 c 128,-1,2
 73 181 73 181 73 336 c 0,3,4
 73 536 73 536 171 706 c 0,5,6
 218 787 218 787 295.5 838 c 128,-1,7
 373 889 373 889 467 889 c 0,8,9
 592 889 592 889 662.5 787.5 c 128,-1,10
 733 686 733 686 733 531 c 0,11,12
 733 288 733 288 604 119 c 0,13,14
 537 31 537 31 446 -2 c 1,15,16
 535 -51 535 -51 601 -77.5 c 128,-1,17
 667 -104 667 -104 730 -104 c 0,18,19
 754 -104 754 -104 773 -100 c 1,20,21
 773 -145 773 -145 744 -175 c 128,-1,22
 715 -205 715 -205 670 -205 c 128,-1,23
 625 -205 625 -205 581.5 -180 c 128,-1,24
 538 -155 538 -155 469.5 -96.5 c 128,-1,25
 401 -38 401 -38 375 -19 c 1,26,27
 351 -21 351 -21 339 -21 c 0,0,1
625 487 m 0,28,29
 625 644 625 644 566.5 727 c 128,-1,30
 508 810 508 810 406 810 c 0,31,32
 354 810 354 810 313 776.5 c 128,-1,33
 272 743 272 743 248 694.5 c 128,-1,34
 224 646 224 646 208 584 c 0,35,36
 181 481 181 481 181 380 c 0,37,38
 181 223 181 223 239.5 140 c 128,-1,39
 298 57 298 57 400 57 c 0,40,41
 452 57 452 57 493 90.5 c 128,-1,42
 534 124 534 124 558 172.5 c 128,-1,43
 582 221 582 221 598 282 c 0,44,45
 625 386 625 386 625 487 c 0,28,29
EndSplineSet
Position2: "'cpsp' Capital Spacing in Latin lookup 0 subtable" dx=0 dy=0 dh=20 dv=0
EndChar

StartChar: R
Encoding: 82 82 55
Width: 654
GlyphClass: 2
Flags: W
LayerCount: 2
Fore
SplineSet
638 692 m 0,0,1
 638 512 638 512 394 401 c 1,2,3
 407 375 407 375 432 323.5 c 128,-1,4
 457 272 457 272 470 247 c 128,-1,5
 483 222 483 222 505 185 c 128,-1,6
 527 148 527 148 544 130 c 0,7,8
 590 81 590 81 637 74 c 1,9,10
 630 28 630 28 605.5 9 c 128,-1,11
 581 -10 581 -10 558 -10 c 0,12,13
 507 -10 507 -10 463 57 c 1,14,15
 437 94 437 94 306 367 c 1,16,17
 289 361 289 361 221 343 c 1,18,19
 207 240 207 240 207 155 c 128,-1,20
 207 70 207 70 245 29 c 1,21,22
 214 -7 214 -7 176 -7 c 0,23,24
 98 -7 98 -7 98 125 c 0,25,26
 98 180 98 180 136 428 c 128,-1,27
 174 676 174 676 174 746.5 c 128,-1,28
 174 817 174 817 159 864 c 1,29,30
 294 889 294 889 382 889 c 0,31,32
 638 889 638 889 638 692 c 0,0,1
533 672 m 0,33,34
 533 753 533 753 485 790.5 c 128,-1,35
 437 828 437 828 358 828 c 0,36,37
 323 828 323 828 287 822 c 1,38,39
 287 766 287 766 274 685 c 0,40,41
 259 586 259 586 231 412 c 1,42,43
 350 436 350 436 436 494 c 0,44,45
 481 525 481 525 507 570.5 c 128,-1,46
 533 616 533 616 533 672 c 0,33,34
EndSplineSet
Position2: "'cpsp' Capital Spacing in Latin lookup 0 subtable" dx=0 dy=0 dh=20 dv=0
EndChar

StartChar: S
Encoding: 83 83 56
Width: 563
GlyphClass: 2
Flags: W
LayerCount: 2
Fore
SplineSet
423 780 m 128,-1,1
 376 815 376 815 318.5 815 c 128,-1,2
 261 815 261 815 224 780.5 c 128,-1,3
 187 746 187 746 187 684 c 0,4,5
 187 656 187 656 191.5 638 c 128,-1,6
 196 620 196 620 215.5 598.5 c 128,-1,7
 235 577 235 577 253.5 562 c 128,-1,8
 272 547 272 547 322 507 c 128,-1,9
 372 467 372 467 424.5 422.5 c 128,-1,10
 477 378 477 378 505 331 c 128,-1,11
 533 284 533 284 533 211 c 0,12,13
 533 115 533 115 456.5 49 c 128,-1,14
 380 -17 380 -17 262 -17 c 0,15,16
 170 -17 170 -17 101 19.5 c 128,-1,17
 32 56 32 56 32 123 c 0,18,19
 32 152 32 152 45 175 c 128,-1,20
 58 198 58 198 83 227 c 1,21,22
 127 49 127 49 288 49 c 0,23,24
 346 49 346 49 390 82 c 128,-1,25
 434 115 434 115 434 180 c 0,26,27
 434 217 434 217 425 236.5 c 128,-1,28
 416 256 416 256 410.5 267 c 128,-1,29
 405 278 405 278 391 293.5 c 128,-1,30
 377 309 377 309 368 318.5 c 128,-1,31
 359 328 359 328 337 346.5 c 128,-1,32
 315 365 315 365 302.5 375.5 c 128,-1,33
 290 386 290 386 260 409.5 c 128,-1,34
 230 433 230 433 213 447 c 0,35,36
 155 494 155 494 124.5 541 c 128,-1,37
 94 588 94 588 94 654 c 0,38,39
 94 765 94 765 169 827 c 128,-1,40
 244 889 244 889 365 889 c 0,41,42
 437 889 437 889 486 861 c 128,-1,43
 535 833 535 833 535 784 c 128,-1,44
 535 735 535 735 490 695 c 1,45,0
 470 745 470 745 423 780 c 128,-1,1
EndSplineSet
Position2: "'cpsp' Capital Spacing in Latin lookup 0 subtable" dx=0 dy=0 dh=20 dv=0
EndChar

StartChar: T
Encoding: 84 84 57
Width: 537
GlyphClass: 2
Flags: W
LayerCount: 2
Fore
SplineSet
540 776 m 1,0,-1
 385 788 l 1,1,2
 383 724 383 724 344.5 492.5 c 128,-1,3
 306 261 306 261 306 166.5 c 128,-1,4
 306 72 306 72 345 29 c 1,5,6
 314 -7 314 -7 275 -7 c 0,7,8
 198 -7 198 -7 198 125 c 0,9,10
 198 180 198 180 234.5 415.5 c 128,-1,11
 271 651 271 651 271 741 c 0,12,13
 271 772 271 772 270 789 c 1,14,15
 131 788 131 788 43 757 c 1,16,17
 47 822 47 822 70.5 845.5 c 128,-1,18
 94 869 94 869 141 869 c 2,19,-1
 513 865 l 2,20,21
 606 865 606 865 637 884 c 1,22,23
 633 819 633 819 610.5 797.5 c 128,-1,24
 588 776 588 776 540 776 c 1,0,-1
EndSplineSet
Position2: "'cpsp' Capital Spacing in Latin lookup 0 subtable" dx=0 dy=0 dh=20 dv=0
EndChar

StartChar: U
Encoding: 85 85 58
Width: 742
GlyphClass: 2
Flags: W
LayerCount: 2
Fore
SplineSet
252 80 m 0,0,1
 299 80 299 80 388 170.5 c 128,-1,2
 477 261 477 261 537 367 c 1,3,4
 539 380 539 380 548.5 441.5 c 128,-1,5
 558 503 558 503 561 526.5 c 128,-1,6
 564 550 564 550 570 596 c 0,7,8
 580 671 580 671 580 747.5 c 128,-1,9
 580 824 580 824 559 866 c 1,10,11
 569 875 569 875 589.5 882 c 128,-1,12
 610 889 610 889 625 889 c 0,13,14
 660 889 660 889 677 864.5 c 128,-1,15
 694 840 694 840 694 785 c 128,-1,16
 694 730 694 730 655.5 498.5 c 128,-1,17
 617 267 617 267 617 169.5 c 128,-1,18
 617 72 617 72 655 29 c 1,19,20
 624 -7 624 -7 586 -7 c 0,21,22
 508 -7 508 -7 508 125 c 0,23,24
 508 169 508 169 519 243 c 1,25,26
 451 137 451 137 365.5 60.5 c 128,-1,27
 280 -16 280 -16 223 -16 c 0,28,29
 98 -16 98 -16 98 153 c 0,30,31
 98 207 98 207 131.5 424 c 128,-1,32
 165 641 165 641 165 732.5 c 128,-1,33
 165 824 165 824 144 866 c 1,34,35
 171 889 171 889 208.5 889 c 128,-1,36
 246 889 246 889 263 864.5 c 128,-1,37
 280 840 280 840 280 785 c 128,-1,38
 280 730 280 730 241 494.5 c 128,-1,39
 202 259 202 259 202 158 c 0,40,41
 202 80 202 80 252 80 c 0,0,1
EndSplineSet
Position2: "'cpsp' Capital Spacing in Latin lookup 0 subtable" dx=0 dy=0 dh=20 dv=0
EndChar

StartChar: V
Encoding: 86 86 59
Width: 642
GlyphClass: 2
Flags: W
LayerCount: 2
Fore
SplineSet
90 889 m 0,0,1
 137 889 137 889 166.5 863.5 c 128,-1,2
 196 838 196 838 215 775 c 128,-1,3
 234 712 234 712 257 474 c 128,-1,4
 280 236 280 236 307 146 c 1,5,6
 332 206 332 206 409 358.5 c 128,-1,7
 486 511 486 511 535 627 c 128,-1,8
 584 743 584 743 584 804 c 0,9,10
 584 833 584 833 572 853 c 1,11,12
 596 889 596 889 641 889 c 128,-1,13
 686 889 686 889 686 840 c 128,-1,14
 686 791 686 791 637 678 c 128,-1,15
 588 565 588 565 530 451.5 c 128,-1,16
 472 338 472 338 423 218.5 c 128,-1,17
 374 99 374 99 374 40 c 0,18,19
 374 30 374 30 376 16 c 1,20,21
 360 -7 360 -7 312 -7 c 128,-1,22
 264 -7 264 -7 241 12.5 c 128,-1,23
 218 32 218 32 201 87.5 c 128,-1,24
 184 143 184 143 161.5 384 c 128,-1,25
 139 625 139 625 110 725 c 0,26,27
 89 799 89 799 24 853 c 1,28,29
 33 870 33 870 53 879.5 c 128,-1,30
 73 889 73 889 90 889 c 0,0,1
EndSplineSet
Position2: "'cpsp' Capital Spacing in Latin lookup 0 subtable" dx=0 dy=0 dh=20 dv=0
EndChar

StartChar: W
Encoding: 87 87 60
Width: 948
GlyphClass: 2
Flags: W
LayerCount: 2
Fore
SplineSet
92 889 m 0,0,1
 139 889 139 889 167 863.5 c 128,-1,2
 195 838 195 838 212.5 775 c 128,-1,3
 230 712 230 712 244 480.5 c 128,-1,4
 258 249 258 249 280 158 c 1,5,6
 300 209 300 209 378.5 384 c 128,-1,7
 457 559 457 559 487 645 c 1,8,9
 469 745 469 745 435 763 c 1,10,11
 448 784 448 784 472.5 798 c 128,-1,12
 497 812 497 812 522 812 c 0,13,14
 567 812 567 812 580 766 c 1,15,16
 594 712 594 712 608 481 c 128,-1,17
 622 250 622 250 644 159 c 1,18,19
 666 214 666 214 736.5 368 c 128,-1,20
 807 522 807 522 848.5 633 c 128,-1,21
 890 744 890 744 890 804 c 0,22,23
 890 833 890 833 878 853 c 1,24,25
 902 889 902 889 947 889 c 128,-1,26
 992 889 992 889 992 840 c 128,-1,27
 992 791 992 791 948 678 c 128,-1,28
 904 565 904 565 850.5 451.5 c 128,-1,29
 797 338 797 338 753 218.5 c 128,-1,30
 709 99 709 99 709 40 c 0,31,32
 709 26 709 26 712 16 c 1,33,34
 703 6 703 6 683.5 -0.5 c 128,-1,35
 664 -7 664 -7 648 -7 c 0,36,37
 601 -7 601 -7 578 12 c 128,-1,38
 555 31 555 31 542 77.5 c 128,-1,39
 529 124 529 124 523.5 184.5 c 128,-1,40
 518 245 518 245 513 345 c 128,-1,41
 508 445 508 445 504 493 c 1,42,43
 450 371 450 371 425.5 312.5 c 128,-1,44
 401 254 401 254 373 169.5 c 128,-1,45
 345 85 345 85 345 40 c 0,46,47
 345 30 345 30 347 16 c 1,48,49
 326 -7 326 -7 281.5 -7 c 128,-1,50
 237 -7 237 -7 213.5 12 c 128,-1,51
 190 31 190 31 174.5 87 c 128,-1,52
 159 143 159 143 145 384 c 128,-1,53
 131 625 131 625 106 725 c 0,54,55
 88 798 88 798 24 853 c 1,56,57
 34 870 34 870 54.5 879.5 c 128,-1,58
 75 889 75 889 92 889 c 0,0,1
EndSplineSet
Position2: "'cpsp' Capital Spacing in Latin lookup 0 subtable" dx=0 dy=0 dh=20 dv=0
EndChar

StartChar: X
Encoding: 88 88 61
Width: 638
GlyphClass: 2
Flags: W
LayerCount: 2
Fore
SplineSet
514 803 m 0,0,1
 514 824 514 824 505 838 c 1,2,3
 531 869 531 869 572 869 c 0,4,5
 618 869 618 869 618 812 c 0,6,7
 618 777 618 777 539.5 652.5 c 128,-1,8
 461 528 461 528 365 409 c 1,9,10
 437 270 437 270 511 170.5 c 128,-1,11
 585 71 585 71 638 51 c 1,12,13
 625 -13 625 -13 568 -13 c 128,-1,14
 511 -13 511 -13 435.5 82.5 c 128,-1,15
 360 178 360 178 284 326 c 1,16,17
 227 244 227 244 186 165.5 c 128,-1,18
 145 87 145 87 145 59.5 c 128,-1,19
 145 32 145 32 154 18 c 1,20,21
 127 -13 127 -13 86 -13 c 0,22,23
 41 -13 41 -13 41 43 c 0,24,25
 41 74 41 74 103.5 177 c 128,-1,26
 166 280 166 280 251 392 c 1,27,28
 193 514 193 514 154.5 624.5 c 128,-1,29
 116 735 116 735 116 774.5 c 128,-1,30
 116 814 116 814 133.5 835 c 128,-1,31
 151 856 151 856 200 871 c 1,32,33
 215 716 215 716 333 472 c 1,34,35
 400 561 400 561 457 661.5 c 128,-1,36
 514 762 514 762 514 803 c 0,0,1
EndSplineSet
Position2: "'cpsp' Capital Spacing in Latin lookup 0 subtable" dx=0 dy=0 dh=20 dv=0
EndChar

StartChar: Y
Encoding: 89 89 62
Width: 552
GlyphClass: 2
Flags: W
LayerCount: 2
Fore
SplineSet
458 700.5 m 128,-1,1
 484 756 484 756 484 793 c 128,-1,2
 484 830 484 830 474 849 c 1,3,4
 500 885 500 885 545.5 885 c 128,-1,5
 591 885 591 885 591 837 c 0,6,7
 591 800 591 800 547.5 720.5 c 128,-1,8
 504 641 504 641 486.5 610 c 128,-1,9
 469 579 469 579 423 502 c 128,-1,10
 377 425 377 425 370 414 c 0,11,12
 335 355 335 355 326 306 c 1,13,14
 314 210 314 210 314 155 c 0,15,16
 314 69 314 69 350 29 c 1,17,18
 319 -7 319 -7 281 -7 c 128,-1,19
 243 -7 243 -7 224 21.5 c 128,-1,20
 205 50 205 50 205 108 c 128,-1,21
 205 166 205 166 228 309 c 1,22,23
 125 823 125 823 27 823 c 1,24,25
 38 857 38 857 63 873 c 128,-1,26
 88 889 88 889 111 889 c 0,27,28
 171 889 171 889 208 785 c 1,29,30
 251 658 251 658 302 419 c 1,31,32
 330 476 330 476 381 560.5 c 128,-1,0
 432 645 432 645 458 700.5 c 128,-1,1
EndSplineSet
Position2: "'cpsp' Capital Spacing in Latin lookup 0 subtable" dx=0 dy=0 dh=20 dv=0
EndChar

StartChar: Z
Encoding: 90 90 63
Width: 571
GlyphClass: 2
Flags: W
LayerCount: 2
Fore
SplineSet
238 732 m 0,0,1
 89 732 89 732 89 809 c 0,2,3
 89 852 89 852 113 884 c 1,4,5
 209 825 209 825 345 825 c 0,6,7
 402 825 402 825 452 830 c 1,8,9
 486 866 486 866 525 866 c 0,10,11
 601 866 601 866 601 789 c 1,12,13
 569 784 569 784 523.5 734 c 128,-1,14
 478 684 478 684 435 617 c 128,-1,15
 392 550 392 550 336 446 c 0,16,17
 262 311 262 311 150 78 c 1,18,19
 289 116 289 116 384.5 116 c 128,-1,20
 480 116 480 116 515.5 97 c 128,-1,21
 551 78 551 78 551 12 c 0,22,23
 551 1 551 1 549 -23 c 1,24,25
 494 -1 494 -1 442 9 c 128,-1,26
 390 19 390 19 293 19 c 128,-1,27
 196 19 196 19 107 -1 c 1,28,29
 87 -21 87 -21 64 -21 c 0,30,31
 28 -21 28 -21 10 17 c 1,32,33
 97 208 97 208 397 749 c 1,34,35
 303 732 303 732 238 732 c 0,0,1
EndSplineSet
Position2: "'cpsp' Capital Spacing in Latin lookup 0 subtable" dx=0 dy=0 dh=20 dv=0
EndChar

StartChar: bracketleft
Encoding: 91 91 64
Width: 392
GlyphClass: 2
Flags: W
LayerCount: 2
Fore
SplineSet
47 -49 m 0,0,1
 47 15 47 15 99 369 c 128,-1,2
 151 723 151 723 151 825 c 0,3,4
 151 878 151 878 136 923 c 1,5,6
 171 951 171 951 291.5 951 c 128,-1,7
 412 951 412 951 452 970 c 1,8,9
 452 913 452 913 422.5 887 c 128,-1,10
 393 861 393 861 348.5 861 c 128,-1,11
 304 861 304 861 264 882 c 1,12,13
 264 830 264 830 211.5 462 c 128,-1,14
 159 94 159 94 159 -53 c 1,15,16
 186 -53 186 -53 247 -39 c 128,-1,17
 308 -25 308 -25 335 -11 c 1,18,19
 335 -53 335 -53 331 -70 c 0,20,21
 318 -126 318 -126 172 -126 c 0,22,23
 99 -126 99 -126 73 -107 c 128,-1,24
 47 -88 47 -88 47 -49 c 0,0,1
EndSplineSet
Position2: "'case' Case-Sensitive Forms in Latin lookup 1 per glyph data 0" dx=0 dy=40 dh=0 dv=0
EndChar

StartChar: backslash
Encoding: 92 92 65
Width: 388
GlyphClass: 2
Flags: W
LayerCount: 2
Fore
SplineSet
29 947 m 0,0,1
 103 947 103 947 156 798 c 0,2,3
 178 734 178 734 238 439 c 128,-1,4
 298 144 298 144 339 29 c 0,5,6
 364 -43 364 -43 413 -101 c 1,7,8
 387 -128 387 -128 354.5 -128 c 128,-1,9
 322 -128 322 -128 298.5 -102 c 128,-1,10
 275 -76 275 -76 253.5 -14.5 c 128,-1,11
 232 47 232 47 175.5 337 c 128,-1,12
 119 627 119 627 77 753 c 0,13,14
 59 808 59 808 37 845 c 128,-1,15
 15 882 15 882 -24 903 c 1,16,17
 -23 926 -23 926 -6 936.5 c 128,-1,18
 11 947 11 947 29 947 c 0,0,1
EndSplineSet
EndChar

StartChar: bracketright
Encoding: 93 93 66
Width: 392
GlyphClass: 2
Flags: W
LayerCount: 2
Fore
SplineSet
136 861 m 0,0,1
 51 861 51 861 51 942 c 0,2,3
 51 953 51 953 56 970 c 1,4,5
 87 951 87 951 208.5 951 c 128,-1,6
 330 951 330 951 360 923 c 1,7,8
 298 832 298 832 278 295 c 1,9,10
 264 -16 264 -16 208 -91 c 0,11,12
 184 -124 184 -124 151 -124 c 0,13,14
 26 -124 26 -124 -8 -98 c 0,15,16
 -25 -85 -25 -85 -29 -68 c 128,-1,17
 -33 -51 -33 -51 -33 -9 c 1,18,19
 9 -31 9 -31 127 -47 c 1,20,21
 157 31 157 31 172.5 229.5 c 128,-1,22
 188 428 188 428 199 624.5 c 128,-1,23
 210 821 210 821 228 882 c 1,24,25
 181 861 181 861 136 861 c 0,0,1
EndSplineSet
Position2: "'case' Case-Sensitive Forms in Latin lookup 1 per glyph data 0" dx=0 dy=40 dh=0 dv=0
EndChar

StartChar: asciicircum
Encoding: 94 94 67
Width: 544
GlyphClass: 2
Flags: W
LayerCount: 2
Fore
SplineSet
233 891 m 1,0,-1
 232 904 l 1,1,2
 265 916 265 916 288 916 c 0,3,4
 329 916 329 916 339 873 c 0,5,6
 387 669 387 669 425 577.5 c 128,-1,7
 463 486 463 486 519 485 c 1,8,9
 508 451 508 451 484 435 c 128,-1,10
 460 419 460 419 437 419 c 0,11,12
 371 419 371 419 335 522 c 0,13,14
 326 549 326 549 302 648 c 128,-1,15
 278 747 278 747 260 812 c 1,16,17
 240 767 240 767 211.5 706 c 128,-1,18
 183 645 183 645 170 617 c 0,19,20
 138 544 138 544 138 507 c 128,-1,21
 138 470 138 470 149 451 c 1,22,23
 126 422 126 422 86 422 c 0,24,25
 40 422 40 422 40 473 c 0,26,27
 40 507 40 507 88 599.5 c 128,-1,28
 136 692 136 692 184.5 780 c 128,-1,29
 233 868 233 868 233 891 c 1,0,-1
EndSplineSet
EndChar

StartChar: underscore
Encoding: 95 95 68
Width: 452
GlyphClass: 2
Flags: W
LayerCount: 2
Fore
SplineSet
334 -86 m 1,0,-1
 125 -83 l 1,1,2
 52 -83 52 -83 19 -100 c 1,3,4
 0 -71 0 -71 0 -43 c 0,5,6
 0 10 0 10 60 10 c 1,7,-1
 293 0 l 1,8,9
 325 0 325 0 372.5 6 c 128,-1,10
 420 12 420 12 437 21 c 1,11,12
 452 4 452 4 452 -30 c 0,13,14
 452 -86 452 -86 334 -86 c 1,0,-1
EndSplineSet
EndChar

StartChar: grave
Encoding: 96 96 69
Width: 309
GlyphClass: 2
Flags: W
LayerCount: 2
Fore
SplineSet
158.5 873 m 128,-1,1
 152 880 152 880 152 890.5 c 128,-1,2
 152 901 152 901 165.5 909.5 c 128,-1,3
 179 918 179 918 205.5 918 c 128,-1,4
 232 918 232 918 256 913 c 1,5,6
 269 890 269 890 302.5 859.5 c 128,-1,7
 336 829 336 829 417 768 c 1,8,9
 401 740 401 740 388 740 c 128,-1,10
 375 740 375 740 308.5 776 c 128,-1,11
 242 812 242 812 203.5 839 c 128,-1,0
 165 866 165 866 158.5 873 c 128,-1,1
EndSplineSet
EndChar

StartChar: a
Encoding: 97 97 70
Width: 687
GlyphClass: 2
Flags: W
LayerCount: 2
Fore
SplineSet
215 -14 m 0,0,1
 147 -14 147 -14 107.5 53 c 128,-1,2
 68 120 68 120 68 237 c 0,3,4
 68 425 68 425 152.5 554.5 c 128,-1,5
 237 684 237 684 361 684 c 0,6,7
 446 684 446 684 502 617 c 1,8,9
 510 648 510 648 522.5 661 c 128,-1,10
 535 674 535 674 561.5 674 c 128,-1,11
 588 674 588 674 611 648 c 1,12,13
 593 600 593 600 580 487 c 128,-1,14
 567 374 567 374 567 276.5 c 128,-1,15
 567 179 567 179 577.5 125.5 c 128,-1,16
 588 72 588 72 613 30 c 1,17,18
 584 -7 584 -7 545 -7 c 0,19,20
 459 -7 459 -7 459 204 c 0,21,22
 459 238 459 238 467 323 c 1,23,24
 415 178 415 178 343.5 82 c 128,-1,25
 272 -14 272 -14 215 -14 c 0,0,1
365 615 m 0,26,27
 280 615 280 615 226.5 516 c 128,-1,28
 173 417 173 417 173 262 c 0,29,30
 173 183 173 183 193.5 137.5 c 128,-1,31
 214 92 214 92 249.5 92 c 128,-1,32
 285 92 285 92 339.5 170 c 128,-1,33
 394 248 394 248 439 360.5 c 128,-1,34
 484 473 484 473 494 563 c 1,35,36
 426 615 426 615 365 615 c 0,26,27
EndSplineSet
EndChar

StartChar: b
Encoding: 98 98 71
Width: 682
GlyphClass: 2
Flags: W
LayerCount: 2
Fore
SplineSet
336 54 m 0,0,1
 417 54 417 54 463.5 142.5 c 128,-1,2
 510 231 510 231 510 367 c 0,3,4
 510 458 510 458 488.5 518 c 128,-1,5
 467 578 467 578 428 578 c 128,-1,6
 389 578 389 578 338.5 500 c 128,-1,7
 288 422 288 422 249 309.5 c 128,-1,8
 210 197 210 197 205 106 c 1,9,10
 276 54 276 54 336 54 c 0,0,1
140.5 413.5 m 128,-1,12
 169 677 169 677 169 750 c 128,-1,13
 169 823 169 823 165 856.5 c 128,-1,14
 161 890 161 890 148 915 c 1,15,16
 173 937 173 937 212 937 c 128,-1,17
 251 937 251 937 267.5 913 c 128,-1,18
 284 889 284 889 284 833 c 128,-1,19
 284 777 284 777 218 346 c 1,20,21
 263 492 263 492 330 588 c 128,-1,22
 397 684 397 684 453 684 c 0,23,24
 521 684 521 684 567.5 612.5 c 128,-1,25
 614 541 614 541 614 398 c 0,26,27
 614 243 614 243 550 120 c 0,28,29
 518 60 518 60 464.5 23 c 128,-1,30
 411 -14 411 -14 344 -14 c 0,31,32
 258 -14 258 -14 198 53 c 1,33,34
 192 20 192 20 180 6 c 128,-1,35
 168 -8 168 -8 142.5 -8 c 128,-1,36
 117 -8 117 -8 91 18 c 1,37,11
 112 150 112 150 140.5 413.5 c 128,-1,12
EndSplineSet
EndChar

StartChar: c
Encoding: 99 99 72
Width: 532
GlyphClass: 2
Flags: W
LayerCount: 2
Fore
SplineSet
312 -17 m 0,0,1
 191 -17 191 -17 129.5 60 c 128,-1,2
 68 137 68 137 68 259 c 0,3,4
 68 332 68 332 91 406.5 c 128,-1,5
 114 481 114 481 154 543.5 c 128,-1,6
 194 606 194 606 257 645 c 128,-1,7
 320 684 320 684 393 684 c 0,8,9
 532 684 532 684 532 603 c 0,10,11
 532 548 532 548 487 511 c 1,12,13
 463 558 463 558 430.5 583.5 c 128,-1,14
 398 609 398 609 352 609 c 128,-1,15
 306 609 306 609 274 584.5 c 128,-1,16
 242 560 242 560 224.5 524.5 c 128,-1,17
 207 489 207 489 196 444 c 0,18,19
 176 366 176 366 176 294 c 0,20,21
 176 178 176 178 216 117.5 c 128,-1,22
 256 57 256 57 331 57 c 0,23,24
 425 57 425 57 469 158 c 1,25,26
 490 136 490 136 490 102 c 0,27,28
 490 46 490 46 432.5 14.5 c 128,-1,29
 375 -17 375 -17 312 -17 c 0,0,1
EndSplineSet
EndChar

StartChar: d
Encoding: 100 100 73
Width: 694
GlyphClass: 2
Flags: W
LayerCount: 2
Fore
SplineSet
506 718 m 0,0,1
 506 874 506 874 484 915 c 1,2,3
 509 937 509 937 548 937 c 128,-1,4
 587 937 587 937 604 912 c 128,-1,5
 621 887 621 887 621 830.5 c 128,-1,6
 621 774 621 774 593 584 c 128,-1,7
 565 394 565 394 565 292 c 128,-1,8
 565 190 565 190 575 133 c 128,-1,9
 585 76 585 76 612 30 c 1,10,11
 584 -7 584 -7 544 -7 c 0,12,13
 459 -7 459 -7 459 206 c 0,14,15
 459 251 459 251 467 323 c 1,16,17
 415 177 415 177 343 81.5 c 128,-1,18
 271 -14 271 -14 211 -14 c 128,-1,19
 151 -14 151 -14 109.5 48.5 c 128,-1,20
 68 111 68 111 68 237 c 0,21,22
 68 398 68 398 140 535 c 0,23,24
 174 601 174 601 232 642.5 c 128,-1,25
 290 684 290 684 368 684 c 128,-1,26
 446 684 446 684 502 617 c 1,27,28
 506 653 506 653 506 718 c 0,0,1
365 615 m 0,29,30
 277 615 277 615 225 513.5 c 128,-1,31
 173 412 173 412 173 262 c 0,32,33
 173 187 173 187 192 139.5 c 128,-1,34
 211 92 211 92 248 92 c 128,-1,35
 285 92 285 92 339.5 169.5 c 128,-1,36
 394 247 394 247 439 359.5 c 128,-1,37
 484 472 484 472 494 563 c 1,38,39
 425 615 425 615 365 615 c 0,29,30
EndSplineSet
EndChar

StartChar: e
Encoding: 101 101 74
Width: 583
GlyphClass: 2
Flags: W
LayerCount: 2
Fore
SplineSet
230 281 m 0,0,1
 203 281 203 281 176 284 c 1,2,3
 177 173 177 173 217.5 115 c 128,-1,4
 258 57 258 57 331 57 c 0,5,6
 434 57 434 57 481 158 c 1,7,8
 505 135 505 135 505 102 c 0,9,10
 505 46 505 46 442.5 14.5 c 128,-1,11
 380 -17 380 -17 312 -17 c 0,12,13
 191 -17 191 -17 129.5 60 c 128,-1,14
 68 137 68 137 68 259 c 0,15,16
 68 332 68 332 91 406.5 c 128,-1,17
 114 481 114 481 154 543.5 c 128,-1,18
 194 606 194 606 257 645 c 128,-1,19
 320 684 320 684 395 684 c 128,-1,20
 470 684 470 684 509.5 646 c 128,-1,21
 549 608 549 608 549 548 c 0,22,23
 549 451 549 451 459.5 366 c 128,-1,24
 370 281 370 281 230 281 c 0,0,1
418.5 582.5 m 128,-1,26
 393 609 393 609 348.5 609 c 128,-1,27
 304 609 304 609 271.5 584 c 128,-1,28
 239 559 239 559 220 517 c 0,29,30
 186 439 186 439 178 348 c 1,31,32
 202 345 202 345 223 345 c 0,33,34
 325 345 325 345 384.5 397.5 c 128,-1,35
 444 450 444 450 444 515 c 0,36,25
 444 556 444 556 418.5 582.5 c 128,-1,26
EndSplineSet
EndChar

StartChar: f
Encoding: 102 102 75
Width: 363
GlyphClass: 2
Flags: W
LayerCount: 2
Fore
SplineSet
439 967 m 0,0,1
 580 967 580 967 580 877 c 0,2,3
 580 826 580 826 534 794 c 1,4,5
 511 893 511 893 425 893 c 0,6,7
 365 893 365 893 325 832.5 c 128,-1,8
 285 772 285 772 262 630 c 1,9,10
 381 630 381 630 423 659 c 1,11,12
 415 589 415 589 383 569 c 128,-1,13
 351 549 351 549 249 547 c 1,14,15
 192 143 192 143 192 -50 c 0,16,17
 192 -144 192 -144 230 -187 c 1,18,19
 200 -223 200 -223 161 -223 c 0,20,21
 83 -223 83 -223 83 -95.5 c 128,-1,22
 83 32 83 32 152 546 c 1,23,24
 77 544 77 544 39 520 c 1,25,26
 39 551 39 551 42 567.5 c 128,-1,27
 45 584 45 584 57 600 c 0,28,29
 78 630 78 630 165 630 c 1,30,31
 194 771 194 771 266.5 869 c 128,-1,32
 339 967 339 967 439 967 c 0,0,1
EndSplineSet
EndChar

StartChar: g
Encoding: 103 103 76
Width: 676
GlyphClass: 2
Flags: W
LayerCount: 2
Fore
SplineSet
566 151 m 0,0,1
 566 -35 566 -35 488 -144.5 c 128,-1,2
 410 -254 410 -254 279 -254 c 0,3,4
 239 -254 239 -254 206 -247.5 c 128,-1,5
 173 -241 173 -241 145 -219 c 128,-1,6
 117 -197 117 -197 117 -156 c 128,-1,7
 117 -115 117 -115 153 -81 c 1,8,9
 211 -180 211 -180 318 -180 c 0,10,11
 372 -180 372 -180 396 -150 c 1,12,13
 411 -133 411 -133 421.5 -115 c 128,-1,14
 432 -97 432 -97 439.5 -61 c 128,-1,15
 447 -25 447 -25 451.5 6.5 c 128,-1,16
 456 38 456 38 459 95 c 0,17,18
 463 176 463 176 467 322 c 1,19,20
 415 176 415 176 343 81 c 128,-1,21
 271 -14 271 -14 211 -14 c 128,-1,22
 151 -14 151 -14 109.5 48.5 c 128,-1,23
 68 111 68 111 68 237 c 0,24,25
 68 398 68 398 140 535 c 0,26,27
 174 601 174 601 232 642.5 c 128,-1,28
 290 684 290 684 368 684 c 128,-1,29
 446 684 446 684 502 617 c 1,30,31
 510 649 510 649 522.5 661.5 c 128,-1,32
 535 674 535 674 567 674 c 128,-1,33
 599 674 599 674 626 653 c 1,34,35
 605 617 605 617 581 556 c 1,36,37
 566 431 566 431 566 151 c 0,0,1
365 615 m 0,38,39
 277 615 277 615 225 513.5 c 128,-1,40
 173 412 173 412 173 262 c 0,41,42
 173 187 173 187 192 139.5 c 128,-1,43
 211 92 211 92 248 92 c 128,-1,44
 285 92 285 92 339.5 169.5 c 128,-1,45
 394 247 394 247 439 359.5 c 128,-1,46
 484 472 484 472 494 563 c 1,47,48
 425 615 425 615 365 615 c 0,38,39
EndSplineSet
EndChar

StartChar: h
Encoding: 104 104 77
Width: 664
GlyphClass: 2
Flags: W
LayerCount: 2
Fore
SplineSet
209 7 m 1,0,1
 175 -7 175 -7 142.5 -7 c 128,-1,2
 110 -7 110 -7 96.5 18.5 c 128,-1,3
 83 44 83 44 83 100 c 128,-1,4
 83 156 83 156 124 400 c 0,5,6
 193 817 193 817 144 915 c 1,7,8
 168 937 168 937 206.5 937 c 128,-1,9
 245 937 245 937 262 913 c 128,-1,10
 279 889 279 889 279 825.5 c 128,-1,11
 279 762 279 762 245.5 570 c 128,-1,12
 212 378 212 378 206 330 c 1,13,14
 312 584 312 584 388 650 c 0,15,16
 423 680 423 680 458 680 c 0,17,18
 574 680 574 680 574 507 c 0,19,20
 574 457 574 457 562.5 363 c 128,-1,21
 551 269 551 269 551 220 c 0,22,23
 551 79 551 79 595 29 c 1,24,25
 560 -7 560 -7 525 -7 c 0,26,27
 442 -7 442 -7 442 187 c 0,28,29
 442 259 442 259 458.5 368.5 c 128,-1,30
 475 478 475 478 475 508.5 c 128,-1,31
 475 539 475 539 463 556.5 c 128,-1,32
 451 574 451 574 421 574 c 0,33,34
 381 574 381 574 325 482.5 c 128,-1,35
 269 391 269 391 230.5 276.5 c 128,-1,36
 192 162 192 162 192 97 c 128,-1,37
 192 32 192 32 209 7 c 1,0,1
EndSplineSet
EndChar

StartChar: i
Encoding: 105 105 78
Width: 332
GlyphClass: 2
Flags: W
LayerCount: 2
Fore
SplineSet
271 841 m 0,0,1
 271 816 271 816 260 780 c 1,2,3
 223 757 223 757 192.5 757 c 128,-1,4
 162 757 162 757 149.5 768 c 128,-1,5
 137 779 137 779 137 799 c 128,-1,6
 137 819 137 819 144 861 c 1,7,8
 181 884 181 884 213 884 c 0,9,10
 271 884 271 884 271 841 c 0,0,1
176 -7 m 0,11,12
 98 -7 98 -7 98 125 c 0,13,14
 98 180 98 180 119 311 c 128,-1,15
 140 442 140 442 140 526 c 128,-1,16
 140 610 140 610 119 650 c 1,17,18
 144 673 144 673 180 673 c 0,19,20
 253 673 253 673 253 597 c 0,21,22
 253 573 253 573 230 409.5 c 128,-1,23
 207 246 207 246 207 158 c 128,-1,24
 207 70 207 70 245 29 c 1,25,26
 214 -7 214 -7 176 -7 c 0,11,12
EndSplineSet
EndChar

StartChar: j
Encoding: 106 106 79
Width: 328
GlyphClass: 2
Flags: W
LayerCount: 2
Fore
SplineSet
255 841 m 0,0,1
 255 817 255 817 245 780 c 1,2,3
 207 757 207 757 177 757 c 128,-1,4
 147 757 147 757 134.5 768 c 128,-1,5
 122 779 122 779 122 802 c 128,-1,6
 122 825 122 825 128 861 c 1,7,8
 166 884 166 884 198 884 c 0,9,10
 255 884 255 884 255 841 c 0,0,1
238 597 m 0,11,12
 238 196 238 196 180 -23 c 0,13,14
 147 -147 147 -147 80 -205 c 128,-1,15
 13 -263 13 -263 -62 -263 c 0,16,17
 -119 -263 -119 -263 -160 -233 c 128,-1,18
 -201 -203 -201 -203 -201 -159 c 128,-1,19
 -201 -115 -201 -115 -165 -81 c 1,20,21
 -145 -126 -145 -126 -112.5 -153 c 128,-1,22
 -80 -180 -80 -180 -42 -180 c 128,-1,23
 -4 -180 -4 -180 22 -159.5 c 128,-1,24
 48 -139 48 -139 65.5 -95 c 128,-1,25
 83 -51 83 -51 95 5 c 128,-1,26
 107 61 107 61 114 145 c 0,27,28
 125 294 125 294 125 521 c 0,29,30
 125 614 125 614 104 650 c 1,31,32
 111 659 111 659 133 666 c 128,-1,33
 155 673 155 673 177 673 c 128,-1,34
 199 673 199 673 218.5 654.5 c 128,-1,35
 238 636 238 636 238 597 c 0,11,12
EndSplineSet
EndChar

StartChar: k
Encoding: 107 107 80
Width: 600
GlyphClass: 2
Flags: W
LayerCount: 2
Fore
SplineSet
202 166 m 0,0,1
 202 72 202 72 240 29 c 1,2,3
 209 -7 209 -7 171 -7 c 0,4,5
 93 -7 93 -7 93 125 c 0,6,7
 93 174 93 174 129 417 c 128,-1,8
 165 660 165 660 165 766.5 c 128,-1,9
 165 873 165 873 144 915 c 1,10,11
 168 937 168 937 206.5 937 c 128,-1,12
 245 937 245 937 262 913 c 128,-1,13
 279 889 279 889 279 841.5 c 128,-1,14
 279 794 279 794 269 720 c 128,-1,15
 259 646 259 646 242.5 539 c 128,-1,16
 226 432 226 432 218 366 c 1,17,18
 314 458 314 458 384 544.5 c 128,-1,19
 454 631 454 631 463 668 c 1,20,21
 504 668 504 668 528.5 655 c 128,-1,22
 553 642 553 642 553 622 c 0,23,24
 553 589 553 589 324 376 c 1,25,26
 421 212 421 212 464 160 c 0,27,28
 524 87 524 87 585 78 c 1,29,30
 584 29 584 29 559.5 9.5 c 128,-1,31
 535 -10 535 -10 511 -10 c 0,32,33
 449 -10 449 -10 374 106 c 0,34,35
 339 161 339 161 303 223 c 128,-1,36
 267 285 267 285 252 310 c 1,37,-1
 207 270 l 1,38,39
 202 207 202 207 202 166 c 0,0,1
EndSplineSet
EndChar

StartChar: l
Encoding: 108 108 81
Width: 332
GlyphClass: 2
Flags: W
LayerCount: 2
Fore
SplineSet
245.5 523 m 128,-1,1
 207 267 207 267 207 168.5 c 128,-1,2
 207 70 207 70 245 29 c 1,3,4
 214 -7 214 -7 176 -7 c 0,5,6
 98 -7 98 -7 98 125 c 0,7,8
 98 174 98 174 133.5 417 c 128,-1,9
 169 660 169 660 169 766.5 c 128,-1,10
 169 873 169 873 148 915 c 1,11,12
 159 924 159 924 179.5 930.5 c 128,-1,13
 200 937 200 937 215 937 c 0,14,15
 250 937 250 937 267 913 c 128,-1,16
 284 889 284 889 284 834 c 128,-1,0
 284 779 284 779 245.5 523 c 128,-1,1
EndSplineSet
EndChar

StartChar: m
Encoding: 109 109 82
Width: 982
GlyphClass: 2
Flags: W
LayerCount: 2
Fore
SplineSet
547 7 m 1,0,1
 512 -7 512 -7 480 -7 c 128,-1,2
 448 -7 448 -7 434.5 18.5 c 128,-1,3
 421 44 421 44 421 92 c 128,-1,4
 421 140 421 140 439.5 278 c 128,-1,5
 458 416 458 416 458 477.5 c 128,-1,6
 458 539 458 539 447.5 556.5 c 128,-1,7
 437 574 437 574 409 574 c 0,8,9
 372 574 372 574 320 482.5 c 128,-1,10
 268 391 268 391 231.5 276 c 128,-1,11
 195 161 195 161 195 96.5 c 128,-1,12
 195 32 195 32 212 7 c 1,13,14
 177 -7 177 -7 145 -7 c 128,-1,15
 113 -7 113 -7 99.5 18.5 c 128,-1,16
 86 44 86 44 86 91.5 c 128,-1,17
 86 139 86 139 105 284.5 c 128,-1,18
 124 430 124 430 124 519.5 c 128,-1,19
 124 609 124 609 103 650 c 1,20,21
 113 660 113 660 133 666.5 c 128,-1,22
 153 673 153 673 169 673 c 0,23,24
 204 673 204 673 221 649 c 128,-1,25
 238 625 238 625 238 558.5 c 128,-1,26
 238 492 238 492 209 330 c 1,27,28
 309 584 309 584 381 650 c 0,29,30
 414 680 414 680 447 680 c 0,31,32
 557 680 557 680 557 507 c 0,33,34
 557 422 557 422 544 330 c 1,35,36
 671 680 671 680 781.5 680 c 128,-1,37
 892 680 892 680 892 507 c 0,38,39
 892 457 892 457 880.5 363 c 128,-1,40
 869 269 869 269 869 220 c 0,41,42
 869 79 869 79 913 29 c 1,43,44
 880 -7 880 -7 844 -7 c 0,45,46
 761 -7 761 -7 761 187 c 0,47,48
 761 259 761 259 777 368.5 c 128,-1,49
 793 478 793 478 793 508.5 c 128,-1,50
 793 539 793 539 782.5 556.5 c 128,-1,51
 772 574 772 574 743 574 c 0,52,53
 706 574 706 574 654 482.5 c 128,-1,54
 602 391 602 391 566 276 c 128,-1,55
 530 161 530 161 530 96.5 c 128,-1,56
 530 32 530 32 547 7 c 1,0,1
EndSplineSet
EndChar

StartChar: n
Encoding: 110 110 83
Width: 667
GlyphClass: 2
Flags: W
LayerCount: 2
Fore
SplineSet
460 680 m 0,0,1
 577 680 577 680 577 507 c 0,2,3
 577 457 577 457 565.5 363 c 128,-1,4
 554 269 554 269 554 220 c 0,5,6
 554 79 554 79 598 29 c 1,7,8
 563 -7 563 -7 528 -7 c 0,9,10
 445 -7 445 -7 445 187 c 0,11,12
 445 259 445 259 461.5 368.5 c 128,-1,13
 478 478 478 478 478 508.5 c 128,-1,14
 478 539 478 539 466 556.5 c 128,-1,15
 454 574 454 574 424 574 c 0,16,17
 384 574 384 574 328 482.5 c 128,-1,18
 272 391 272 391 233.5 276.5 c 128,-1,19
 195 162 195 162 195 97 c 128,-1,20
 195 32 195 32 212 7 c 1,21,22
 177 -7 177 -7 145 -7 c 128,-1,23
 113 -7 113 -7 99.5 18.5 c 128,-1,24
 86 44 86 44 86 91.5 c 128,-1,25
 86 139 86 139 105 284.5 c 128,-1,26
 124 430 124 430 124 519.5 c 128,-1,27
 124 609 124 609 103 650 c 1,28,29
 113 660 113 660 133 666.5 c 128,-1,30
 153 673 153 673 169 673 c 0,31,32
 204 673 204 673 221 649 c 128,-1,33
 238 625 238 625 238 558.5 c 128,-1,34
 238 492 238 492 209 330 c 1,35,36
 316 586 316 586 391 650 c 0,37,38
 426 680 426 680 460 680 c 0,0,1
EndSplineSet
EndChar

StartChar: o
Encoding: 111 111 84
Width: 678
GlyphClass: 2
Flags: W
LayerCount: 2
Fore
SplineSet
341 609 m 0,0,1
 294 609 294 609 259.5 573.5 c 128,-1,2
 225 538 225 538 208 484 c 0,3,4
 176 384 176 384 176 281.5 c 128,-1,5
 176 179 176 179 218 118 c 128,-1,6
 260 57 260 57 335 57 c 0,7,8
 383 57 383 57 418 92.5 c 128,-1,9
 453 128 453 128 470 182 c 0,10,11
 502 285 502 285 502 386.5 c 128,-1,12
 502 488 502 488 459.5 548.5 c 128,-1,13
 417 609 417 609 341 609 c 0,0,1
286 -17 m 0,14,15
 182 -17 182 -17 125 61 c 128,-1,16
 68 139 68 139 68 259 c 0,17,18
 68 332 68 332 91 406.5 c 128,-1,19
 114 481 114 481 154 543.5 c 128,-1,20
 194 606 194 606 257 645 c 128,-1,21
 320 684 320 684 393 684 c 0,22,23
 497 684 497 684 553.5 606 c 128,-1,24
 610 528 610 528 610 408 c 0,25,26
 610 285 610 285 554 175 c 0,27,28
 493 56 493 56 397 8 c 0,29,30
 345 -17 345 -17 286 -17 c 0,14,15
EndSplineSet
EndChar

StartChar: p
Encoding: 112 112 85
Width: 689
GlyphClass: 2
Flags: W
LayerCount: 2
Fore
SplineSet
125 516 m 0,0,1
 125 609 125 609 104 650 c 1,2,3
 114 660 114 660 134 666.5 c 128,-1,4
 154 673 154 673 170 673 c 0,5,6
 205 673 205 673 222 649 c 128,-1,7
 239 625 239 625 239 556 c 128,-1,8
 239 487 239 487 210 330 c 1,9,10
 276 499 276 499 340.5 591.5 c 128,-1,11
 405 684 405 684 459 684 c 0,12,13
 527 684 527 684 574 612.5 c 128,-1,14
 621 541 621 541 621 398 c 0,15,16
 621 243 621 243 556 120 c 0,17,18
 525 60 525 60 471.5 23 c 128,-1,19
 418 -14 418 -14 351 -14 c 0,20,21
 309 -14 309 -14 260.5 1.5 c 128,-1,22
 212 17 212 17 183 41 c 1,23,24
 178 -16 178 -16 178 -61 c 0,25,26
 178 -187 178 -187 225 -235 c 1,27,28
 195 -271 195 -271 157 -271 c 0,29,30
 72 -271 72 -271 72 -118 c 0,31,32
 72 -76 72 -76 98.5 141.5 c 128,-1,33
 125 359 125 359 125 516 c 0,0,1
432 578 m 0,34,35
 408 578 408 578 373 538.5 c 128,-1,36
 338 499 338 499 302.5 435 c 128,-1,37
 267 371 267 371 236 278.5 c 128,-1,38
 205 186 205 186 190 91 c 1,39,40
 254 54 254 54 339 54 c 128,-1,41
 424 54 424 54 470.5 142.5 c 128,-1,42
 517 231 517 231 517 367 c 0,43,44
 517 458 517 458 495.5 518 c 128,-1,45
 474 578 474 578 432 578 c 0,34,35
EndSplineSet
EndChar

StartChar: q
Encoding: 113 113 86
Width: 663
GlyphClass: 2
Flags: W
LayerCount: 2
Fore
SplineSet
343 81.5 m 128,-1,1
 271 -14 271 -14 211 -14 c 128,-1,2
 151 -14 151 -14 109.5 48.5 c 128,-1,3
 68 111 68 111 68 237 c 0,4,5
 68 398 68 398 140 535 c 0,6,7
 174 601 174 601 232 642.5 c 128,-1,8
 290 684 290 684 368 684 c 128,-1,9
 446 684 446 684 502 617 c 1,10,11
 510 649 510 649 522.5 661.5 c 128,-1,12
 535 674 535 674 560 674 c 128,-1,13
 585 674 585 674 611 645 c 1,14,15
 587 564 587 564 553 299 c 128,-1,16
 519 34 519 34 519 -117 c 0,17,18
 519 -210 519 -210 540 -251 c 1,19,20
 515 -274 515 -274 476.5 -274 c 128,-1,21
 438 -274 438 -274 421 -250 c 128,-1,22
 404 -226 404 -226 404 -177.5 c 128,-1,23
 404 -129 404 -129 414.5 -50 c 128,-1,24
 425 29 425 29 442 142 c 128,-1,25
 459 255 459 255 467 323 c 1,26,0
 415 177 415 177 343 81.5 c 128,-1,1
365 615 m 0,27,28
 277 615 277 615 225 513.5 c 128,-1,29
 173 412 173 412 173 262 c 0,30,31
 173 187 173 187 192 139.5 c 128,-1,32
 211 92 211 92 248 92 c 128,-1,33
 285 92 285 92 339.5 169.5 c 128,-1,34
 394 247 394 247 439 359.5 c 128,-1,35
 484 472 484 472 494 563 c 1,36,37
 425 615 425 615 365 615 c 0,27,28
EndSplineSet
EndChar

StartChar: r
Encoding: 114 114 87
Width: 482
GlyphClass: 2
Flags: W
LayerCount: 2
Fore
SplineSet
176 -7 m 0,0,1
 98 -7 98 -7 98 125 c 0,2,3
 98 180 98 180 119 311 c 128,-1,4
 140 442 140 442 140 526 c 128,-1,5
 140 610 140 610 119 650 c 1,6,7
 144 673 144 673 180 673 c 0,8,9
 253 673 253 673 253 597 c 0,10,11
 253 570 253 570 240.5 486 c 128,-1,12
 228 402 228 402 224 371 c 1,13,14
 278 513 278 513 345.5 598.5 c 128,-1,15
 413 684 413 684 457 684 c 0,16,17
 482 684 482 684 494.5 660 c 128,-1,18
 507 636 507 636 507 611 c 128,-1,19
 507 586 507 586 501 560 c 1,20,21
 486 563 486 563 473 563 c 0,22,23
 409 563 409 563 344.5 488 c 128,-1,24
 280 413 280 413 243.5 323 c 128,-1,25
 207 233 207 233 207 174 c 0,26,27
 207 70 207 70 245 29 c 1,28,29
 214 -7 214 -7 176 -7 c 0,0,1
EndSplineSet
EndChar

StartChar: s
Encoding: 115 115 88
Width: 516
GlyphClass: 2
Flags: W
LayerCount: 2
Fore
SplineSet
283 614 m 0,0,1
 241 614 241 614 216 592.5 c 128,-1,2
 191 571 191 571 191 534 c 128,-1,3
 191 497 191 497 215.5 469 c 128,-1,4
 240 441 240 441 299 393 c 128,-1,5
 358 345 358 345 372 333 c 0,6,7
 452 267 452 267 452 179 c 128,-1,8
 452 91 452 91 394 39 c 128,-1,9
 336 -13 336 -13 229 -13 c 0,10,11
 149 -13 149 -13 95.5 17.5 c 128,-1,12
 42 48 42 48 42 106 c 0,13,14
 42 147 42 147 90 195 c 1,15,16
 107 123 107 123 151.5 87.5 c 128,-1,17
 196 52 196 52 244.5 52 c 128,-1,18
 293 52 293 52 324.5 76 c 128,-1,19
 356 100 356 100 356 139 c 0,20,21
 356 173 356 173 343.5 192.5 c 128,-1,22
 331 212 331 212 324 221.5 c 128,-1,23
 317 231 317 231 297 248.5 c 128,-1,24
 277 266 277 266 266.5 274.5 c 128,-1,25
 256 283 256 283 226 306.5 c 128,-1,26
 196 330 196 330 181 342 c 0,27,28
 98 407 98 407 98 498 c 128,-1,29
 98 589 98 589 160 636.5 c 128,-1,30
 222 684 222 684 330 684 c 0,31,32
 465 684 465 684 465 591 c 0,33,34
 465 547 465 547 419 511 c 1,35,36
 377 614 377 614 283 614 c 0,0,1
EndSplineSet
EndChar

StartChar: t
Encoding: 116 116 89
Width: 409
GlyphClass: 2
Flags: W
LayerCount: 2
Fore
SplineSet
180 630 m 1,0,-1
 182 676 l 1,1,2
 182 769 182 769 161 811 c 1,3,4
 171 820 171 820 191.5 827 c 128,-1,5
 212 834 212 834 228 834 c 0,6,7
 263 834 263 834 280 810 c 128,-1,8
 297 786 297 786 297 729 c 0,9,10
 297 707 297 707 285 630 c 1,11,12
 408 632 408 632 448 659 c 1,13,14
 440 594 440 594 403 572 c 128,-1,15
 366 550 366 550 271 548 c 1,16,17
 225 265 225 265 225 123 c 0,18,19
 225 90 225 90 239.5 74 c 128,-1,20
 254 58 254 58 277.5 58 c 128,-1,21
 301 58 301 58 328 78.5 c 128,-1,22
 355 99 355 99 371 130 c 1,23,24
 389 108 389 108 389 83 c 0,25,26
 389 44 389 44 350.5 14.5 c 128,-1,27
 312 -15 312 -15 251 -15 c 128,-1,28
 190 -15 190 -15 154.5 17.5 c 128,-1,29
 119 50 119 50 119 120 c 0,30,31
 119 183 119 183 142 341.5 c 128,-1,32
 165 500 165 500 171 547 c 1,33,34
 82 547 82 547 39 520 c 1,35,36
 39 566 39 566 48 585 c 128,-1,37
 57 604 57 604 72 612 c 0,38,39
 109 630 109 630 180 630 c 1,0,-1
EndSplineSet
EndChar

StartChar: u
Encoding: 117 117 90
Width: 677
GlyphClass: 2
Flags: W
LayerCount: 2
Fore
SplineSet
90 153 m 0,0,1
 90 208 90 208 108.5 325 c 128,-1,2
 127 442 127 442 127 526 c 128,-1,3
 127 610 127 610 106 650 c 1,4,5
 131 673 131 673 166 673 c 0,6,7
 240 673 240 673 240 597 c 0,8,9
 240 572 240 572 216.5 405 c 128,-1,10
 193 238 193 238 193 159 c 128,-1,11
 193 80 193 80 241 80 c 0,12,13
 281 80 281 80 338 174 c 128,-1,14
 395 268 395 268 435 385.5 c 128,-1,15
 475 503 475 503 475 559.5 c 128,-1,16
 475 616 475 616 460 650 c 1,17,18
 486 673 486 673 521 673 c 0,19,20
 595 673 595 673 595 597 c 0,21,22
 595 542 595 542 576 428 c 128,-1,23
 557 314 557 314 557 249 c 0,24,25
 557 107 557 107 604 30 c 1,26,27
 574 -7 574 -7 536 -7 c 0,28,29
 450 -7 450 -7 450 204 c 0,30,31
 450 224 450 224 462 335 c 1,32,33
 377 134 377 134 320 60 c 0,34,35
 296 28 296 28 266.5 6 c 128,-1,36
 237 -16 237 -16 209 -16 c 0,37,38
 90 -16 90 -16 90 153 c 0,0,1
EndSplineSet
EndChar

StartChar: v
Encoding: 118 118 91
Width: 563
GlyphClass: 2
Flags: W
LayerCount: 2
Fore
SplineSet
326 15 m 1,0,-1
 327 2 l 1,1,2
 294 -10 294 -10 271 -10 c 0,3,4
 230 -10 230 -10 220 33 c 0,5,6
 138 382 138 382 92 486 c 0,7,8
 58 565 58 565 37.5 584.5 c 128,-1,9
 17 604 17 604 2 604 c 1,10,11
 13 638 13 638 37 654 c 128,-1,12
 61 670 61 670 84 670 c 0,13,14
 145 670 145 670 186 567 c 1,15,16
 209 506 209 506 302 110 c 1,17,18
 353 232 353 232 387 368.5 c 128,-1,19
 421 505 421 505 421 582 c 0,20,21
 421 611 421 611 410 630 c 1,22,23
 433 667 433 667 481 667 c 0,24,25
 527 667 527 667 527 614 c 128,-1,26
 527 561 527 561 469 379 c 128,-1,27
 411 197 411 197 343 62 c 0,28,29
 327 29 327 29 326 15 c 1,0,-1
EndSplineSet
EndChar

StartChar: w
Encoding: 119 119 92
Width: 871
GlyphClass: 2
Flags: W
LayerCount: 2
Fore
SplineSet
326 15 m 1,0,-1
 327 2 l 1,1,2
 294 -10 294 -10 271 -10 c 0,3,4
 230 -10 230 -10 220 33 c 0,5,6
 138 382 138 382 92 486 c 0,7,8
 58 565 58 565 37.5 584.5 c 128,-1,9
 17 604 17 604 2 604 c 1,10,11
 13 638 13 638 37 654 c 128,-1,12
 61 670 61 670 84 670 c 0,13,14
 145 670 145 670 186 567 c 1,15,16
 204 519 204 519 249.5 325.5 c 128,-1,17
 295 132 295 132 297 99 c 1,18,19
 393 344 393 344 414 466 c 1,20,21
 385 539 385 539 354 555 c 1,22,23
 365 576 365 576 387.5 590 c 128,-1,24
 410 604 410 604 434 604 c 0,25,26
 480 604 480 604 499 558 c 1,27,28
 517 510 517 510 560 321 c 128,-1,29
 603 132 603 132 605 99 c 1,30,31
 657 218 657 218 693 365 c 128,-1,32
 729 512 729 512 729 582 c 0,33,34
 729 611 729 611 717 630 c 1,35,36
 741 667 741 667 789 667 c 0,37,38
 834 667 834 667 834 613 c 128,-1,39
 834 559 834 559 776.5 376.5 c 128,-1,40
 719 194 719 194 651 62 c 0,41,42
 634 29 634 29 634 18 c 128,-1,43
 634 7 634 7 635 2 c 1,44,45
 600 -10 600 -10 579 -10 c 0,46,47
 538 -10 538 -10 527 33 c 0,48,49
 471 266 471 266 453 335 c 1,50,51
 401 174 401 174 343 62 c 0,52,53
 327 29 327 29 326 15 c 1,0,-1
EndSplineSet
EndChar

StartChar: x
Encoding: 120 120 93
Width: 557
GlyphClass: 2
Flags: W
LayerCount: 2
Fore
SplineSet
415 609 m 0,0,1
 415 626 415 626 407 640 c 1,2,3
 435 667 435 667 465 667 c 0,4,5
 517 667 517 667 517 622 c 0,6,7
 517 586 517 586 458.5 500.5 c 128,-1,8
 400 415 400 415 316 320 c 1,9,10
 374 215 374 215 434.5 140.5 c 128,-1,11
 495 66 495 66 540 51 c 1,12,13
 527 -10 527 -10 464 -10 c 0,14,15
 420 -10 420 -10 361.5 58.5 c 128,-1,16
 303 127 303 127 243 234 c 1,17,18
 147 97 147 97 147 48 c 0,19,20
 147 31 147 31 155 18 c 1,21,22
 127 -9 127 -9 97 -9 c 0,23,24
 45 -9 45 -9 45 35 c 0,25,26
 45 66 45 66 92 139 c 128,-1,27
 139 212 139 212 210 296 c 1,28,29
 161 391 161 391 127 476.5 c 128,-1,30
 93 562 93 562 93 592 c 128,-1,31
 93 622 93 622 112.5 637.5 c 128,-1,32
 132 653 132 653 183 670 c 1,33,34
 195 558 195 558 285 379 c 1,35,36
 327 432 327 432 371 502.5 c 128,-1,37
 415 573 415 573 415 609 c 0,0,1
EndSplineSet
EndChar

StartChar: y
Encoding: 121 121 94
Width: 563
GlyphClass: 2
Flags: W
LayerCount: 2
Fore
SplineSet
421 582 m 0,0,1
 421 611 421 611 410 630 c 1,2,3
 433 667 433 667 481 667 c 0,4,5
 527 667 527 667 527 616 c 0,6,7
 527 566 527 566 486 413 c 128,-1,8
 445 260 445 260 402.5 153.5 c 128,-1,9
 360 47 360 47 310.5 -44.5 c 128,-1,10
 261 -136 261 -136 193.5 -195 c 128,-1,11
 126 -254 126 -254 55 -254 c 0,12,13
 -83 -254 -83 -254 -83 -161 c 0,14,15
 -83 -118 -83 -118 -51 -81 c 1,16,17
 -24 -170 -24 -170 68 -170 c 0,18,19
 178 -170 178 -170 271 22 c 1,20,21
 241 22 241 22 228 33 c 128,-1,22
 215 44 215 44 209 66 c 0,23,24
 133 386 133 386 88.5 494 c 128,-1,25
 44 602 44 602 2 604 c 1,26,27
 13 638 13 638 37 654 c 128,-1,28
 61 670 61 670 84 670 c 0,29,30
 145 670 145 670 186 567 c 0,31,32
 213 497 213 497 303 94 c 1,33,34
 356 226 356 226 388.5 365 c 128,-1,35
 421 504 421 504 421 582 c 0,0,1
EndSplineSet
EndChar

StartChar: z
Encoding: 122 122 95
Width: 523
GlyphClass: 2
Flags: W
LayerCount: 2
Fore
SplineSet
208 548 m 0,0,1
 80 548 80 548 80 614 c 0,2,3
 80 647 80 647 100 680 c 1,4,5
 191 630 191 630 306 630 c 0,6,7
 352 630 352 630 371 632 c 1,8,9
 406 673 406 673 448 673 c 0,10,11
 514 673 514 673 519 606 c 1,12,13
 424 600 424 600 157 81 c 1,14,15
 261 105 261 105 338 105 c 128,-1,16
 415 105 415 105 446 88 c 128,-1,17
 477 71 477 71 477 13 c 0,18,19
 477 -7 477 -7 476 -18 c 1,20,21
 427 1 427 1 382.5 10 c 128,-1,22
 338 19 338 19 258 19 c 128,-1,23
 178 19 178 19 119 9 c 1,24,25
 98 -16 98 -16 65.5 -16 c 128,-1,26
 33 -16 33 -16 18 13 c 1,27,28
 58 93 58 93 161.5 278.5 c 128,-1,29
 265 464 265 464 322 558 c 1,30,31
 245 548 245 548 208 548 c 0,0,1
EndSplineSet
EndChar

StartChar: braceleft
Encoding: 123 123 96
Width: 392
GlyphClass: 2
Flags: W
LayerCount: 2
Fore
SplineSet
145 424 m 1,0,1
 200 373 200 373 200 274 c 0,2,3
 200 222 200 222 179.5 122 c 128,-1,4
 159 22 159 22 159 -53 c 1,5,6
 186 -53 186 -53 247 -39 c 128,-1,7
 308 -25 308 -25 335 -11 c 1,8,9
 335 -53 335 -53 331 -70 c 0,10,11
 318 -126 318 -126 172 -126 c 0,12,13
 120 -126 120 -126 97 -117 c 128,-1,14
 74 -108 74 -108 65 -91.5 c 128,-1,15
 56 -75 56 -75 56 -39 c 128,-1,16
 56 -3 56 -3 87 118.5 c 128,-1,17
 118 240 118 240 118 296.5 c 128,-1,18
 118 353 118 353 94 396 c 1,19,20
 79 391 79 391 70 391 c 0,21,22
 53 391 53 391 46 422 c 1,23,24
 165 507 165 507 165 696 c 0,25,26
 165 731 165 731 157.5 787.5 c 128,-1,27
 150 844 150 844 150 874.5 c 128,-1,28
 150 905 150 905 184.5 928 c 128,-1,29
 219 951 219 951 292 951 c 0,30,31
 412 951 412 951 452 970 c 1,32,33
 452 913 452 913 422.5 887 c 128,-1,34
 393 861 393 861 348.5 861 c 128,-1,35
 304 861 304 861 264 882 c 1,36,37
 255 609 255 609 218 520 c 0,38,39
 193 459 193 459 145 424 c 1,0,1
EndSplineSet
Position2: "'case' Case-Sensitive Forms in Latin lookup 1 per glyph data 0" dx=0 dy=40 dh=0 dv=0
EndChar

StartChar: bar
Encoding: 124 124 97
Width: 346
GlyphClass: 2
Flags: W
LayerCount: 2
Fore
SplineSet
273 921 m 128,-1,1
 287 895 287 895 287 834.5 c 128,-1,2
 287 774 287 774 240 483 c 128,-1,3
 193 192 193 192 193 77.5 c 128,-1,4
 193 -37 193 -37 230 -85 c 1,5,6
 215 -128 215 -128 172 -128 c 0,7,8
 98 -128 98 -128 98 21 c 0,9,10
 98 86 98 86 142.5 380.5 c 128,-1,11
 187 675 187 675 187 774.5 c 128,-1,12
 187 874 187 874 167 919 c 1,13,14
 176 930 176 930 196 938.5 c 128,-1,15
 216 947 216 947 230 947 c 0,16,0
 259 947 259 947 273 921 c 128,-1,1
EndSplineSet
Position2: "'case' Case-Sensitive Forms in Latin lookup 1 per glyph data 0" dx=0 dy=40 dh=0 dv=0
EndChar

StartChar: braceright
Encoding: 125 125 98
Width: 392
GlyphClass: 2
Flags: W
LayerCount: 2
Fore
SplineSet
230 425 m 1,0,1
 172 468 172 468 172 591 c 0,2,3
 172 670 172 670 209 882 c 1,4,5
 162 861 162 861 122.5 861 c 128,-1,6
 83 861 83 861 58.5 880 c 128,-1,7
 34 899 34 899 34 940 c 0,8,9
 34 954 34 954 37 970 c 1,10,11
 73 951 73 951 196.5 951 c 128,-1,12
 320 951 320 951 320 882 c 0,13,14
 320 869 320 869 304 824 c 0,15,16
 256 687 256 687 256 596 c 0,17,18
 256 480 256 480 331 422 c 1,19,20
 316 391 316 391 299 391 c 0,21,22
 288 391 288 391 275 397 c 1,23,24
 250 366 250 366 237.5 327.5 c 128,-1,25
 225 289 225 289 223.5 264.5 c 128,-1,26
 222 240 222 240 222 197 c 1,27,-1
 227 30 l 1,28,29
 227 -76 227 -76 188 -104 c 0,30,31
 168 -118 168 -118 147 -122 c 128,-1,32
 126 -126 126 -126 89 -126 c 0,33,34
 -60 -126 -60 -126 -60 -67 c 0,35,36
 -60 -53 -60 -53 -50 -11 c 1,37,38
 -26 -25 -26 -25 32.5 -39 c 128,-1,39
 91 -53 91 -53 118 -53 c 1,40,41
 131 18 131 18 131.5 118.5 c 128,-1,42
 132 219 132 219 144 273 c 0,43,44
 168 373 168 373 230 425 c 1,0,1
EndSplineSet
Position2: "'case' Case-Sensitive Forms in Latin lookup 1 per glyph data 0" dx=0 dy=40 dh=0 dv=0
EndChar

StartChar: asciitilde
Encoding: 126 126 99
Width: 544
GlyphClass: 2
Flags: W
LayerCount: 2
Fore
SplineSet
472 472 m 0,0,1
 472 425 472 425 437.5 385.5 c 128,-1,2
 403 346 403 346 355 346 c 0,3,4
 297 346 297 346 258 382 c 128,-1,5
 219 418 219 418 192 418 c 0,6,7
 137 418 137 418 125 345 c 1,8,9
 73 345 73 345 73 380 c 0,10,11
 73 427 73 427 107.5 466.5 c 128,-1,12
 142 506 142 506 190 506 c 0,13,14
 248 506 248 506 287 470 c 128,-1,15
 326 434 326 434 353 434 c 0,16,17
 408 434 408 434 420 507 c 1,18,19
 472 507 472 507 472 472 c 0,0,1
EndSplineSet
EndChar

StartChar: exclamdown
Encoding: 161 161 100
Width: 388
GlyphClass: 2
Flags: W
LayerCount: 2
Fore
SplineSet
141 586 m 0,0,1
 141 613 141 613 153 655 c 1,2,3
 197 683 197 683 231.5 683 c 128,-1,4
 266 683 266 683 280.5 669.5 c 128,-1,5
 295 656 295 656 295 631 c 128,-1,6
 295 606 295 606 287 563 c 1,7,8
 244 536 244 536 207 536 c 0,9,10
 141 536 141 536 141 586 c 0,0,1
90.5 -193.5 m 128,-1,12
 73 -169 73 -169 73 -115 c 128,-1,13
 73 -61 73 -61 114 142.5 c 128,-1,14
 155 346 155 346 155 392 c 0,15,16
 155 402 155 402 152 411 c 1,17,18
 172 427 172 427 200 427 c 0,19,20
 235 427 235 427 235 386 c 0,21,22
 235 383 235 383 214 195.5 c 128,-1,23
 193 8 193 8 193 -72.5 c 128,-1,24
 193 -153 193 -153 215 -195 c 1,25,26
 204 -204 204 -204 182.5 -211 c 128,-1,27
 161 -218 161 -218 145 -218 c 0,28,11
 108 -218 108 -218 90.5 -193.5 c 128,-1,12
EndSplineSet
Position2: "'case' Case-Sensitive Forms in Latin lookup 1 per glyph data 1" dx=0 dy=300 dh=0 dv=0
EndChar

StartChar: cent
Encoding: 162 162 101
Width: 532
GlyphClass: 2
Flags: W
LayerCount: 2
Fore
SplineSet
382 791 m 1,0,-1
 393 792 l 1,1,2
 532 792 532 792 532 711 c 0,3,4
 532 659 532 659 487 619 c 1,5,6
 445 703 445 703 375 716 c 1,7,8
 368 626 368 626 357.5 421.5 c 128,-1,9
 347 217 347 217 344 165 c 1,10,11
 428 173 428 173 469 266 c 1,12,13
 490 243 490 243 490 210 c 0,14,15
 490 160 490 160 444 130 c 128,-1,16
 398 100 398 100 339 93 c 1,17,18
 335 46 335 46 332 27 c 0,19,20
 311 -105 311 -105 239 -105 c 0,21,22
 209 -105 209 -105 205 -69 c 1,23,24
 250 -26 250 -26 265 68 c 1,25,-1
 269 95 l 1,26,27
 168 109 168 109 118 182.5 c 128,-1,28
 68 256 68 256 68 376 c 128,-1,29
 68 496 68 496 133.5 616.5 c 128,-1,30
 199 737 199 737 306 776 c 1,31,32
 309 848 309 848 316 893 c 0,33,34
 332 986 332 986 388 986 c 0,35,36
 418 986 418 986 430 963 c 1,37,38
 401 922 401 922 387 829 c 0,39,40
 383 808 383 808 382 791 c 1,0,-1
176 402 m 0,41,42
 176 215 176 215 277 175 c 1,43,44
 281 221 281 221 302 710 c 1,45,46
 254 691 254 691 223.5 628.5 c 128,-1,47
 193 566 193 566 184.5 510 c 128,-1,48
 176 454 176 454 176 402 c 0,41,42
EndSplineSet
EndChar

StartChar: sterling
Encoding: 163 163 102
Width: 669
GlyphClass: 2
Flags: W
LayerCount: 2
Fore
SplineSet
95 376 m 1,0,1
 76 406 76 406 76 432 c 0,2,3
 76 478 76 478 132 478 c 0,4,5
 138 478 138 478 176 476 c 1,6,7
 175 507 175 507 175 571 c 0,8,9
 175 713 175 713 237.5 800 c 128,-1,10
 300 887 300 887 409.5 887 c 128,-1,11
 519 887 519 887 567 844 c 128,-1,12
 615 801 615 801 615 746 c 0,13,14
 615 681 615 681 537 663 c 1,15,16
 530 817 530 817 403 817 c 0,17,18
 335 817 335 817 308.5 763.5 c 128,-1,19
 282 710 282 710 282 584 c 0,20,21
 282 545 282 545 278 469 c 1,22,23
 328 467 328 467 347 467 c 128,-1,24
 366 467 366 467 408 473 c 128,-1,25
 450 479 450 479 465 488 c 1,26,27
 480 469 480 469 480 442 c 0,28,29
 480 391 480 391 374 391 c 0,30,31
 316 391 316 391 275 392 c 1,32,-1
 275 352 l 2,33,34
 275 296 275 296 272.5 261 c 128,-1,35
 270 226 270 226 256 174.5 c 128,-1,36
 242 123 242 123 214 79 c 1,37,38
 344 116 344 116 435.5 116 c 128,-1,39
 527 116 527 116 563 98.5 c 128,-1,40
 599 81 599 81 599 21 c 0,41,42
 599 10 599 10 597 -14 c 1,43,44
 550 5 550 5 497.5 12 c 128,-1,45
 445 19 445 19 335.5 19 c 128,-1,46
 226 19 226 19 153 1 c 1,47,48
 134 -16 134 -16 117 -16 c 0,49,50
 80 -16 80 -16 62 21 c 1,51,52
 129 89 129 89 155.5 156 c 128,-1,53
 182 223 182 223 182 299 c 0,54,55
 182 330 182 330 180 394 c 1,56,57
 121 392 121 392 95 376 c 1,0,1
EndSplineSet
EndChar

StartChar: currency
Encoding: 164 164 103
Width: 626
GlyphClass: 2
Flags: W
LayerCount: 2
Fore
SplineSet
389 245 m 1,0,1
 341 213 341 213 284 213 c 128,-1,2
 227 213 227 213 190 242 c 1,3,4
 133 197 133 197 118 154 c 1,5,6
 94 155 94 155 72 174.5 c 128,-1,7
 50 194 50 194 50 213 c 128,-1,8
 50 232 50 232 71 254.5 c 128,-1,9
 92 277 92 277 141 315 c 1,10,11
 132 345 132 345 132 382 c 0,12,13
 132 473 132 473 181 546 c 1,14,15
 147 593 147 593 124 615.5 c 128,-1,16
 101 638 101 638 70 649 c 1,17,18
 71 673 71 673 90.5 695 c 128,-1,19
 110 717 110 717 130 717 c 128,-1,20
 150 717 150 717 174 693 c 128,-1,21
 198 669 198 669 243 609 c 1,22,23
 291 641 291 641 348.5 641 c 128,-1,24
 406 641 406 641 442 611 c 1,25,26
 474 638 474 638 489 661 c 128,-1,27
 504 684 504 684 506 716 c 1,28,29
 537 716 537 716 561.5 702 c 128,-1,30
 586 688 586 688 586 658 c 0,31,32
 586 613 586 613 490 536 c 1,33,34
 500 503 500 503 500 471 c 0,35,36
 500 381 500 381 452 309 c 1,37,38
 483 270 483 270 507.5 252 c 128,-1,39
 532 234 532 234 566 233 c 1,40,41
 566 202 566 202 552 177.5 c 128,-1,42
 538 153 538 153 508 153 c 0,43,44
 464 153 464 153 389 245 c 1,0,1
407 447 m 0,45,46
 407 569 407 569 328 569 c 0,47,48
 278 569 278 569 251 512 c 128,-1,49
 224 455 224 455 224 406 c 0,50,51
 224 284 224 284 303 284 c 0,52,53
 353 284 353 284 380 341 c 128,-1,54
 407 398 407 398 407 447 c 0,45,46
EndSplineSet
EndChar

StartChar: yen
Encoding: 165 165 104
Width: 552
GlyphClass: 2
Flags: W
LayerCount: 2
Fore
SplineSet
65 254.5 m 128,-1,1
 82 265 82 265 108.5 265 c 128,-1,2
 135 265 135 265 220 260 c 1,3,-1
 228 309 l 1,4,-1
 214 377 l 1,5,6
 203 378 203 378 189 378 c 0,7,8
 117 378 117 378 85 360 c 1,9,10
 64 389 64 389 64 414 c 0,11,12
 64 461 64 461 125 461 c 0,13,14
 130 461 130 461 155 460 c 128,-1,15
 180 459 180 459 196 459 c 1,16,17
 111 823 111 823 27 823 c 1,18,19
 38 857 38 857 63 873 c 128,-1,20
 88 889 88 889 111 889 c 0,21,22
 171 889 171 889 208 785 c 1,23,24
 251 658 251 658 302 419 c 1,25,26
 330 476 330 476 381 560.5 c 128,-1,27
 432 645 432 645 458 700.5 c 128,-1,28
 484 756 484 756 484 793 c 128,-1,29
 484 830 484 830 474 849 c 1,30,31
 500 885 500 885 545.5 885 c 128,-1,32
 591 885 591 885 591 837 c 0,33,34
 591 785 591 785 462 568 c 0,35,36
 440 531 440 531 393 453 c 1,37,38
 466 457 466 457 492 472 c 1,39,40
 509 452 509 452 509 426.5 c 128,-1,41
 509 401 509 401 474.5 388 c 128,-1,42
 440 375 440 375 348 375 c 1,43,44
 326 329 326 329 320 255 c 1,45,46
 438 255 438 255 476 276 c 1,47,48
 493 256 493 256 493 230 c 0,49,50
 493 178 493 178 376 178 c 0,51,52
 341 178 341 178 314 179 c 1,53,54
 314 121 314 121 321.5 86.5 c 128,-1,55
 329 52 329 52 350 29 c 1,56,57
 319 -7 319 -7 281 -7 c 128,-1,58
 243 -7 243 -7 224 21.5 c 128,-1,59
 205 50 205 50 205 118 c 0,60,61
 205 148 205 148 209 181 c 1,62,63
 193 182 193 182 173 182 c 0,64,65
 101 182 101 182 69 164 c 1,66,67
 48 193 48 193 48 218.5 c 128,-1,0
 48 244 48 244 65 254.5 c 128,-1,1
EndSplineSet
EndChar

StartChar: brokenbar
Encoding: 166 166 105
Width: 346
GlyphClass: 2
Flags: W
LayerCount: 2
Fore
SplineSet
287 845 m 0,0,1
 287 773 287 773 278.5 717.5 c 128,-1,2
 270 662 270 662 261 610 c 128,-1,3
 252 558 252 558 248 533 c 1,4,5
 172 533 172 533 172 590 c 1,6,-1
 180 657 l 2,7,8
 187 724 187 724 187 799 c 128,-1,9
 187 874 187 874 167 919 c 1,10,11
 176 930 176 930 196 938.5 c 128,-1,12
 216 947 216 947 230 947 c 0,13,14
 287 947 287 947 287 845 c 0,0,1
193 65 m 0,15,16
 193 -37 193 -37 230 -85 c 1,17,18
 215 -128 215 -128 172 -128 c 0,19,20
 98 -128 98 -128 98 21 c 0,21,22
 98 100 98 100 131 307 c 1,23,24
 180 307 180 307 204 267 c 1,25,-1
 207 264 l 1,26,27
 193 136 193 136 193 65 c 0,15,16
EndSplineSet
Position2: "'case' Case-Sensitive Forms in Latin lookup 1 per glyph data 0" dx=0 dy=40 dh=0 dv=0
EndChar

StartChar: section
Encoding: 167 167 106
Width: 563
GlyphClass: 2
Flags: W
LayerCount: 2
Fore
SplineSet
427 773 m 128,-1,1
 391 815 391 815 330.5 815 c 128,-1,2
 270 815 270 815 231 775.5 c 128,-1,3
 192 736 192 736 192 665 c 0,4,5
 192 610 192 610 220 576 c 1,6,7
 252 539 252 539 275 524 c 1,8,-1
 402 410 l 2,9,10
 448 369 448 369 461.5 330.5 c 128,-1,11
 475 292 475 292 475 210 c 1,12,-1
 211 447 l 2,13,14
 174 480 174 480 154 501.5 c 128,-1,15
 134 523 134 523 115.5 560 c 128,-1,16
 97 597 97 597 97 637 c 0,17,18
 97 755 97 755 178 822 c 128,-1,19
 259 889 259 889 385 889 c 0,20,21
 448 889 448 889 489 856.5 c 128,-1,22
 530 824 530 824 530 773 c 0,23,24
 530 736 530 736 522 720 c 128,-1,25
 514 704 514 704 509.5 695.5 c 128,-1,26
 505 687 505 687 497 679.5 c 128,-1,27
 489 672 489 672 484.5 668.5 c 128,-1,28
 480 665 480 665 472 660 c 128,-1,29
 464 655 464 655 463 654 c 1,30,0
 463 731 463 731 427 773 c 128,-1,1
488 -25 m 0,31,32
 488 -130 488 -130 407 -202 c 128,-1,33
 326 -274 326 -274 200 -274 c 0,34,35
 110 -274 110 -274 45 -239.5 c 128,-1,36
 -20 -205 -20 -205 -20 -140 c 0,37,38
 -20 -93 -20 -93 39 -30 c 1,39,40
 68 -208 68 -208 230 -208 c 0,41,42
 291 -208 291 -208 338.5 -172 c 128,-1,43
 386 -136 386 -136 386 -64 c 0,44,45
 386 29 386 29 312 96 c 2,46,-1
 185 210 l 2,47,48
 139 251 139 251 125.5 289.5 c 128,-1,49
 112 328 112 328 112 410 c 1,50,-1
 376 173 l 2,51,52
 434 121 434 121 461 79 c 128,-1,53
 488 37 488 37 488 -25 c 0,31,32
EndSplineSet
EndChar

StartChar: dieresis
Encoding: 168 168 107
Width: 378
GlyphClass: 2
Flags: W
LayerCount: 2
Fore
SplineSet
139 841 m 0,0,1
 139 821 139 821 128 780 c 1,2,3
 91 757 91 757 60.5 757 c 128,-1,4
 30 757 30 757 17.5 768 c 128,-1,5
 5 779 5 779 5 803 c 128,-1,6
 5 827 5 827 12 861 c 1,7,8
 49 884 49 884 81 884 c 0,9,10
 139 884 139 884 139 841 c 0,0,1
373 841 m 0,11,12
 373 816 373 816 362 780 c 1,13,14
 325 757 325 757 294.5 757 c 128,-1,15
 264 757 264 757 251.5 768 c 128,-1,16
 239 779 239 779 239 799 c 128,-1,17
 239 819 239 819 246 861 c 1,18,19
 284 884 284 884 315 884 c 0,20,21
 373 884 373 884 373 841 c 0,11,12
EndSplineSet
EndChar

StartChar: copyright
Encoding: 169 169 108
Width: 780
GlyphClass: 2
Flags: W
LayerCount: 2
Fore
SplineSet
428 822 m 0,0,1
 465 822 465 822 488.5 808.5 c 128,-1,2
 512 795 512 795 512 768 c 128,-1,3
 512 741 512 741 479 713 c 1,4,5
 452 774 452 774 402 774 c 0,6,7
 371 774 371 774 348.5 750.5 c 128,-1,8
 326 727 326 727 315 691 c 0,9,10
 294 622 294 622 294 564 c 0,11,12
 294 402 294 402 393 402 c 0,13,14
 450 402 450 402 474 475 c 1,15,16
 495 451 495 451 495 426.5 c 128,-1,17
 495 402 495 402 459 379 c 128,-1,18
 423 356 423 356 379 356 c 0,19,20
 304 356 304 356 267 407 c 128,-1,21
 230 458 230 458 230 532.5 c 128,-1,22
 230 607 230 607 251 670 c 128,-1,23
 272 733 272 733 319 777.5 c 128,-1,24
 366 822 366 822 428 822 c 0,0,1
635 630 m 0,25,26
 635 768 635 768 582.5 836 c 128,-1,27
 530 904 530 904 421 904 c 0,28,29
 364 904 364 904 315.5 876 c 128,-1,30
 267 848 267 848 236.5 806 c 128,-1,31
 206 764 206 764 184 714 c 0,32,33
 145 621 145 621 145 541 c 0,34,35
 145 403 145 403 196 335 c 128,-1,36
 247 267 247 267 357 267 c 0,37,38
 414 267 414 267 463 295 c 128,-1,39
 512 323 512 323 542.5 365 c 128,-1,40
 573 407 573 407 595 458 c 0,41,42
 635 549 635 549 635 630 c 0,25,26
326 210 m 0,43,44
 203 210 203 210 135 295 c 128,-1,45
 67 380 67 380 67 507 c 0,46,47
 67 670 67 670 162 810 c 0,48,49
 208 877 208 877 284.5 919.5 c 128,-1,50
 361 962 361 962 454 962 c 0,51,52
 577 962 577 962 645 876.5 c 128,-1,53
 713 791 713 791 713 664 c 0,54,55
 713 534 713 534 652 418 c 0,56,57
 583 288 583 288 466 238 c 0,58,59
 401 210 401 210 326 210 c 0,43,44
EndSplineSet
EndChar

StartChar: ordfeminine
Encoding: 170 170 109
Width: 474
GlyphClass: 2
Flags: W
LayerCount: 2
Fore
SplineSet
298 607 m 1,0,-1
 293 607 l 1,1,2
 263 540 263 540 226.5 498 c 128,-1,3
 190 456 190 456 161 456 c 0,4,5
 118 456 118 456 93 497 c 128,-1,6
 68 538 68 538 68 609 c 0,7,8
 68 722 68 722 119.5 799 c 128,-1,9
 171 876 171 876 246 876 c 0,10,11
 291 876 291 876 326 843 c 1,12,13
 335 870 335 870 358 870 c 128,-1,14
 381 870 381 870 399 851 c 1,15,16
 389 822 389 822 381 755 c 128,-1,17
 373 688 373 688 373 610.5 c 128,-1,18
 373 533 373 533 400 487 c 1,19,20
 379 460 379 460 354 460 c 0,21,22
 298 460 298 460 298 607 c 1,0,-1
180 529 m 0,23,24
 212 529 212 529 259.5 622.5 c 128,-1,25
 307 716 307 716 317 797 c 1,26,27
 278 825 278 825 248 825 c 0,28,29
 201 825 201 825 171 768.5 c 128,-1,30
 141 712 141 712 141 623 c 0,31,32
 141 579 141 579 151.5 554 c 128,-1,33
 162 529 162 529 180 529 c 0,23,24
EndSplineSet
EndChar

StartChar: guillemotleft
Encoding: 171 171 110
Width: 513
GlyphClass: 2
Flags: W
LayerCount: 2
Fore
SplineSet
152.5 582.5 m 128,-1,1
 173 604 173 604 214.5 604 c 128,-1,2
 256 604 256 604 275 588 c 1,3,4
 244 572 244 572 226.5 537.5 c 128,-1,5
 209 503 209 503 204 469.5 c 128,-1,6
 199 436 199 436 184 402.5 c 128,-1,7
 169 369 169 369 142 354 c 1,8,9
 168 340 168 340 178 307 c 128,-1,10
 188 274 188 274 188 242 c 1,11,-1
 187 236 l 1,12,13
 187 204 187 204 198.5 170 c 128,-1,14
 210 136 210 136 239 120 c 1,15,16
 220 104 220 104 181.5 104 c 128,-1,17
 143 104 143 104 125.5 119.5 c 128,-1,18
 108 135 108 135 105 159 c 128,-1,19
 102 183 102 183 100.5 213 c 128,-1,20
 99 243 99 243 98 270 c 128,-1,21
 97 297 97 297 82.5 320.5 c 128,-1,22
 68 344 68 344 40 354 c 1,23,24
 74 366 74 366 92 396.5 c 128,-1,25
 110 427 110 427 115 461 c 128,-1,26
 120 495 120 495 126 528 c 128,-1,0
 132 561 132 561 152.5 582.5 c 128,-1,1
352.5 582.5 m 128,-1,28
 373 604 373 604 414.5 604 c 128,-1,29
 456 604 456 604 475 588 c 1,30,31
 444 572 444 572 426.5 537.5 c 128,-1,32
 409 503 409 503 404 469.5 c 128,-1,33
 399 436 399 436 384 402.5 c 128,-1,34
 369 369 369 369 342 354 c 1,35,36
 368 340 368 340 378 307 c 128,-1,37
 388 274 388 274 388 242 c 1,38,-1
 387 236 l 1,39,40
 387 204 387 204 398.5 170 c 128,-1,41
 410 136 410 136 439 120 c 1,42,43
 420 104 420 104 381.5 104 c 128,-1,44
 343 104 343 104 325.5 119.5 c 128,-1,45
 308 135 308 135 305 159 c 128,-1,46
 302 183 302 183 300.5 213 c 128,-1,47
 299 243 299 243 298 270 c 128,-1,48
 297 297 297 297 282.5 320.5 c 128,-1,49
 268 344 268 344 240 354 c 1,50,51
 274 366 274 366 292 396.5 c 128,-1,52
 310 427 310 427 315 461 c 128,-1,53
 320 495 320 495 326 528 c 128,-1,27
 332 561 332 561 352.5 582.5 c 128,-1,28
EndSplineSet
Position2: "'case' Case-Sensitive Forms in Latin lookup 1 per glyph data 0" dx=0 dy=40 dh=0 dv=0
EndChar

StartChar: logicalnot
Encoding: 172 172 111
Width: 544
GlyphClass: 2
Flags: W
LayerCount: 2
Fore
SplineSet
383 386 m 2,0,-1
 174 389 l 1,1,2
 101 389 101 389 68 372 c 1,3,4
 49 400 49 400 49 437 c 0,5,6
 49 457 49 457 65.5 469.5 c 128,-1,7
 82 482 82 482 109 482 c 1,8,-1
 342 472 l 1,9,10
 374 472 374 472 421.5 478 c 128,-1,11
 469 484 469 484 486 493 c 1,12,13
 501 476 501 476 501 442 c 0,14,15
 501 434 501 434 493.5 389.5 c 128,-1,16
 486 345 486 345 486 295.5 c 128,-1,17
 486 246 486 246 515 212 c 1,18,19
 489 182 489 182 457 182 c 0,20,21
 395 182 395 182 395 280 c 0,22,23
 395 331 395 331 412 387 c 1,24,25
 403 386 403 386 383 386 c 2,0,-1
EndSplineSet
EndChar

StartChar: registered
Encoding: 174 174 112
Width: 780
GlyphClass: 2
Flags: W
LayerCount: 2
Fore
SplineSet
522 713 m 0,0,1
 522 621 522 621 401 565 c 1,2,3
 447 467 447 467 466 443 c 1,4,5
 488 410 488 410 522 407 c 1,6,7
 519 378 519 378 505 366.5 c 128,-1,8
 491 355 491 355 478 355 c 0,9,10
 449 355 449 355 425 390 c 1,11,-1
 347 544 l 1,12,13
 339 541 339 541 313 534 c 1,14,15
 305 483 305 483 305 442.5 c 128,-1,16
 305 402 305 402 326 379 c 1,17,18
 306 356 306 356 285 356 c 0,19,20
 241 356 241 356 241 428 c 0,21,22
 241 464 241 464 260 577 c 128,-1,23
 279 690 279 690 279 731.5 c 128,-1,24
 279 773 279 773 271 803 c 1,25,26
 340 816 340 816 389 816 c 0,27,28
 522 816 522 816 522 713 c 0,0,1
460 703 m 0,29,30
 460 777 460 777 376 777 c 0,31,32
 370 777 370 777 346 775 c 1,33,34
 345 734 345 734 319 578 c 1,35,36
 379 592 379 592 419.5 622.5 c 128,-1,37
 460 653 460 653 460 703 c 0,29,30
635 630 m 0,38,39
 635 768 635 768 582.5 836 c 128,-1,40
 530 904 530 904 421 904 c 0,41,42
 364 904 364 904 315.5 876 c 128,-1,43
 267 848 267 848 236.5 806 c 128,-1,44
 206 764 206 764 184 714 c 0,45,46
 145 621 145 621 145 541 c 0,47,48
 145 403 145 403 196 335 c 128,-1,49
 247 267 247 267 357 267 c 0,50,51
 414 267 414 267 463 295 c 128,-1,52
 512 323 512 323 542.5 365 c 128,-1,53
 573 407 573 407 595 458 c 0,54,55
 635 549 635 549 635 630 c 0,38,39
326 210 m 0,56,57
 203 210 203 210 135 295 c 128,-1,58
 67 380 67 380 67 507 c 0,59,60
 67 670 67 670 162 810 c 0,61,62
 208 877 208 877 284.5 919.5 c 128,-1,63
 361 962 361 962 454 962 c 0,64,65
 577 962 577 962 645 876.5 c 128,-1,66
 713 791 713 791 713 664 c 0,67,68
 713 534 713 534 652 418 c 0,69,70
 583 288 583 288 466 238 c 0,71,72
 401 210 401 210 326 210 c 0,56,57
EndSplineSet
EndChar

StartChar: macron
Encoding: 175 175 113
Width: 400
GlyphClass: 2
Flags: W
LayerCount: 2
Fore
SplineSet
256 777 m 1,0,-1
 166 781 l 1,1,2
 114 781 114 781 85 766 c 1,3,4
 64 793 64 793 64 829 c 128,-1,5
 64 865 64 865 120 865 c 1,6,-1
 265 855 l 1,7,8
 304 855 304 855 336 874 c 1,9,10
 350 857 350 857 350 829 c 0,11,12
 350 777 350 777 256 777 c 1,0,-1
EndSplineSet
EndChar

StartChar: degree
Encoding: 176 176 114
Width: 391
GlyphClass: 2
Flags: W
LayerCount: 2
Fore
SplineSet
231 919 m 0,0,1
 208 919 208 919 191 901 c 128,-1,2
 174 883 174 883 166 855 c 0,3,4
 149 801 149 801 149 749 c 0,5,6
 149 648 149 648 215 648 c 0,7,8
 245 648 245 648 265 680 c 0,9,10
 298 733 298 733 298 817 c 0,11,12
 298 919 298 919 231 919 c 0,0,1
251 974 m 0,13,14
 285 974 285 974 332 946 c 0,15,16
 357 930 357 930 374 895 c 128,-1,17
 391 860 391 860 391 812 c 0,18,19
 391 713 391 713 333 652.5 c 128,-1,20
 275 592 275 592 201 592 c 0,21,22
 166 592 166 592 120 621 c 0,23,24
 94 637 94 637 77 672 c 128,-1,25
 60 707 60 707 60 756 c 0,26,27
 60 854 60 854 118.5 914 c 128,-1,28
 177 974 177 974 251 974 c 0,13,14
EndSplineSet
EndChar

StartChar: plusminus
Encoding: 177 177 115
Width: 544
GlyphClass: 2
Flags: W
LayerCount: 2
Fore
SplineSet
109 482 m 1,0,-1
 236 476 l 1,1,2
 246 542 246 542 246 576.5 c 128,-1,3
 246 611 246 611 232 640 c 1,4,5
 254 658 254 658 287 658 c 0,6,7
 337 658 337 658 337 586 c 0,8,9
 337 570 337 570 324 472 c 1,10,-1
 342 472 l 2,11,12
 374 472 374 472 421.5 478 c 128,-1,13
 469 484 469 484 486 493 c 1,14,15
 501 476 501 476 501 442 c 0,16,17
 501 386 501 386 383 386 c 2,18,-1
 312 386 l 1,19,20
 307 344 307 344 307 319 c 0,21,22
 307 269 307 269 336 235 c 1,23,24
 310 205 310 205 278 205 c 0,25,26
 216 205 216 205 216 303 c 0,27,28
 216 344 216 344 222 388 c 1,29,30
 200 389 200 389 174 389 c 0,31,32
 101 389 101 389 68 372 c 1,33,34
 49 400 49 400 49 437 c 0,35,36
 49 457 49 457 65.5 469.5 c 128,-1,37
 82 482 82 482 109 482 c 1,0,-1
383 -14 m 1,38,-1
 174 -11 l 1,39,40
 101 -11 101 -11 68 -28 c 1,41,42
 49 1 49 1 49 29 c 0,43,44
 49 82 49 82 109 82 c 1,45,-1
 342 72 l 1,46,47
 374 72 374 72 421.5 78 c 128,-1,48
 469 84 469 84 486 93 c 1,49,50
 501 76 501 76 501 42 c 0,51,52
 501 -14 501 -14 383 -14 c 1,38,-1
EndSplineSet
EndChar

StartChar: twosuperior
Encoding: 178 178 116
Width: 397
GlyphClass: 2
Flags: W
LayerCount: 2
Fore
SplineSet
335 827 m 0,0,1
 335 757 335 757 271 670 c 0,2,3
 228 611 228 611 146 516 c 1,4,5
 203 528 203 528 244 528 c 128,-1,6
 285 528 285 528 307 516.5 c 128,-1,7
 329 505 329 505 329 467 c 0,8,9
 329 458 329 458 326 435 c 1,10,11
 273 456 273 456 195.5 456 c 128,-1,12
 118 456 118 456 85 448 c 1,13,14
 72 437 72 437 61 437 c 0,15,16
 33 437 33 437 20 469 c 1,17,18
 187 650 187 650 232 742 c 0,19,20
 253 786 253 786 253 816 c 128,-1,21
 253 846 253 846 234.5 865.5 c 128,-1,22
 216 885 216 885 183 885 c 0,23,24
 122 885 122 885 110 799 c 1,25,26
 80 810 80 810 67.5 821.5 c 128,-1,27
 55 833 55 833 55 850 c 0,28,29
 55 887 55 887 89 914.5 c 128,-1,30
 123 942 123 942 193.5 942 c 128,-1,31
 264 942 264 942 299.5 911 c 128,-1,32
 335 880 335 880 335 827 c 0,0,1
EndSplineSet
EndChar

StartChar: threesuperior
Encoding: 179 179 117
Width: 403
GlyphClass: 2
Flags: W
LayerCount: 2
Fore
SplineSet
98 691 m 2,0,1
 98 711 98 711 103.5 716.5 c 128,-1,2
 109 722 109 722 129 725 c 0,3,4
 182 732 182 732 211 760 c 128,-1,5
 240 788 240 788 240 817 c 128,-1,6
 240 846 240 846 223 865.5 c 128,-1,7
 206 885 206 885 177 885 c 0,8,9
 120 885 120 885 105 816 c 1,10,11
 76 827 76 827 65 838 c 128,-1,12
 54 849 54 849 54 870.5 c 128,-1,13
 54 892 54 892 86 917 c 128,-1,14
 118 942 118 942 186 942 c 128,-1,15
 254 942 254 942 288 911 c 128,-1,16
 322 880 322 880 322 822 c 128,-1,17
 322 764 322 764 251 714 c 1,18,19
 330 687 330 687 330 606 c 0,20,21
 330 552 330 552 286 498 c 0,22,23
 264 471 264 471 224.5 454 c 128,-1,24
 185 437 185 437 136 437 c 128,-1,25
 87 437 87 437 54 463 c 128,-1,26
 21 489 21 489 21 522 c 0,27,28
 21 549 21 549 75 571 c 1,29,30
 91 496 91 496 149 496 c 0,31,32
 194 496 194 496 220.5 527 c 128,-1,33
 247 558 247 558 247 592.5 c 128,-1,34
 247 627 247 627 227.5 649.5 c 128,-1,35
 208 672 208 672 168 676 c 1,36,37
 135 669 135 669 98 666 c 1,38,-1
 98 691 l 2,0,1
EndSplineSet
EndChar

StartChar: acute
Encoding: 180 180 118
Width: 309
GlyphClass: 2
Flags: W
LayerCount: 2
Fore
SplineSet
144 740 m 0,0,1
 131 740 131 740 117 768 c 1,2,3
 197 828 197 828 230.5 858.5 c 128,-1,4
 264 889 264 889 277 913 c 1,5,6
 301 918 301 918 327.5 918 c 128,-1,7
 354 918 354 918 367.5 909.5 c 128,-1,8
 381 901 381 901 381 890.5 c 128,-1,9
 381 880 381 880 374.5 873 c 128,-1,10
 368 866 368 866 329.5 838.5 c 128,-1,11
 291 811 291 811 225 775.5 c 128,-1,12
 159 740 159 740 144 740 c 0,0,1
EndSplineSet
EndChar

StartChar: mu
Encoding: 181 181 119
Width: 677
GlyphClass: 2
Flags: W
LayerCount: 2
Fore
SplineSet
221 654.5 m 128,-1,1
 240 636 240 636 240 603.5 c 128,-1,2
 240 571 240 571 214.5 385 c 128,-1,3
 189 199 189 199 189 175 c 0,4,5
 189 80 189 80 241 80 c 0,6,7
 281 80 281 80 338 174 c 128,-1,8
 395 268 395 268 435 385.5 c 128,-1,9
 475 503 475 503 475 559.5 c 128,-1,10
 475 616 475 616 460 650 c 1,11,12
 486 673 486 673 521 673 c 0,13,14
 595 673 595 673 595 597 c 0,15,16
 595 542 595 542 576 428 c 128,-1,17
 557 314 557 314 557 249 c 0,18,19
 557 107 557 107 604 30 c 1,20,21
 574 -7 574 -7 536 -7 c 0,22,23
 450 -7 450 -7 450 204 c 0,24,25
 450 224 450 224 462 335 c 1,26,27
 377 134 377 134 320 60 c 0,28,29
 296 28 296 28 266.5 6 c 128,-1,30
 237 -16 237 -16 213 -16 c 128,-1,31
 189 -16 189 -16 176 -1 c 1,32,33
 175 -21 175 -21 175 -61 c 0,34,35
 175 -182 175 -182 227 -235 c 1,36,37
 197 -271 197 -271 159 -271 c 0,38,39
 74 -271 74 -271 74 -118 c 0,40,41
 74 -67 74 -67 100.5 170.5 c 128,-1,42
 127 408 127 408 127 509 c 128,-1,43
 127 610 127 610 106 650 c 1,44,45
 131 673 131 673 166.5 673 c 128,-1,0
 202 673 202 673 221 654.5 c 128,-1,1
EndSplineSet
EndChar

StartChar: paragraph
Encoding: 182 182 120
Width: 567
GlyphClass: 2
Flags: W
LayerCount: 2
Fore
SplineSet
535 563.5 m 128,-1,1
 547 551 547 551 547 529 c 128,-1,2
 547 507 547 507 503.5 464 c 128,-1,3
 460 421 460 421 394 394 c 1,4,5
 350 -27 350 -27 341 -72 c 0,6,7
 314 -204 314 -204 226 -204 c 0,8,9
 202 -204 202 -204 184 -191.5 c 128,-1,10
 166 -179 166 -179 165 -158 c 1,11,12
 230 -136 230 -136 250.5 -34 c 128,-1,13
 271 68 271 68 301 371 c 1,14,15
 288 369 288 369 263 369 c 0,16,17
 152 369 152 369 93.5 430.5 c 128,-1,18
 35 492 35 492 35 581 c 0,19,20
 35 695 35 695 125 789 c 0,21,22
 168 834 168 834 235 862 c 128,-1,23
 302 890 302 890 378.5 890 c 128,-1,24
 455 890 455 890 489 864 c 1,25,26
 458 825 458 825 442.5 749.5 c 128,-1,27
 427 674 427 674 404 486 c 1,28,29
 472 534 472 534 492 588 c 1,30,0
 523 576 523 576 535 563.5 c 128,-1,1
140 602 m 0,31,32
 140 535 140 535 176.5 487 c 128,-1,33
 213 439 213 439 280 439 c 0,34,35
 289 439 289 439 307 441 c 1,36,37
 332 713 332 713 336 733 c 0,38,39
 348 801 348 801 377 833 c 1,40,41
 264 826 264 826 202 759 c 128,-1,42
 140 692 140 692 140 602 c 0,31,32
EndSplineSet
EndChar

StartChar: periodcentered
Encoding: 183 183 121
Width: 295
GlyphClass: 2
Flags: W
LayerCount: 2
Fore
SplineSet
206.5 452.5 m 128,-1,1
 225 440 225 440 225 413 c 128,-1,2
 225 386 225 386 212 346 c 1,3,4
 168 318 168 318 133.5 318 c 128,-1,5
 99 318 99 318 85 331 c 128,-1,6
 71 344 71 344 71 369.5 c 128,-1,7
 71 395 71 395 79 438 c 1,8,9
 121 465 121 465 154.5 465 c 128,-1,0
 188 465 188 465 206.5 452.5 c 128,-1,1
EndSplineSet
EndChar

StartChar: cedilla
Encoding: 184 184 122
Width: 500
GlyphClass: 2
Flags: W
LayerCount: 2
Fore
SplineSet
294 -95 m 128,-1,1
 321 -114 321 -114 321 -156 c 128,-1,2
 321 -198 321 -198 285 -235 c 128,-1,3
 249 -272 249 -272 174 -272 c 0,4,5
 135 -272 135 -272 110.5 -255 c 128,-1,6
 86 -238 86 -238 86 -216 c 0,7,8
 86 -191 86 -191 137 -172 c 1,9,10
 139 -194 139 -194 152.5 -208.5 c 128,-1,11
 166 -223 166 -223 189 -223 c 128,-1,12
 212 -223 212 -223 228 -203 c 128,-1,13
 244 -183 244 -183 244 -158 c 0,14,15
 244 -119 244 -119 204 -113 c 2,16,-1
 152 -105 l 2,17,18
 139 -103 139 -103 139 -97.5 c 128,-1,19
 139 -92 139 -92 177 0 c 1,20,-1
 229 0 l 1,21,-1
 202 -69 l 1,22,0
 267 -76 267 -76 294 -95 c 128,-1,1
EndSplineSet
EndChar

StartChar: onesuperior
Encoding: 185 185 123
Width: 349
GlyphClass: 2
Flags: W
LayerCount: 2
Fore
SplineSet
234.5 719.5 m 128,-1,1
 214 592 214 592 214 544 c 128,-1,2
 214 496 214 496 238 471 c 1,3,4
 213 442 213 442 187 442 c 0,5,6
 136 442 136 442 136 523 c 0,7,8
 136 556 136 556 155 677 c 128,-1,9
 174 798 174 798 175 839 c 1,10,11
 129 781 129 781 95 781 c 0,12,13
 79 781 79 781 66.5 790.5 c 128,-1,14
 54 800 54 800 38 833 c 1,15,16
 72 841 72 841 98.5 860 c 128,-1,17
 125 879 125 879 138 897 c 0,18,19
 172 942 172 942 209 942 c 0,20,21
 232 942 232 942 243.5 927 c 128,-1,22
 255 912 255 912 255 879.5 c 128,-1,0
 255 847 255 847 234.5 719.5 c 128,-1,1
EndSplineSet
EndChar

StartChar: ordmasculine
Encoding: 186 186 124
Width: 465
GlyphClass: 2
Flags: W
LayerCount: 2
Fore
SplineSet
234 821 m 0,0,1
 208 821 208 821 189 801 c 128,-1,2
 170 781 170 781 160 750 c 0,3,4
 143 694 143 694 143 636 c 128,-1,5
 143 578 143 578 166 543.5 c 128,-1,6
 189 509 189 509 230 509 c 0,7,8
 256 509 256 509 275.5 529 c 128,-1,9
 295 549 295 549 304 580 c 0,10,11
 323 640 323 640 323 696.5 c 128,-1,12
 323 753 323 753 299.5 787 c 128,-1,13
 276 821 276 821 234 821 c 0,0,1
202 454 m 0,14,15
 138 454 138 454 103 501 c 128,-1,16
 68 548 68 548 68 621 c 0,17,18
 68 715 68 715 123.5 795.5 c 128,-1,19
 179 876 179 876 264 876 c 0,20,21
 328 876 328 876 362.5 829 c 128,-1,22
 397 782 397 782 397 698.5 c 128,-1,23
 397 615 397 615 342 534.5 c 128,-1,24
 287 454 287 454 202 454 c 0,14,15
EndSplineSet
EndChar

StartChar: guillemotright
Encoding: 187 187 125
Width: 513
GlyphClass: 2
Flags: W
LayerCount: 2
Fore
SplineSet
360.5 125.5 m 128,-1,1
 340 104 340 104 298.5 104 c 128,-1,2
 257 104 257 104 238 120 c 1,3,4
 269 136 269 136 286.5 170.5 c 128,-1,5
 304 205 304 205 309 238.5 c 128,-1,6
 314 272 314 272 329 305.5 c 128,-1,7
 344 339 344 339 371 354 c 1,8,9
 345 368 345 368 335 401 c 128,-1,10
 325 434 325 434 325 466 c 1,11,-1
 326 472 l 1,12,13
 326 504 326 504 314.5 538 c 128,-1,14
 303 572 303 572 274 588 c 1,15,16
 293 604 293 604 331.5 604 c 128,-1,17
 370 604 370 604 387.5 588.5 c 128,-1,18
 405 573 405 573 408 549 c 128,-1,19
 411 525 411 525 412.5 495 c 128,-1,20
 414 465 414 465 415 438 c 128,-1,21
 416 411 416 411 430.5 387.5 c 128,-1,22
 445 364 445 364 473 354 c 1,23,24
 439 342 439 342 421 311.5 c 128,-1,25
 403 281 403 281 398 247 c 128,-1,26
 393 213 393 213 387 180 c 128,-1,0
 381 147 381 147 360.5 125.5 c 128,-1,1
160.5 125.5 m 128,-1,28
 140 104 140 104 98.5 104 c 128,-1,29
 57 104 57 104 38 120 c 1,30,31
 69 136 69 136 86.5 170.5 c 128,-1,32
 104 205 104 205 109 238.5 c 128,-1,33
 114 272 114 272 129 305.5 c 128,-1,34
 144 339 144 339 171 354 c 1,35,36
 145 368 145 368 135 401 c 128,-1,37
 125 434 125 434 125 466 c 1,38,-1
 126 472 l 1,39,40
 126 504 126 504 114.5 538 c 128,-1,41
 103 572 103 572 74 588 c 1,42,43
 93 604 93 604 131.5 604 c 128,-1,44
 170 604 170 604 187.5 588.5 c 128,-1,45
 205 573 205 573 208 549 c 128,-1,46
 211 525 211 525 212.5 495 c 128,-1,47
 214 465 214 465 215 438 c 128,-1,48
 216 411 216 411 230.5 387.5 c 128,-1,49
 245 364 245 364 273 354 c 1,50,51
 239 342 239 342 221 311.5 c 128,-1,52
 203 281 203 281 198 247 c 128,-1,53
 193 213 193 213 187 180 c 128,-1,27
 181 147 181 147 160.5 125.5 c 128,-1,28
EndSplineSet
Position2: "'case' Case-Sensitive Forms in Latin lookup 1 per glyph data 0" dx=0 dy=40 dh=0 dv=0
EndChar

StartChar: onequarter
Encoding: 188 188 126
Width: 901
GlyphClass: 2
Flags: W
LayerCount: 2
Fore
SplineSet
561 845 m 1,0,-1
 560 864 l 1,1,2
 594 887 594 887 620 887 c 0,3,4
 665 887 665 887 665 845 c 0,5,6
 665 820 665 820 648.5 774 c 128,-1,7
 632 728 632 728 511 488 c 128,-1,8
 390 248 390 248 354 147 c 1,9,10
 334 87 334 87 334 58.5 c 128,-1,11
 334 30 334 30 345 10 c 1,12,13
 302 -26 302 -26 278 -26 c 0,14,15
 229 -26 229 -26 229 23 c 0,16,17
 229 52 229 52 247.5 106.5 c 128,-1,18
 266 161 266 161 384 400.5 c 128,-1,19
 502 640 502 640 531.5 725.5 c 128,-1,20
 561 811 561 811 561 845 c 1,0,-1
270.5 663.5 m 128,-1,22
 250 536 250 536 250 488 c 128,-1,23
 250 440 250 440 274 415 c 1,24,25
 249 386 249 386 223 386 c 0,26,27
 172 386 172 386 172 467 c 0,28,29
 172 500 172 500 191 621 c 128,-1,30
 210 742 210 742 211 783 c 1,31,32
 165 725 165 725 131 725 c 0,33,34
 115 725 115 725 102.5 734.5 c 128,-1,35
 90 744 90 744 74 777 c 1,36,37
 108 785 108 785 134.5 804 c 128,-1,38
 161 823 161 823 174 841 c 0,39,40
 208 886 208 886 245 886 c 0,41,42
 268 886 268 886 279.5 871 c 128,-1,43
 291 856 291 856 291 823.5 c 128,-1,21
 291 791 291 791 270.5 663.5 c 128,-1,22
744 429 m 0,44,45
 744 380 744 380 705 295.5 c 128,-1,46
 666 211 666 211 609 133 c 1,47,48
 663 145 663 145 720 147 c 1,49,50
 723 164 723 164 723 182.5 c 128,-1,51
 723 201 723 201 712 224 c 1,52,53
 736 240 736 240 760 240 c 0,54,55
 804 240 804 240 804 191 c 0,56,57
 804 174 804 174 797 139 c 1,58,59
 828 127 828 127 828 92 c 0,60,61
 828 89 828 89 827.5 76 c 128,-1,62
 827 63 827 63 827 59 c 1,63,64
 809 67 809 67 785 73 c 1,65,66
 783 51 783 51 783 46 c 0,67,68
 783 24 783 24 807 1 c 1,69,70
 780 -25 780 -25 754 -25 c 0,71,72
 704 -25 704 -25 704 38 c 0,73,74
 704 60 704 60 707 82 c 1,75,-1
 671 82 l 2,76,77
 604 82 604 82 561 73 c 1,78,79
 550 62 550 62 537 62 c 0,80,81
 510 62 510 62 495 94 c 1,82,83
 556 160 556 160 608 256 c 128,-1,84
 660 352 660 352 660 422 c 0,85,86
 660 432 660 432 653 448 c 1,87,88
 684 474 684 474 705 474 c 128,-1,89
 726 474 726 474 735 464.5 c 128,-1,90
 744 455 744 455 744 429 c 0,44,45
EndSplineSet
EndChar

StartChar: onehalf
Encoding: 189 189 127
Width: 901
GlyphClass: 2
Flags: W
LayerCount: 2
Fore
SplineSet
561 845 m 1,0,-1
 560 864 l 1,1,2
 594 887 594 887 620 887 c 0,3,4
 665 887 665 887 665 845 c 0,5,6
 665 820 665 820 648.5 774 c 128,-1,7
 632 728 632 728 511 488 c 128,-1,8
 390 248 390 248 354 147 c 1,9,10
 334 87 334 87 334 58.5 c 128,-1,11
 334 30 334 30 345 10 c 1,12,13
 302 -26 302 -26 278 -26 c 0,14,15
 229 -26 229 -26 229 23 c 0,16,17
 229 52 229 52 247.5 106.5 c 128,-1,18
 266 161 266 161 384 400.5 c 128,-1,19
 502 640 502 640 531.5 725.5 c 128,-1,20
 561 811 561 811 561 845 c 1,0,-1
270.5 663.5 m 128,-1,22
 250 536 250 536 250 488 c 128,-1,23
 250 440 250 440 274 415 c 1,24,25
 249 386 249 386 223 386 c 0,26,27
 172 386 172 386 172 467 c 0,28,29
 172 500 172 500 191 621 c 128,-1,30
 210 742 210 742 211 783 c 1,31,32
 165 725 165 725 131 725 c 0,33,34
 115 725 115 725 102.5 734.5 c 128,-1,35
 90 744 90 744 74 777 c 1,36,37
 108 785 108 785 134.5 804 c 128,-1,38
 161 823 161 823 174 841 c 0,39,40
 208 886 208 886 245 886 c 0,41,42
 268 886 268 886 279.5 871 c 128,-1,43
 291 856 291 856 291 823.5 c 128,-1,21
 291 791 291 791 270.5 663.5 c 128,-1,22
851 359 m 0,44,45
 851 289 851 289 787 202 c 0,46,47
 744 143 744 143 662 48 c 1,48,49
 719 60 719 60 760 60 c 128,-1,50
 801 60 801 60 823 48.5 c 128,-1,51
 845 37 845 37 845 -1 c 0,52,53
 845 -11 845 -11 842 -33 c 1,54,55
 790 -12 790 -12 712 -12 c 128,-1,56
 634 -12 634 -12 601 -20 c 1,57,58
 588 -31 588 -31 577 -31 c 0,59,60
 549 -31 549 -31 536 1 c 1,61,62
 703 182 703 182 748 274 c 0,63,64
 769 318 769 318 769 348 c 128,-1,65
 769 378 769 378 750.5 397.5 c 128,-1,66
 732 417 732 417 699 417 c 0,67,68
 638 417 638 417 626 331 c 1,69,70
 596 342 596 342 583.5 353.5 c 128,-1,71
 571 365 571 365 571 382 c 0,72,73
 571 419 571 419 605 446.5 c 128,-1,74
 639 474 639 474 709.5 474 c 128,-1,75
 780 474 780 474 815.5 443 c 128,-1,76
 851 412 851 412 851 359 c 0,44,45
EndSplineSet
EndChar

StartChar: threequarters
Encoding: 190 190 128
Width: 901
GlyphClass: 2
Flags: W
LayerCount: 2
Fore
SplineSet
595 845 m 1,0,-1
 594 864 l 1,1,2
 628 887 628 887 654 887 c 0,3,4
 699 887 699 887 699 845 c 0,5,6
 699 820 699 820 682.5 774 c 128,-1,7
 666 728 666 728 545 488 c 128,-1,8
 424 248 424 248 388 147 c 1,9,10
 368 87 368 87 368 58.5 c 128,-1,11
 368 30 368 30 379 10 c 1,12,13
 336 -26 336 -26 312 -26 c 0,14,15
 263 -26 263 -26 263 23 c 0,16,17
 263 52 263 52 281.5 106.5 c 128,-1,18
 300 161 300 161 418 400.5 c 128,-1,19
 536 640 536 640 565.5 725.5 c 128,-1,20
 595 811 595 811 595 845 c 1,0,-1
134 635 m 2,21,22
 134 655 134 655 139.5 660.5 c 128,-1,23
 145 666 145 666 165 669 c 0,24,25
 218 676 218 676 247 704 c 128,-1,26
 276 732 276 732 276 761 c 128,-1,27
 276 790 276 790 259 809.5 c 128,-1,28
 242 829 242 829 213 829 c 0,29,30
 156 829 156 829 141 760 c 1,31,32
 112 771 112 771 101 782 c 128,-1,33
 90 793 90 793 90 814.5 c 128,-1,34
 90 836 90 836 122 861 c 128,-1,35
 154 886 154 886 222 886 c 128,-1,36
 290 886 290 886 324 855 c 128,-1,37
 358 824 358 824 358 766 c 128,-1,38
 358 708 358 708 287 658 c 1,39,40
 366 631 366 631 366 550 c 0,41,42
 366 496 366 496 322 442 c 0,43,44
 300 415 300 415 260.5 398 c 128,-1,45
 221 381 221 381 172 381 c 128,-1,46
 123 381 123 381 90 407 c 128,-1,47
 57 433 57 433 57 466 c 0,48,49
 57 493 57 493 111 515 c 1,50,51
 127 440 127 440 185 440 c 0,52,53
 230 440 230 440 256.5 471 c 128,-1,54
 283 502 283 502 283 536.5 c 128,-1,55
 283 571 283 571 263.5 593.5 c 128,-1,56
 244 616 244 616 204 620 c 1,57,58
 171 613 171 613 134 610 c 1,59,-1
 134 635 l 2,21,22
744 429 m 0,60,61
 744 380 744 380 705 295.5 c 128,-1,62
 666 211 666 211 609 133 c 1,63,64
 663 145 663 145 720 147 c 1,65,66
 723 164 723 164 723 182.5 c 128,-1,67
 723 201 723 201 712 224 c 1,68,69
 736 240 736 240 760 240 c 0,70,71
 804 240 804 240 804 191 c 0,72,73
 804 174 804 174 797 139 c 1,74,75
 828 127 828 127 828 92 c 0,76,77
 828 89 828 89 827.5 76 c 128,-1,78
 827 63 827 63 827 59 c 1,79,80
 809 67 809 67 785 73 c 1,81,82
 783 51 783 51 783 46 c 0,83,84
 783 24 783 24 807 1 c 1,85,86
 780 -25 780 -25 754 -25 c 0,87,88
 704 -25 704 -25 704 38 c 0,89,90
 704 60 704 60 707 82 c 1,91,-1
 671 82 l 2,92,93
 604 82 604 82 561 73 c 1,94,95
 550 62 550 62 537 62 c 0,96,97
 510 62 510 62 495 94 c 1,98,99
 556 160 556 160 608 256 c 128,-1,100
 660 352 660 352 660 422 c 0,101,102
 660 432 660 432 653 448 c 1,103,104
 684 474 684 474 705 474 c 128,-1,105
 726 474 726 474 735 464.5 c 128,-1,106
 744 455 744 455 744 429 c 0,60,61
EndSplineSet
EndChar

StartChar: questiondown
Encoding: 191 191 129
Width: 457
GlyphClass: 2
Flags: W
LayerCount: 2
Fore
SplineSet
11 -22 m 0,0,1
 11 123 11 123 230 397 c 1,2,3
 257 433 257 433 283 433 c 128,-1,4
 309 433 309 433 324 403 c 1,5,6
 259 320 259 320 193.5 198.5 c 128,-1,7
 128 77 128 77 128 -5 c 0,8,9
 128 -64 128 -64 160.5 -105.5 c 128,-1,10
 193 -147 193 -147 250 -147 c 0,11,12
 371 -147 371 -147 371 23 c 1,13,14
 452 -13 452 -13 452 -75 c 128,-1,15
 452 -137 452 -137 391.5 -177 c 128,-1,16
 331 -217 331 -217 233 -217 c 128,-1,17
 135 -217 135 -217 73 -165.5 c 128,-1,18
 11 -114 11 -114 11 -22 c 0,0,1
216 587 m 0,19,20
 216 614 216 614 228 656 c 1,21,22
 272 684 272 684 306.5 684 c 128,-1,23
 341 684 341 684 355.5 670.5 c 128,-1,24
 370 657 370 657 370 632 c 128,-1,25
 370 607 370 607 362 564 c 1,26,27
 319 537 319 537 282 537 c 0,28,29
 216 537 216 537 216 587 c 0,19,20
EndSplineSet
Position2: "'case' Case-Sensitive Forms in Latin lookup 1 per glyph data 1" dx=0 dy=300 dh=0 dv=0
EndChar

StartChar: Agrave
Encoding: 192 192 130
Width: 657
GlyphClass: 2
Flags: W
LayerCount: 2
Fore
SplineSet
667 29 m 1,0,1
 651 -7 651 -7 603 -7 c 128,-1,2
 555 -7 555 -7 526.5 18 c 128,-1,3
 498 43 498 43 480.5 101 c 128,-1,4
 463 159 463 159 451 255 c 1,5,-1
 158 255 l 1,6,7
 107 140 107 140 107 77 c 0,8,9
 107 48 107 48 119 29 c 1,10,11
 95 -7 95 -7 50 -7 c 128,-1,12
 5 -7 5 -7 5 43 c 0,13,14
 5 71 5 71 22.5 125.5 c 128,-1,15
 40 180 40 180 151 410.5 c 128,-1,16
 262 641 262 641 289.5 723.5 c 128,-1,17
 317 806 317 806 317 830 c 128,-1,18
 317 854 317 854 314 866 c 1,19,20
 347 889 347 889 386 889 c 128,-1,21
 425 889 425 889 448.5 869.5 c 128,-1,22
 472 850 472 850 489.5 794 c 128,-1,23
 507 738 507 738 529.5 497 c 128,-1,24
 552 256 552 256 581 156 c 0,25,26
 602 82 602 82 667 29 c 1,0,1
386 737 m 1,27,28
 363 683 363 683 291 537 c 128,-1,29
 219 391 219 391 188 323 c 1,30,-1
 444 323 l 1,31,32
 439 386 439 386 427.5 487.5 c 128,-1,33
 416 589 416 589 412 616 c 0,34,35
 400 687 400 687 386 737 c 1,27,28
291.5 1044 m 128,-1,37
 285 1051 285 1051 285 1061.5 c 128,-1,38
 285 1072 285 1072 298.5 1080.5 c 128,-1,39
 312 1089 312 1089 338.5 1089 c 128,-1,40
 365 1089 365 1089 389 1084 c 1,41,42
 402 1061 402 1061 435.5 1030.5 c 128,-1,43
 469 1000 469 1000 550 939 c 1,44,45
 534 911 534 911 521 911 c 128,-1,46
 508 911 508 911 441.5 947 c 128,-1,47
 375 983 375 983 336.5 1010 c 128,-1,36
 298 1037 298 1037 291.5 1044 c 128,-1,37
EndSplineSet
Position2: "'cpsp' Capital Spacing in Latin lookup 0 subtable" dx=0 dy=0 dh=20 dv=0
EndChar

StartChar: Aacute
Encoding: 193 193 131
Width: 657
GlyphClass: 2
Flags: W
LayerCount: 2
Fore
SplineSet
386 737 m 1,0,1
 363 683 363 683 291 537 c 128,-1,2
 219 391 219 391 188 323 c 1,3,-1
 444 323 l 1,4,5
 439 386 439 386 427.5 487.5 c 128,-1,6
 416 589 416 589 412 616 c 0,7,8
 400 687 400 687 386 737 c 1,0,1
311 911 m 0,9,10
 298 911 298 911 284 939 c 1,11,12
 364 999 364 999 397.5 1029.5 c 128,-1,13
 431 1060 431 1060 444 1084 c 1,14,15
 468 1089 468 1089 494.5 1089 c 128,-1,16
 521 1089 521 1089 534.5 1080.5 c 128,-1,17
 548 1072 548 1072 548 1061.5 c 128,-1,18
 548 1051 548 1051 541.5 1044 c 128,-1,19
 535 1037 535 1037 496.5 1009.5 c 128,-1,20
 458 982 458 982 392 946.5 c 128,-1,21
 326 911 326 911 311 911 c 0,9,10
667 29 m 1,22,23
 651 -7 651 -7 603 -7 c 128,-1,24
 555 -7 555 -7 526.5 18 c 128,-1,25
 498 43 498 43 480.5 101 c 128,-1,26
 463 159 463 159 451 255 c 1,27,-1
 158 255 l 1,28,29
 107 140 107 140 107 77 c 0,30,31
 107 48 107 48 119 29 c 1,32,33
 95 -7 95 -7 50 -7 c 128,-1,34
 5 -7 5 -7 5 43 c 0,35,36
 5 71 5 71 22.5 125.5 c 128,-1,37
 40 180 40 180 151 410.5 c 128,-1,38
 262 641 262 641 289.5 723.5 c 128,-1,39
 317 806 317 806 317 830 c 128,-1,40
 317 854 317 854 314 866 c 1,41,42
 347 889 347 889 386 889 c 128,-1,43
 425 889 425 889 448.5 869.5 c 128,-1,44
 472 850 472 850 489.5 794 c 128,-1,45
 507 738 507 738 529.5 497 c 128,-1,46
 552 256 552 256 581 156 c 0,47,48
 602 82 602 82 667 29 c 1,22,23
EndSplineSet
Position2: "'cpsp' Capital Spacing in Latin lookup 0 subtable" dx=0 dy=0 dh=20 dv=0
EndChar

StartChar: Acircumflex
Encoding: 194 194 132
Width: 657
GlyphClass: 2
Flags: W
LayerCount: 2
Fore
SplineSet
386 737 m 1,0,1
 363 683 363 683 291 537 c 128,-1,2
 219 391 219 391 188 323 c 1,3,-1
 444 323 l 1,4,5
 439 386 439 386 427.5 487.5 c 128,-1,6
 416 589 416 589 412 616 c 0,7,8
 400 687 400 687 386 737 c 1,0,1
537 911 m 0,9,10
 515 911 515 911 401 1002 c 1,11,12
 270 911 270 911 242 911 c 0,13,14
 231 911 231 911 215 939 c 1,15,16
 309 1009 309 1009 340 1050 c 0,17,18
 350 1064 350 1064 361 1084 c 1,19,20
 378 1089 378 1089 409 1089 c 128,-1,21
 440 1089 440 1089 455 1078 c 0,22,23
 456 1077 456 1077 463.5 1065 c 128,-1,24
 471 1053 471 1053 479.5 1040.5 c 128,-1,25
 488 1028 488 1028 500 1012 c 0,26,27
 534 967 534 967 564 939 c 1,28,29
 550 911 550 911 537 911 c 0,9,10
667 29 m 1,30,31
 651 -7 651 -7 603 -7 c 128,-1,32
 555 -7 555 -7 526.5 18 c 128,-1,33
 498 43 498 43 480.5 101 c 128,-1,34
 463 159 463 159 451 255 c 1,35,-1
 158 255 l 1,36,37
 107 140 107 140 107 77 c 0,38,39
 107 48 107 48 119 29 c 1,40,41
 95 -7 95 -7 50 -7 c 128,-1,42
 5 -7 5 -7 5 43 c 0,43,44
 5 71 5 71 22.5 125.5 c 128,-1,45
 40 180 40 180 151 410.5 c 128,-1,46
 262 641 262 641 289.5 723.5 c 128,-1,47
 317 806 317 806 317 830 c 128,-1,48
 317 854 317 854 314 866 c 1,49,50
 347 889 347 889 386 889 c 128,-1,51
 425 889 425 889 448.5 869.5 c 128,-1,52
 472 850 472 850 489.5 794 c 128,-1,53
 507 738 507 738 529.5 497 c 128,-1,54
 552 256 552 256 581 156 c 0,55,56
 602 82 602 82 667 29 c 1,30,31
EndSplineSet
Position2: "'cpsp' Capital Spacing in Latin lookup 0 subtable" dx=0 dy=0 dh=20 dv=0
EndChar

StartChar: Atilde
Encoding: 195 195 133
Width: 657
GlyphClass: 2
Flags: W
LayerCount: 2
Fore
SplineSet
386 737 m 1,0,1
 363 683 363 683 291 537 c 128,-1,2
 219 391 219 391 188 323 c 1,3,-1
 444 323 l 1,4,5
 439 386 439 386 427.5 487.5 c 128,-1,6
 416 589 416 589 412 616 c 0,7,8
 400 687 400 687 386 737 c 1,0,1
583 1042 m 0,9,10
 583 999 583 999 554 963 c 128,-1,11
 525 927 525 927 488.5 927 c 128,-1,12
 452 927 452 927 426.5 943.5 c 128,-1,13
 401 960 401 960 381 976.5 c 128,-1,14
 361 993 361 993 342 993 c 128,-1,15
 323 993 323 993 309 976 c 128,-1,16
 295 959 295 959 290 926 c 1,17,18
 246 926 246 926 246 958 c 0,19,20
 246 1001 246 1001 275 1037 c 128,-1,21
 304 1073 304 1073 340.5 1073 c 128,-1,22
 377 1073 377 1073 402.5 1056.5 c 128,-1,23
 428 1040 428 1040 448 1023.5 c 128,-1,24
 468 1007 468 1007 487 1007 c 128,-1,25
 506 1007 506 1007 520 1024 c 128,-1,26
 534 1041 534 1041 539 1074 c 1,27,28
 583 1074 583 1074 583 1042 c 0,9,10
667 29 m 1,29,30
 651 -7 651 -7 603 -7 c 128,-1,31
 555 -7 555 -7 526.5 18 c 128,-1,32
 498 43 498 43 480.5 101 c 128,-1,33
 463 159 463 159 451 255 c 1,34,-1
 158 255 l 1,35,36
 107 140 107 140 107 77 c 0,37,38
 107 48 107 48 119 29 c 1,39,40
 95 -7 95 -7 50 -7 c 128,-1,41
 5 -7 5 -7 5 43 c 0,42,43
 5 71 5 71 22.5 125.5 c 128,-1,44
 40 180 40 180 151 410.5 c 128,-1,45
 262 641 262 641 289.5 723.5 c 128,-1,46
 317 806 317 806 317 830 c 128,-1,47
 317 854 317 854 314 866 c 1,48,49
 347 889 347 889 386 889 c 128,-1,50
 425 889 425 889 448.5 869.5 c 128,-1,51
 472 850 472 850 489.5 794 c 128,-1,52
 507 738 507 738 529.5 497 c 128,-1,53
 552 256 552 256 581 156 c 0,54,55
 602 82 602 82 667 29 c 1,29,30
EndSplineSet
Position2: "'cpsp' Capital Spacing in Latin lookup 0 subtable" dx=0 dy=0 dh=20 dv=0
EndChar

StartChar: Adieresis
Encoding: 196 196 134
Width: 657
GlyphClass: 2
Flags: W
LayerCount: 2
Fore
SplineSet
350 1012 m 0,0,1
 350 992 350 992 339 951 c 1,2,3
 302 928 302 928 271.5 928 c 128,-1,4
 241 928 241 928 228.5 939 c 128,-1,5
 216 950 216 950 216 974 c 128,-1,6
 216 998 216 998 223 1032 c 1,7,8
 260 1055 260 1055 292 1055 c 0,9,10
 350 1055 350 1055 350 1012 c 0,0,1
584 1012 m 0,11,12
 584 987 584 987 573 951 c 1,13,14
 536 928 536 928 505.5 928 c 128,-1,15
 475 928 475 928 462.5 939 c 128,-1,16
 450 950 450 950 450 970 c 128,-1,17
 450 990 450 990 457 1032 c 1,18,19
 495 1055 495 1055 526 1055 c 0,20,21
 584 1055 584 1055 584 1012 c 0,11,12
667 29 m 1,22,23
 651 -7 651 -7 603 -7 c 128,-1,24
 555 -7 555 -7 526.5 18 c 128,-1,25
 498 43 498 43 480.5 101 c 128,-1,26
 463 159 463 159 451 255 c 1,27,-1
 158 255 l 1,28,29
 107 140 107 140 107 77 c 0,30,31
 107 48 107 48 119 29 c 1,32,33
 95 -7 95 -7 50 -7 c 128,-1,34
 5 -7 5 -7 5 43 c 0,35,36
 5 71 5 71 22.5 125.5 c 128,-1,37
 40 180 40 180 151 410.5 c 128,-1,38
 262 641 262 641 289.5 723.5 c 128,-1,39
 317 806 317 806 317 830 c 128,-1,40
 317 854 317 854 314 866 c 1,41,42
 347 889 347 889 386 889 c 128,-1,43
 425 889 425 889 448.5 869.5 c 128,-1,44
 472 850 472 850 489.5 794 c 128,-1,45
 507 738 507 738 529.5 497 c 128,-1,46
 552 256 552 256 581 156 c 0,47,48
 602 82 602 82 667 29 c 1,22,23
386 737 m 1,49,50
 363 683 363 683 291 537 c 128,-1,51
 219 391 219 391 188 323 c 1,52,-1
 444 323 l 1,53,54
 439 386 439 386 427.5 487.5 c 128,-1,55
 416 589 416 589 412 616 c 0,56,57
 400 687 400 687 386 737 c 1,49,50
EndSplineSet
Position2: "'cpsp' Capital Spacing in Latin lookup 0 subtable" dx=0 dy=0 dh=20 dv=0
EndChar

StartChar: Aring
Encoding: 197 197 135
Width: 657
GlyphClass: 2
Flags: W
LayerCount: 2
Fore
SplineSet
434 1145 m 0,0,1
 454 1145 454 1145 474.5 1135 c 128,-1,2
 495 1125 495 1125 508 1114 c 1,3,4
 537 1086 537 1086 537 1029.5 c 128,-1,5
 537 973 537 973 505 933 c 128,-1,6
 473 893 473 893 427 882 c 1,7,8
 466 869 466 869 490 793 c 0,9,10
 507 739 507 739 529 498 c 128,-1,11
 551 257 551 257 581 156 c 0,12,13
 602 82 602 82 667 29 c 1,14,15
 651 -7 651 -7 603 -7 c 128,-1,16
 555 -7 555 -7 526.5 18 c 128,-1,17
 498 43 498 43 480.5 101 c 128,-1,18
 463 159 463 159 451 255 c 1,19,-1
 158 255 l 1,20,21
 107 140 107 140 107 77 c 0,22,23
 107 48 107 48 119 29 c 1,24,25
 95 -7 95 -7 50 -7 c 128,-1,26
 5 -7 5 -7 5 43 c 0,27,28
 5 71 5 71 22.5 125.5 c 128,-1,29
 40 180 40 180 151 410.5 c 128,-1,30
 262 641 262 641 289.5 723.5 c 128,-1,31
 317 806 317 806 317 830 c 128,-1,32
 317 854 317 854 314 866 c 1,33,34
 336 881 336 881 361 887 c 1,35,36
 294 913 294 913 294 993 c 0,37,38
 294 1061 294 1061 337 1103 c 128,-1,39
 380 1145 380 1145 434 1145 c 0,0,1
386 737 m 1,40,41
 363 683 363 683 291 537 c 128,-1,42
 219 391 219 391 188 323 c 1,43,-1
 444 323 l 1,44,45
 439 386 439 386 427.5 487.5 c 128,-1,46
 416 589 416 589 412 616 c 0,47,48
 400 687 400 687 386 737 c 1,40,41
419 1099 m 0,49,50
 392 1099 392 1099 379.5 1063.5 c 128,-1,51
 367 1028 367 1028 367 990 c 0,52,53
 367 926 367 926 409 926 c 0,54,55
 436 926 436 926 448.5 961.5 c 128,-1,56
 461 997 461 997 461 1034 c 0,57,58
 461 1099 461 1099 419 1099 c 0,49,50
EndSplineSet
Position2: "'cpsp' Capital Spacing in Latin lookup 0 subtable" dx=0 dy=0 dh=20 dv=0
EndChar

StartChar: AE
Encoding: 198 198 136
Width: 874
GlyphClass: 2
Flags: W
LayerCount: 2
Fore
SplineSet
530 867 m 1,0,-1
 755 865 l 1,1,2
 875 865 875 865 915 884 c 1,3,4
 910 819 910 819 883.5 797.5 c 128,-1,5
 857 776 857 776 800 776 c 0,6,7
 706 776 706 776 565 798 c 1,8,9
 565 724 565 724 528 508 c 0,10,11
 517 443 517 443 514 422 c 1,12,13
 705 428 705 428 779 466 c 1,14,15
 773 388 773 388 734 368 c 0,16,17
 713 358 713 358 694 355.5 c 128,-1,18
 675 353 675 353 641 353 c 2,19,-1
 503 353 l 1,20,21
 480 194 480 194 480 112 c 0,22,23
 480 101 480 101 482 83 c 1,24,25
 562 79 562 79 619 79 c 0,26,27
 808 79 808 79 857 105 c 1,28,29
 854 65 854 65 843.5 41 c 128,-1,30
 833 17 833 17 809 6 c 128,-1,31
 785 -5 785 -5 762.5 -7.5 c 128,-1,32
 740 -10 740 -10 690 -10 c 128,-1,33
 640 -10 640 -10 495 11 c 1,34,35
 466 -8 466 -8 440 -8 c 0,36,37
 368 -8 368 -8 368 89 c 0,38,39
 368 155 368 155 402 353 c 1,40,-1
 182 353 l 1,41,42
 56 146 56 146 56 64 c 0,43,44
 56 44 56 44 63 29 c 1,45,46
 37 -7 37 -7 -8 -7 c 0,47,48
 -28 -7 -28 -7 -38.5 5 c 128,-1,49
 -49 17 -49 17 -49 49 c 0,50,51
 -49 112 -49 112 20 229.5 c 128,-1,52
 89 347 89 347 182 487 c 128,-1,53
 275 627 275 627 309.5 707 c 128,-1,54
 344 787 344 787 344 836 c 1,55,56
 390 867 390 867 530 867 c 1,0,-1
452 741 m 0,57,58
 452 786 452 786 443 810 c 1,59,60
 435 758 435 758 364 642 c 0,61,62
 320 571 320 571 279 507.5 c 128,-1,63
 238 444 238 444 224 421 c 1,64,-1
 414 421 l 1,65,66
 452 638 452 638 452 741 c 0,57,58
EndSplineSet
Position2: "'cpsp' Capital Spacing in Latin lookup 0 subtable" dx=0 dy=0 dh=20 dv=0
EndChar

StartChar: Ccedilla
Encoding: 199 199 137
Width: 608
GlyphClass: 2
Flags: W
LayerCount: 2
Fore
SplineSet
365 -21 m 1,0,-1
 351 -20 l 1,1,-1
 332 -69 l 1,2,3
 397 -76 397 -76 424 -95 c 128,-1,4
 451 -114 451 -114 451 -156 c 128,-1,5
 451 -198 451 -198 415 -235 c 128,-1,6
 379 -272 379 -272 304 -272 c 0,7,8
 265 -272 265 -272 240.5 -255 c 128,-1,9
 216 -238 216 -238 216 -216 c 0,10,11
 216 -191 216 -191 267 -172 c 1,12,13
 269 -194 269 -194 282.5 -208.5 c 128,-1,14
 296 -223 296 -223 319 -223 c 128,-1,15
 342 -223 342 -223 358 -203 c 128,-1,16
 374 -183 374 -183 374 -158 c 0,17,18
 374 -119 374 -119 334 -113 c 2,19,-1
 282 -105 l 2,20,21
 269 -103 269 -103 269 -97 c 128,-1,22
 269 -91 269 -91 300 -15 c 1,23,24
 188 6 188 6 133 101 c 128,-1,25
 78 196 78 196 78 336 c 0,26,27
 78 498 78 498 140 638 c 0,28,29
 208 792 208 792 326 854 c 0,30,31
 389 887 389 887 460 887 c 128,-1,32
 531 887 531 887 574.5 862.5 c 128,-1,33
 618 838 618 838 618 793 c 0,34,35
 618 768 618 768 608.5 746.5 c 128,-1,36
 599 725 599 725 591 716 c 128,-1,37
 583 707 583 707 567 693 c 1,38,39
 542 750 542 750 505.5 780 c 128,-1,40
 469 810 469 810 414 810 c 128,-1,41
 359 810 359 810 317.5 777 c 128,-1,42
 276 744 276 744 252.5 695 c 128,-1,43
 229 646 229 646 213 585 c 0,44,45
 186 482 186 482 186 382 c 0,46,47
 186 221 186 221 238 135 c 128,-1,48
 290 49 290 49 393 49 c 0,49,50
 449 49 449 49 492.5 84 c 128,-1,51
 536 119 536 119 559 186 c 1,52,53
 584 158 584 158 584 117 c 0,54,55
 584 65 584 65 516.5 22 c 128,-1,56
 449 -21 449 -21 365 -21 c 1,0,-1
EndSplineSet
Position2: "'cpsp' Capital Spacing in Latin lookup 0 subtable" dx=0 dy=0 dh=20 dv=0
EndChar

StartChar: Egrave
Encoding: 200 200 138
Width: 602
GlyphClass: 2
Flags: W
LayerCount: 2
Fore
SplineSet
321 867 m 1,0,-1
 483 865 l 1,1,2
 603 865 603 865 643 884 c 1,3,4
 638 819 638 819 611.5 797.5 c 128,-1,5
 585 776 585 776 528 776 c 0,6,7
 434 776 434 776 293 798 c 1,8,9
 293 731 293 731 251 479 c 1,10,11
 447 481 447 481 507 512 c 1,12,13
 501 433 501 433 462 414 c 0,14,15
 441 403 441 403 422 400.5 c 128,-1,16
 403 398 403 398 376 398 c 128,-1,17
 349 398 349 398 239 407 c 1,18,19
 208 208 208 208 208 112 c 0,20,21
 208 92 208 92 209 83 c 1,22,23
 291 79 291 79 347 79 c 0,24,25
 536 79 536 79 585 105 c 1,26,27
 582 65 582 65 571.5 41 c 128,-1,28
 561 17 561 17 537 6 c 128,-1,29
 513 -5 513 -5 490.5 -7.5 c 128,-1,30
 468 -10 468 -10 418.5 -10 c 128,-1,31
 369 -10 369 -10 222 11 c 1,32,33
 195 -8 195 -8 168 -8 c 0,34,35
 96 -8 96 -8 96 89 c 0,36,37
 96 152 96 152 141 412 c 1,38,39
 125 413 125 413 90 413 c 1,40,41
 95 450 95 450 106 462.5 c 128,-1,42
 117 475 117 475 152 478 c 1,43,44
 180 655 180 655 180 724.5 c 128,-1,45
 180 794 180 794 165 839 c 1,46,47
 200 867 200 867 321 867 c 1,0,-1
285.5 1044 m 128,-1,49
 279 1051 279 1051 279 1061.5 c 128,-1,50
 279 1072 279 1072 292.5 1080.5 c 128,-1,51
 306 1089 306 1089 332.5 1089 c 128,-1,52
 359 1089 359 1089 383 1084 c 1,53,54
 396 1061 396 1061 429.5 1030.5 c 128,-1,55
 463 1000 463 1000 544 939 c 1,56,57
 528 911 528 911 515 911 c 128,-1,58
 502 911 502 911 435.5 947 c 128,-1,59
 369 983 369 983 330.5 1010 c 128,-1,48
 292 1037 292 1037 285.5 1044 c 128,-1,49
EndSplineSet
Position2: "'cpsp' Capital Spacing in Latin lookup 0 subtable" dx=0 dy=0 dh=20 dv=0
EndChar

StartChar: Eacute
Encoding: 201 201 139
Width: 602
GlyphClass: 2
Flags: W
LayerCount: 2
Fore
SplineSet
321 867 m 1,0,-1
 483 865 l 1,1,2
 603 865 603 865 643 884 c 1,3,4
 638 819 638 819 611.5 797.5 c 128,-1,5
 585 776 585 776 528 776 c 0,6,7
 434 776 434 776 293 798 c 1,8,9
 293 731 293 731 251 479 c 1,10,11
 447 481 447 481 507 512 c 1,12,13
 501 433 501 433 462 414 c 0,14,15
 441 403 441 403 422 400.5 c 128,-1,16
 403 398 403 398 376 398 c 128,-1,17
 349 398 349 398 239 407 c 1,18,19
 208 208 208 208 208 112 c 0,20,21
 208 92 208 92 209 83 c 1,22,23
 291 79 291 79 347 79 c 0,24,25
 536 79 536 79 585 105 c 1,26,27
 582 65 582 65 571.5 41 c 128,-1,28
 561 17 561 17 537 6 c 128,-1,29
 513 -5 513 -5 490.5 -7.5 c 128,-1,30
 468 -10 468 -10 418.5 -10 c 128,-1,31
 369 -10 369 -10 222 11 c 1,32,33
 195 -8 195 -8 168 -8 c 0,34,35
 96 -8 96 -8 96 89 c 0,36,37
 96 152 96 152 141 412 c 1,38,39
 125 413 125 413 90 413 c 1,40,41
 95 450 95 450 106 462.5 c 128,-1,42
 117 475 117 475 152 478 c 1,43,44
 180 655 180 655 180 724.5 c 128,-1,45
 180 794 180 794 165 839 c 1,46,47
 200 867 200 867 321 867 c 1,0,-1
306 911 m 0,48,49
 293 911 293 911 279 939 c 1,50,51
 359 999 359 999 392.5 1029.5 c 128,-1,52
 426 1060 426 1060 439 1084 c 1,53,54
 463 1089 463 1089 489.5 1089 c 128,-1,55
 516 1089 516 1089 529.5 1080.5 c 128,-1,56
 543 1072 543 1072 543 1061.5 c 128,-1,57
 543 1051 543 1051 536.5 1044 c 128,-1,58
 530 1037 530 1037 491.5 1009.5 c 128,-1,59
 453 982 453 982 387 946.5 c 128,-1,60
 321 911 321 911 306 911 c 0,48,49
EndSplineSet
Position2: "'cpsp' Capital Spacing in Latin lookup 0 subtable" dx=0 dy=0 dh=20 dv=0
EndChar

StartChar: Ecircumflex
Encoding: 202 202 140
Width: 602
GlyphClass: 2
Flags: W
LayerCount: 2
Fore
SplineSet
321 867 m 1,0,-1
 483 865 l 1,1,2
 603 865 603 865 643 884 c 1,3,4
 638 819 638 819 611.5 797.5 c 128,-1,5
 585 776 585 776 528 776 c 0,6,7
 434 776 434 776 293 798 c 1,8,9
 293 731 293 731 251 479 c 1,10,11
 447 481 447 481 507 512 c 1,12,13
 501 433 501 433 462 414 c 0,14,15
 441 403 441 403 422 400.5 c 128,-1,16
 403 398 403 398 376 398 c 128,-1,17
 349 398 349 398 239 407 c 1,18,19
 208 208 208 208 208 112 c 0,20,21
 208 92 208 92 209 83 c 1,22,23
 291 79 291 79 347 79 c 0,24,25
 536 79 536 79 585 105 c 1,26,27
 582 65 582 65 571.5 41 c 128,-1,28
 561 17 561 17 537 6 c 128,-1,29
 513 -5 513 -5 490.5 -7.5 c 128,-1,30
 468 -10 468 -10 418.5 -10 c 128,-1,31
 369 -10 369 -10 222 11 c 1,32,33
 195 -8 195 -8 168 -8 c 0,34,35
 96 -8 96 -8 96 89 c 0,36,37
 96 152 96 152 141 412 c 1,38,39
 125 413 125 413 90 413 c 1,40,41
 95 450 95 450 106 462.5 c 128,-1,42
 117 475 117 475 152 478 c 1,43,44
 180 655 180 655 180 724.5 c 128,-1,45
 180 794 180 794 165 839 c 1,46,47
 200 867 200 867 321 867 c 1,0,-1
544 911 m 0,48,49
 522 911 522 911 408 1002 c 1,50,51
 277 911 277 911 249 911 c 0,52,53
 238 911 238 911 222 939 c 1,54,55
 315 1009 315 1009 346 1050 c 0,56,57
 357 1064 357 1064 368 1084 c 1,58,59
 385 1089 385 1089 416 1089 c 128,-1,60
 447 1089 447 1089 462 1078 c 0,61,62
 463 1077 463 1077 470.5 1065 c 128,-1,63
 478 1053 478 1053 486.5 1040.5 c 128,-1,64
 495 1028 495 1028 508 1012 c 1,65,66
 541 967 541 967 571 939 c 1,67,68
 557 911 557 911 544 911 c 0,48,49
EndSplineSet
Position2: "'cpsp' Capital Spacing in Latin lookup 0 subtable" dx=0 dy=0 dh=20 dv=0
EndChar

StartChar: Edieresis
Encoding: 203 203 141
Width: 602
GlyphClass: 2
Flags: W
LayerCount: 2
Fore
SplineSet
321 867 m 1,0,-1
 483 865 l 1,1,2
 603 865 603 865 643 884 c 1,3,4
 638 819 638 819 611.5 797.5 c 128,-1,5
 585 776 585 776 528 776 c 0,6,7
 434 776 434 776 293 798 c 1,8,9
 293 731 293 731 251 479 c 1,10,11
 447 481 447 481 507 512 c 1,12,13
 501 433 501 433 462 414 c 0,14,15
 441 403 441 403 422 400.5 c 128,-1,16
 403 398 403 398 376 398 c 128,-1,17
 349 398 349 398 239 407 c 1,18,19
 208 208 208 208 208 112 c 0,20,21
 208 92 208 92 209 83 c 1,22,23
 291 79 291 79 347 79 c 0,24,25
 536 79 536 79 585 105 c 1,26,27
 582 65 582 65 571.5 41 c 128,-1,28
 561 17 561 17 537 6 c 128,-1,29
 513 -5 513 -5 490.5 -7.5 c 128,-1,30
 468 -10 468 -10 418.5 -10 c 128,-1,31
 369 -10 369 -10 222 11 c 1,32,33
 195 -8 195 -8 168 -8 c 0,34,35
 96 -8 96 -8 96 89 c 0,36,37
 96 152 96 152 141 412 c 1,38,39
 125 413 125 413 90 413 c 1,40,41
 95 450 95 450 106 462.5 c 128,-1,42
 117 475 117 475 152 478 c 1,43,44
 180 655 180 655 180 724.5 c 128,-1,45
 180 794 180 794 165 839 c 1,46,47
 200 867 200 867 321 867 c 1,0,-1
373 1012 m 0,48,49
 373 992 373 992 362 951 c 1,50,51
 325 928 325 928 294.5 928 c 128,-1,52
 264 928 264 928 251.5 939 c 128,-1,53
 239 950 239 950 239 974 c 128,-1,54
 239 998 239 998 246 1032 c 1,55,56
 283 1055 283 1055 315 1055 c 0,57,58
 373 1055 373 1055 373 1012 c 0,48,49
607 1012 m 0,59,60
 607 987 607 987 596 951 c 1,61,62
 559 928 559 928 528.5 928 c 128,-1,63
 498 928 498 928 485.5 939 c 128,-1,64
 473 950 473 950 473 970 c 128,-1,65
 473 990 473 990 480 1032 c 1,66,67
 518 1055 518 1055 549 1055 c 0,68,69
 607 1055 607 1055 607 1012 c 0,59,60
EndSplineSet
Position2: "'cpsp' Capital Spacing in Latin lookup 0 subtable" dx=0 dy=0 dh=20 dv=0
EndChar

StartChar: Igrave
Encoding: 204 204 142
Width: 332
GlyphClass: 2
Flags: W
LayerCount: 2
Fore
SplineSet
245.5 498.5 m 128,-1,1
 207 267 207 267 207 168.5 c 128,-1,2
 207 70 207 70 245 29 c 1,3,4
 214 -7 214 -7 176 -7 c 0,5,6
 98 -7 98 -7 98 125 c 0,7,8
 98 180 98 180 133.5 410.5 c 128,-1,9
 169 641 169 641 169 732.5 c 128,-1,10
 169 824 169 824 148 866 c 1,11,12
 175 889 175 889 212.5 889 c 128,-1,13
 250 889 250 889 267 864.5 c 128,-1,14
 284 840 284 840 284 785 c 128,-1,0
 284 730 284 730 245.5 498.5 c 128,-1,1
97.5 1044 m 128,-1,16
 91 1051 91 1051 91 1061.5 c 128,-1,17
 91 1072 91 1072 104.5 1080.5 c 128,-1,18
 118 1089 118 1089 144.5 1089 c 128,-1,19
 171 1089 171 1089 195 1084 c 1,20,21
 208 1061 208 1061 241.5 1030.5 c 128,-1,22
 275 1000 275 1000 356 939 c 1,23,24
 340 911 340 911 327 911 c 128,-1,25
 314 911 314 911 247.5 947 c 128,-1,26
 181 983 181 983 142.5 1010 c 128,-1,15
 104 1037 104 1037 97.5 1044 c 128,-1,16
EndSplineSet
Position2: "'cpsp' Capital Spacing in Latin lookup 0 subtable" dx=0 dy=0 dh=20 dv=0
EndChar

StartChar: Iacute
Encoding: 205 205 143
Width: 332
GlyphClass: 2
Flags: W
LayerCount: 2
Fore
SplineSet
245.5 498.5 m 128,-1,1
 207 267 207 267 207 168.5 c 128,-1,2
 207 70 207 70 245 29 c 1,3,4
 214 -7 214 -7 176 -7 c 0,5,6
 98 -7 98 -7 98 125 c 0,7,8
 98 180 98 180 133.5 410.5 c 128,-1,9
 169 641 169 641 169 732.5 c 128,-1,10
 169 824 169 824 148 866 c 1,11,12
 175 889 175 889 212.5 889 c 128,-1,13
 250 889 250 889 267 864.5 c 128,-1,14
 284 840 284 840 284 785 c 128,-1,0
 284 730 284 730 245.5 498.5 c 128,-1,1
116 911 m 0,15,16
 103 911 103 911 89 939 c 1,17,18
 169 999 169 999 202.5 1029.5 c 128,-1,19
 236 1060 236 1060 249 1084 c 1,20,21
 273 1089 273 1089 299.5 1089 c 128,-1,22
 326 1089 326 1089 339.5 1080.5 c 128,-1,23
 353 1072 353 1072 353 1061.5 c 128,-1,24
 353 1051 353 1051 346.5 1044 c 128,-1,25
 340 1037 340 1037 301.5 1009.5 c 128,-1,26
 263 982 263 982 197 946.5 c 128,-1,27
 131 911 131 911 116 911 c 0,15,16
EndSplineSet
Position2: "'cpsp' Capital Spacing in Latin lookup 0 subtable" dx=0 dy=0 dh=20 dv=0
EndChar

StartChar: Icircumflex
Encoding: 206 206 144
Width: 332
GlyphClass: 2
Flags: W
LayerCount: 2
Fore
SplineSet
245.5 498.5 m 128,-1,1
 207 267 207 267 207 168.5 c 128,-1,2
 207 70 207 70 245 29 c 1,3,4
 214 -7 214 -7 176 -7 c 0,5,6
 98 -7 98 -7 98 125 c 0,7,8
 98 180 98 180 133.5 410.5 c 128,-1,9
 169 641 169 641 169 732.5 c 128,-1,10
 169 824 169 824 148 866 c 1,11,12
 175 889 175 889 212.5 889 c 128,-1,13
 250 889 250 889 267 864.5 c 128,-1,14
 284 840 284 840 284 785 c 128,-1,0
 284 730 284 730 245.5 498.5 c 128,-1,1
357 911 m 0,15,16
 335 911 335 911 221 1002 c 1,17,18
 90 911 90 911 62 911 c 0,19,20
 51 911 51 911 35 939 c 1,21,22
 128 1009 128 1009 160 1050 c 0,23,24
 170 1064 170 1064 181 1084 c 1,25,26
 198 1089 198 1089 229 1089 c 128,-1,27
 260 1089 260 1089 275 1078 c 0,28,29
 276 1077 276 1077 283.5 1065 c 128,-1,30
 291 1053 291 1053 299.5 1040.5 c 128,-1,31
 308 1028 308 1028 320 1012 c 0,32,33
 354 967 354 967 384 939 c 1,34,35
 370 911 370 911 357 911 c 0,15,16
EndSplineSet
Position2: "'cpsp' Capital Spacing in Latin lookup 0 subtable" dx=0 dy=0 dh=20 dv=0
EndChar

StartChar: Idieresis
Encoding: 207 207 145
Width: 332
GlyphClass: 2
Flags: W
LayerCount: 2
Fore
SplineSet
199 1012 m 0,0,1
 199 992 199 992 188 951 c 1,2,3
 151 928 151 928 120.5 928 c 128,-1,4
 90 928 90 928 77.5 939 c 128,-1,5
 65 950 65 950 65 974 c 128,-1,6
 65 998 65 998 72 1032 c 1,7,8
 109 1055 109 1055 141 1055 c 0,9,10
 199 1055 199 1055 199 1012 c 0,0,1
433 1012 m 0,11,12
 433 987 433 987 422 951 c 1,13,14
 385 928 385 928 354.5 928 c 128,-1,15
 324 928 324 928 311.5 939 c 128,-1,16
 299 950 299 950 299 970 c 128,-1,17
 299 990 299 990 306 1032 c 1,18,19
 344 1055 344 1055 375 1055 c 0,20,21
 433 1055 433 1055 433 1012 c 0,11,12
245.5 498.5 m 128,-1,23
 207 267 207 267 207 168.5 c 128,-1,24
 207 70 207 70 245 29 c 1,25,26
 214 -7 214 -7 176 -7 c 0,27,28
 98 -7 98 -7 98 125 c 0,29,30
 98 180 98 180 133.5 410.5 c 128,-1,31
 169 641 169 641 169 732.5 c 128,-1,32
 169 824 169 824 148 866 c 1,33,34
 175 889 175 889 212.5 889 c 128,-1,35
 250 889 250 889 267 864.5 c 128,-1,36
 284 840 284 840 284 785 c 128,-1,22
 284 730 284 730 245.5 498.5 c 128,-1,23
EndSplineSet
Position2: "'cpsp' Capital Spacing in Latin lookup 0 subtable" dx=0 dy=0 dh=20 dv=0
EndChar

StartChar: Eth
Encoding: 208 208 146
Width: 730
GlyphClass: 2
Flags: W
LayerCount: 2
Fore
SplineSet
63 376 m 1,0,1
 44 406 44 406 44 432 c 0,2,3
 44 478 44 478 100 478 c 0,4,5
 105 478 105 478 145 476 c 1,6,7
 174 671 174 671 174 740 c 128,-1,8
 174 809 174 809 159 854 c 1,9,10
 278 880 278 880 373 880 c 0,11,12
 528 880 528 880 609.5 806.5 c 128,-1,13
 691 733 691 733 691 569 c 128,-1,14
 691 405 691 405 642 276 c 128,-1,15
 593 147 593 147 498.5 68 c 128,-1,16
 404 -11 404 -11 283 -11 c 0,17,18
 184 -11 184 -11 141 19 c 128,-1,19
 98 49 98 49 98 117 c 128,-1,20
 98 185 98 185 132 393 c 1,21,22
 85 389 85 389 63 376 c 1,0,1
229 393 m 1,23,24
 207 247 207 247 207 181 c 128,-1,25
 207 115 207 115 215 85 c 1,26,27
 257 59 257 59 320.5 59 c 128,-1,28
 384 59 384 59 440 103.5 c 128,-1,29
 496 148 496 148 526 218 c 0,30,31
 586 358 586 358 586 521 c 128,-1,32
 586 684 586 684 537 751.5 c 128,-1,33
 488 819 488 819 364 819 c 0,34,35
 326 819 326 819 288 812 c 1,36,37
 288 761 288 761 240 469 c 1,38,39
 294 467 294 467 314 467 c 128,-1,40
 334 467 334 467 376 473 c 128,-1,41
 418 479 418 479 433 488 c 1,42,43
 448 469 448 469 448 442 c 0,44,45
 448 391 448 391 342 391 c 0,46,47
 317 391 317 391 229 393 c 1,23,24
EndSplineSet
Position2: "'cpsp' Capital Spacing in Latin lookup 0 subtable" dx=0 dy=0 dh=20 dv=0
EndChar

StartChar: Ntilde
Encoding: 209 209 147
Width: 769
GlyphClass: 2
Flags: W
LayerCount: 2
Fore
SplineSet
682.5 498.5 m 128,-1,1
 644 267 644 267 644 170.5 c 128,-1,2
 644 74 644 74 685 29 c 1,3,4
 671 -7 671 -7 623 -7 c 128,-1,5
 575 -7 575 -7 542 18.5 c 128,-1,6
 509 44 509 44 476.5 107 c 128,-1,7
 444 170 444 170 372 394 c 128,-1,8
 300 618 300 618 259 707 c 1,9,10
 258 698 258 698 222.5 478.5 c 128,-1,11
 187 259 187 259 187 165.5 c 128,-1,12
 187 72 187 72 226 29 c 1,13,14
 212 -7 212 -7 171 -7 c 0,15,16
 98 -7 98 -7 98 125 c 0,17,18
 98 180 98 180 133.5 410.5 c 128,-1,19
 169 641 169 641 169 732.5 c 128,-1,20
 169 824 169 824 148 866 c 1,21,22
 153 875 153 875 172 882 c 128,-1,23
 191 889 191 889 224 889 c 128,-1,24
 257 889 257 889 284 869 c 128,-1,25
 311 849 311 849 339.5 794 c 128,-1,26
 368 739 368 739 439.5 509.5 c 128,-1,27
 511 280 511 280 558 180 c 1,28,29
 562 219 562 219 594 432.5 c 128,-1,30
 626 646 626 646 626 735 c 128,-1,31
 626 824 626 824 605 866 c 1,32,33
 613 875 613 875 632.5 882 c 128,-1,34
 652 889 652 889 665 889 c 0,35,36
 694 889 694 889 707.5 865 c 128,-1,37
 721 841 721 841 721 785.5 c 128,-1,0
 721 730 721 730 682.5 498.5 c 128,-1,1
637 1042 m 0,38,39
 637 999 637 999 608 963 c 128,-1,40
 579 927 579 927 542.5 927 c 128,-1,41
 506 927 506 927 480.5 943.5 c 128,-1,42
 455 960 455 960 435 976.5 c 128,-1,43
 415 993 415 993 396 993 c 128,-1,44
 377 993 377 993 363 976 c 128,-1,45
 349 959 349 959 344 926 c 1,46,47
 300 926 300 926 300 958 c 0,48,49
 300 1001 300 1001 329 1037 c 128,-1,50
 358 1073 358 1073 394.5 1073 c 128,-1,51
 431 1073 431 1073 456.5 1056.5 c 128,-1,52
 482 1040 482 1040 502 1023.5 c 128,-1,53
 522 1007 522 1007 541 1007 c 128,-1,54
 560 1007 560 1007 574 1024 c 128,-1,55
 588 1041 588 1041 593 1074 c 1,56,57
 637 1074 637 1074 637 1042 c 0,38,39
EndSplineSet
Position2: "'cpsp' Capital Spacing in Latin lookup 0 subtable" dx=0 dy=0 dh=20 dv=0
EndChar

StartChar: Ograve
Encoding: 210 210 148
Width: 782
GlyphClass: 2
Flags: W
LayerCount: 2
Fore
SplineSet
630 487 m 0,0,1
 630 644 630 644 571.5 727 c 128,-1,2
 513 810 513 810 411 810 c 0,3,4
 359 810 359 810 318 776.5 c 128,-1,5
 277 743 277 743 253 694.5 c 128,-1,6
 229 646 229 646 213 584 c 0,7,8
 186 481 186 481 186 380 c 0,9,10
 186 223 186 223 244.5 140 c 128,-1,11
 303 57 303 57 405 57 c 0,12,13
 457 57 457 57 498 90.5 c 128,-1,14
 539 124 539 124 563 172.5 c 128,-1,15
 587 221 587 221 603 282 c 0,16,17
 630 386 630 386 630 487 c 0,0,1
344 -21 m 0,18,19
 219 -21 219 -21 148.5 80 c 128,-1,20
 78 181 78 181 78 336 c 0,21,22
 78 536 78 536 176 706 c 0,23,24
 223 787 223 787 300.5 838 c 128,-1,25
 378 889 378 889 472 889 c 0,26,27
 597 889 597 889 667.5 787.5 c 128,-1,28
 738 686 738 686 738 531 c 0,29,30
 738 370 738 370 674 229 c 0,31,32
 604 73 604 73 486 12 c 0,33,34
 420 -21 420 -21 344 -21 c 0,18,19
350.5 1044 m 128,-1,36
 344 1051 344 1051 344 1061.5 c 128,-1,37
 344 1072 344 1072 357.5 1080.5 c 128,-1,38
 371 1089 371 1089 397.5 1089 c 128,-1,39
 424 1089 424 1089 448 1084 c 1,40,41
 461 1061 461 1061 494.5 1030.5 c 128,-1,42
 528 1000 528 1000 609 939 c 1,43,44
 593 911 593 911 580 911 c 128,-1,45
 567 911 567 911 500.5 947 c 128,-1,46
 434 983 434 983 395.5 1010 c 128,-1,35
 357 1037 357 1037 350.5 1044 c 128,-1,36
EndSplineSet
Position2: "'cpsp' Capital Spacing in Latin lookup 0 subtable" dx=0 dy=0 dh=20 dv=0
EndChar

StartChar: Oacute
Encoding: 211 211 149
Width: 782
GlyphClass: 2
Flags: W
LayerCount: 2
Fore
SplineSet
630 487 m 0,0,1
 630 644 630 644 571.5 727 c 128,-1,2
 513 810 513 810 411 810 c 0,3,4
 359 810 359 810 318 776.5 c 128,-1,5
 277 743 277 743 253 694.5 c 128,-1,6
 229 646 229 646 213 584 c 0,7,8
 186 481 186 481 186 380 c 0,9,10
 186 223 186 223 244.5 140 c 128,-1,11
 303 57 303 57 405 57 c 0,12,13
 457 57 457 57 498 90.5 c 128,-1,14
 539 124 539 124 563 172.5 c 128,-1,15
 587 221 587 221 603 282 c 0,16,17
 630 386 630 386 630 487 c 0,0,1
344 -21 m 0,18,19
 219 -21 219 -21 148.5 80 c 128,-1,20
 78 181 78 181 78 336 c 0,21,22
 78 536 78 536 176 706 c 0,23,24
 223 787 223 787 300.5 838 c 128,-1,25
 378 889 378 889 472 889 c 0,26,27
 597 889 597 889 667.5 787.5 c 128,-1,28
 738 686 738 686 738 531 c 0,29,30
 738 370 738 370 674 229 c 0,31,32
 604 73 604 73 486 12 c 0,33,34
 420 -21 420 -21 344 -21 c 0,18,19
367 911 m 0,35,36
 354 911 354 911 340 939 c 1,37,38
 420 999 420 999 453.5 1029.5 c 128,-1,39
 487 1060 487 1060 500 1084 c 1,40,41
 524 1089 524 1089 550.5 1089 c 128,-1,42
 577 1089 577 1089 590.5 1080.5 c 128,-1,43
 604 1072 604 1072 604 1061.5 c 128,-1,44
 604 1051 604 1051 597.5 1044 c 128,-1,45
 591 1037 591 1037 552.5 1009.5 c 128,-1,46
 514 982 514 982 448 946.5 c 128,-1,47
 382 911 382 911 367 911 c 0,35,36
EndSplineSet
Position2: "'cpsp' Capital Spacing in Latin lookup 0 subtable" dx=0 dy=0 dh=20 dv=0
EndChar

StartChar: Ocircumflex
Encoding: 212 212 150
Width: 782
GlyphClass: 2
Flags: W
LayerCount: 2
Fore
SplineSet
630 487 m 0,0,1
 630 644 630 644 571.5 727 c 128,-1,2
 513 810 513 810 411 810 c 0,3,4
 359 810 359 810 318 776.5 c 128,-1,5
 277 743 277 743 253 694.5 c 128,-1,6
 229 646 229 646 213 584 c 0,7,8
 186 481 186 481 186 380 c 0,9,10
 186 223 186 223 244.5 140 c 128,-1,11
 303 57 303 57 405 57 c 0,12,13
 457 57 457 57 498 90.5 c 128,-1,14
 539 124 539 124 563 172.5 c 128,-1,15
 587 221 587 221 603 282 c 0,16,17
 630 386 630 386 630 487 c 0,0,1
344 -21 m 0,18,19
 219 -21 219 -21 148.5 80 c 128,-1,20
 78 181 78 181 78 336 c 0,21,22
 78 536 78 536 176 706 c 0,23,24
 223 787 223 787 300.5 838 c 128,-1,25
 378 889 378 889 472 889 c 0,26,27
 597 889 597 889 667.5 787.5 c 128,-1,28
 738 686 738 686 738 531 c 0,29,30
 738 370 738 370 674 229 c 0,31,32
 604 73 604 73 486 12 c 0,33,34
 420 -21 420 -21 344 -21 c 0,18,19
611 911 m 0,35,36
 589 911 589 911 475 1002 c 1,37,38
 344 911 344 911 316 911 c 0,39,40
 305 911 305 911 289 939 c 1,41,42
 383 1009 383 1009 414 1050 c 0,43,44
 424 1064 424 1064 435 1084 c 1,45,46
 452 1089 452 1089 483 1089 c 128,-1,47
 514 1089 514 1089 529 1078 c 0,48,49
 530 1077 530 1077 537.5 1065 c 128,-1,50
 545 1053 545 1053 553.5 1040.5 c 128,-1,51
 562 1028 562 1028 574 1012 c 0,52,53
 608 967 608 967 638 939 c 1,54,55
 624 911 624 911 611 911 c 0,35,36
EndSplineSet
Position2: "'cpsp' Capital Spacing in Latin lookup 0 subtable" dx=0 dy=0 dh=20 dv=0
EndChar

StartChar: Otilde
Encoding: 213 213 151
Width: 782
GlyphClass: 2
Flags: W
LayerCount: 2
Fore
SplineSet
630 487 m 0,0,1
 630 644 630 644 571.5 727 c 128,-1,2
 513 810 513 810 411 810 c 0,3,4
 359 810 359 810 318 776.5 c 128,-1,5
 277 743 277 743 253 694.5 c 128,-1,6
 229 646 229 646 213 584 c 0,7,8
 186 481 186 481 186 380 c 0,9,10
 186 223 186 223 244.5 140 c 128,-1,11
 303 57 303 57 405 57 c 0,12,13
 457 57 457 57 498 90.5 c 128,-1,14
 539 124 539 124 563 172.5 c 128,-1,15
 587 221 587 221 603 282 c 0,16,17
 630 386 630 386 630 487 c 0,0,1
344 -21 m 0,18,19
 219 -21 219 -21 148.5 80 c 128,-1,20
 78 181 78 181 78 336 c 0,21,22
 78 536 78 536 176 706 c 0,23,24
 223 787 223 787 300.5 838 c 128,-1,25
 378 889 378 889 472 889 c 0,26,27
 597 889 597 889 667.5 787.5 c 128,-1,28
 738 686 738 686 738 531 c 0,29,30
 738 370 738 370 674 229 c 0,31,32
 604 73 604 73 486 12 c 0,33,34
 420 -21 420 -21 344 -21 c 0,18,19
643 1042 m 0,35,36
 643 999 643 999 614 963 c 128,-1,37
 585 927 585 927 548.5 927 c 128,-1,38
 512 927 512 927 486.5 943.5 c 128,-1,39
 461 960 461 960 441 976.5 c 128,-1,40
 421 993 421 993 402 993 c 128,-1,41
 383 993 383 993 369 976 c 128,-1,42
 355 959 355 959 350 926 c 1,43,44
 306 926 306 926 306 958 c 0,45,46
 306 1001 306 1001 335 1037 c 128,-1,47
 364 1073 364 1073 400.5 1073 c 128,-1,48
 437 1073 437 1073 462.5 1056.5 c 128,-1,49
 488 1040 488 1040 508 1023.5 c 128,-1,50
 528 1007 528 1007 547 1007 c 128,-1,51
 566 1007 566 1007 580 1024 c 128,-1,52
 594 1041 594 1041 599 1074 c 1,53,54
 643 1074 643 1074 643 1042 c 0,35,36
EndSplineSet
Position2: "'cpsp' Capital Spacing in Latin lookup 0 subtable" dx=0 dy=0 dh=20 dv=0
EndChar

StartChar: Odieresis
Encoding: 214 214 152
Width: 782
GlyphClass: 2
Flags: W
LayerCount: 2
Fore
SplineSet
630 487 m 0,0,1
 630 644 630 644 571.5 727 c 128,-1,2
 513 810 513 810 411 810 c 0,3,4
 359 810 359 810 318 776.5 c 128,-1,5
 277 743 277 743 253 694.5 c 128,-1,6
 229 646 229 646 213 584 c 0,7,8
 186 481 186 481 186 380 c 0,9,10
 186 223 186 223 244.5 140 c 128,-1,11
 303 57 303 57 405 57 c 0,12,13
 457 57 457 57 498 90.5 c 128,-1,14
 539 124 539 124 563 172.5 c 128,-1,15
 587 221 587 221 603 282 c 0,16,17
 630 386 630 386 630 487 c 0,0,1
344 -21 m 0,18,19
 219 -21 219 -21 148.5 80 c 128,-1,20
 78 181 78 181 78 336 c 0,21,22
 78 536 78 536 176 706 c 0,23,24
 223 787 223 787 300.5 838 c 128,-1,25
 378 889 378 889 472 889 c 0,26,27
 597 889 597 889 667.5 787.5 c 128,-1,28
 738 686 738 686 738 531 c 0,29,30
 738 370 738 370 674 229 c 0,31,32
 604 73 604 73 486 12 c 0,33,34
 420 -21 420 -21 344 -21 c 0,18,19
423 1012 m 0,35,36
 423 992 423 992 412 951 c 1,37,38
 375 928 375 928 344.5 928 c 128,-1,39
 314 928 314 928 301.5 939 c 128,-1,40
 289 950 289 950 289 974 c 128,-1,41
 289 998 289 998 296 1032 c 1,42,43
 333 1055 333 1055 365 1055 c 0,44,45
 423 1055 423 1055 423 1012 c 0,35,36
657 1012 m 0,46,47
 657 987 657 987 646 951 c 1,48,49
 609 928 609 928 578.5 928 c 128,-1,50
 548 928 548 928 535.5 939 c 128,-1,51
 523 950 523 950 523 970 c 128,-1,52
 523 990 523 990 530 1032 c 1,53,54
 568 1055 568 1055 599 1055 c 0,55,56
 657 1055 657 1055 657 1012 c 0,46,47
EndSplineSet
Position2: "'cpsp' Capital Spacing in Latin lookup 0 subtable" dx=0 dy=0 dh=20 dv=0
EndChar

StartChar: multiply
Encoding: 215 215 153
Width: 544
GlyphClass: 2
Flags: W
LayerCount: 2
Fore
SplineSet
134 637 m 0,0,1
 178 637 178 637 284 498 c 1,2,3
 386 595 386 595 402 645 c 1,4,5
 425 644 425 644 443 626.5 c 128,-1,6
 461 609 461 609 461 591 c 0,7,8
 461 553 461 553 405 497 c 1,9,-1
 336 430 l 1,10,11
 383 368 383 368 398 353 c 0,12,13
 433 318 433 318 478 314 c 1,14,15
 478 283 478 283 464 258.5 c 128,-1,16
 450 234 450 234 420 234 c 0,17,18
 366 234 366 234 268 364 c 1,19,20
 161 261 161 261 149 222 c 1,21,22
 125 226 125 226 101.5 243 c 128,-1,23
 78 260 78 260 78 283 c 128,-1,24
 78 306 78 306 102 330 c 128,-1,25
 126 354 126 354 216 435 c 1,26,27
 171 494 171 494 138.5 527.5 c 128,-1,28
 106 561 106 561 76 570 c 1,29,30
 77 594 77 594 96.5 615.5 c 128,-1,31
 116 637 116 637 134 637 c 0,0,1
EndSplineSet
EndChar

StartChar: Oslash
Encoding: 216 216 154
Width: 782
GlyphClass: 2
Flags: W
LayerCount: 2
Fore
SplineSet
738 531 m 0,0,1
 738 372 738 372 675 230 c 0,2,3
 606 75 606 75 487 14 c 0,4,5
 422 -20 422 -20 347 -21 c 1,6,7
 326 -79 326 -79 303 -103.5 c 128,-1,8
 280 -128 280 -128 248 -128 c 128,-1,9
 216 -128 216 -128 190 -101 c 1,10,11
 229 -55 229 -55 251 -3 c 1,12,13
 168 31 168 31 123 122.5 c 128,-1,14
 78 214 78 214 78 323.5 c 128,-1,15
 78 433 78 433 103.5 528.5 c 128,-1,16
 129 624 129 624 176 705.5 c 128,-1,17
 223 787 223 787 300.5 838 c 128,-1,18
 378 889 378 889 472 889 c 0,19,20
 483 889 483 889 489 888 c 1,21,22
 526 947 526 947 574 947 c 0,23,24
 592 947 592 947 609 936.5 c 128,-1,25
 626 926 626 926 627 903 c 1,26,27
 600 889 600 889 580 864 c 1,28,29
 656 826 656 826 697 736.5 c 128,-1,30
 738 647 738 647 738 531 c 0,0,1
630 487 m 0,31,32
 630 691 630 691 532 770 c 1,33,34
 488 641 488 641 431.5 357.5 c 128,-1,35
 375 74 375 74 371 59 c 1,36,37
 393 57 393 57 405 57 c 0,38,39
 457 57 457 57 498 90.5 c 128,-1,40
 539 124 539 124 563 172.5 c 128,-1,41
 587 221 587 221 603 282 c 0,42,43
 630 386 630 386 630 487 c 0,31,32
186 380 m 0,44,45
 186 173 186 173 285 96 c 1,46,47
 317 206 317 206 371 470.5 c 128,-1,48
 425 735 425 735 450 806 c 1,49,50
 424 810 424 810 411 810 c 0,51,52
 359 810 359 810 318 776.5 c 128,-1,53
 277 743 277 743 253 694.5 c 128,-1,54
 229 646 229 646 213 584 c 0,55,56
 186 481 186 481 186 380 c 0,44,45
EndSplineSet
EndChar

StartChar: Ugrave
Encoding: 217 217 155
Width: 742
GlyphClass: 2
Flags: W
LayerCount: 2
Fore
SplineSet
252 80 m 0,0,1
 299 80 299 80 388 170.5 c 128,-1,2
 477 261 477 261 537 367 c 1,3,4
 539 380 539 380 548.5 441.5 c 128,-1,5
 558 503 558 503 561 526.5 c 128,-1,6
 564 550 564 550 570 596 c 0,7,8
 580 671 580 671 580 747.5 c 128,-1,9
 580 824 580 824 559 866 c 1,10,11
 569 875 569 875 589.5 882 c 128,-1,12
 610 889 610 889 625 889 c 0,13,14
 660 889 660 889 677 864.5 c 128,-1,15
 694 840 694 840 694 785 c 128,-1,16
 694 730 694 730 655.5 498.5 c 128,-1,17
 617 267 617 267 617 169.5 c 128,-1,18
 617 72 617 72 655 29 c 1,19,20
 624 -7 624 -7 586 -7 c 0,21,22
 508 -7 508 -7 508 125 c 0,23,24
 508 169 508 169 519 243 c 1,25,26
 451 137 451 137 365.5 60.5 c 128,-1,27
 280 -16 280 -16 223 -16 c 0,28,29
 98 -16 98 -16 98 153 c 0,30,31
 98 207 98 207 131.5 424 c 128,-1,32
 165 641 165 641 165 732.5 c 128,-1,33
 165 824 165 824 144 866 c 1,34,35
 171 889 171 889 208.5 889 c 128,-1,36
 246 889 246 889 263 864.5 c 128,-1,37
 280 840 280 840 280 785 c 128,-1,38
 280 730 280 730 241 494.5 c 128,-1,39
 202 259 202 259 202 158 c 0,40,41
 202 80 202 80 252 80 c 0,0,1
282.5 1044 m 128,-1,43
 276 1051 276 1051 276 1061.5 c 128,-1,44
 276 1072 276 1072 289.5 1080.5 c 128,-1,45
 303 1089 303 1089 329.5 1089 c 128,-1,46
 356 1089 356 1089 380 1084 c 1,47,48
 393 1061 393 1061 426.5 1030.5 c 128,-1,49
 460 1000 460 1000 541 939 c 1,50,51
 525 911 525 911 512 911 c 128,-1,52
 499 911 499 911 432.5 947 c 128,-1,53
 366 983 366 983 327.5 1010 c 128,-1,42
 289 1037 289 1037 282.5 1044 c 128,-1,43
EndSplineSet
Position2: "'cpsp' Capital Spacing in Latin lookup 0 subtable" dx=0 dy=0 dh=20 dv=0
EndChar

StartChar: Uacute
Encoding: 218 218 156
Width: 742
GlyphClass: 2
Flags: W
LayerCount: 2
Fore
SplineSet
252 80 m 0,0,1
 299 80 299 80 388 170.5 c 128,-1,2
 477 261 477 261 537 367 c 1,3,4
 539 380 539 380 548.5 441.5 c 128,-1,5
 558 503 558 503 561 526.5 c 128,-1,6
 564 550 564 550 570 596 c 0,7,8
 580 671 580 671 580 747.5 c 128,-1,9
 580 824 580 824 559 866 c 1,10,11
 569 875 569 875 589.5 882 c 128,-1,12
 610 889 610 889 625 889 c 0,13,14
 660 889 660 889 677 864.5 c 128,-1,15
 694 840 694 840 694 785 c 128,-1,16
 694 730 694 730 655.5 498.5 c 128,-1,17
 617 267 617 267 617 169.5 c 128,-1,18
 617 72 617 72 655 29 c 1,19,20
 624 -7 624 -7 586 -7 c 0,21,22
 508 -7 508 -7 508 125 c 0,23,24
 508 169 508 169 519 243 c 1,25,26
 451 137 451 137 365.5 60.5 c 128,-1,27
 280 -16 280 -16 223 -16 c 0,28,29
 98 -16 98 -16 98 153 c 0,30,31
 98 207 98 207 131.5 424 c 128,-1,32
 165 641 165 641 165 732.5 c 128,-1,33
 165 824 165 824 144 866 c 1,34,35
 171 889 171 889 208.5 889 c 128,-1,36
 246 889 246 889 263 864.5 c 128,-1,37
 280 840 280 840 280 785 c 128,-1,38
 280 730 280 730 241 494.5 c 128,-1,39
 202 259 202 259 202 158 c 0,40,41
 202 80 202 80 252 80 c 0,0,1
362 911 m 0,42,43
 349 911 349 911 335 939 c 1,44,45
 415 999 415 999 448.5 1029.5 c 128,-1,46
 482 1060 482 1060 495 1084 c 1,47,48
 519 1089 519 1089 545.5 1089 c 128,-1,49
 572 1089 572 1089 585.5 1080.5 c 128,-1,50
 599 1072 599 1072 599 1061.5 c 128,-1,51
 599 1051 599 1051 592.5 1044 c 128,-1,52
 586 1037 586 1037 547.5 1009.5 c 128,-1,53
 509 982 509 982 443 946.5 c 128,-1,54
 377 911 377 911 362 911 c 0,42,43
EndSplineSet
Position2: "'cpsp' Capital Spacing in Latin lookup 0 subtable" dx=0 dy=0 dh=20 dv=0
EndChar

StartChar: Ucircumflex
Encoding: 219 219 157
Width: 742
GlyphClass: 2
Flags: W
LayerCount: 2
Fore
SplineSet
252 80 m 0,0,1
 299 80 299 80 388 170.5 c 128,-1,2
 477 261 477 261 537 367 c 1,3,4
 539 380 539 380 548.5 441.5 c 128,-1,5
 558 503 558 503 561 526.5 c 128,-1,6
 564 550 564 550 570 596 c 0,7,8
 580 671 580 671 580 747.5 c 128,-1,9
 580 824 580 824 559 866 c 1,10,11
 569 875 569 875 589.5 882 c 128,-1,12
 610 889 610 889 625 889 c 0,13,14
 660 889 660 889 677 864.5 c 128,-1,15
 694 840 694 840 694 785 c 128,-1,16
 694 730 694 730 655.5 498.5 c 128,-1,17
 617 267 617 267 617 169.5 c 128,-1,18
 617 72 617 72 655 29 c 1,19,20
 624 -7 624 -7 586 -7 c 0,21,22
 508 -7 508 -7 508 125 c 0,23,24
 508 169 508 169 519 243 c 1,25,26
 451 137 451 137 365.5 60.5 c 128,-1,27
 280 -16 280 -16 223 -16 c 0,28,29
 98 -16 98 -16 98 153 c 0,30,31
 98 207 98 207 131.5 424 c 128,-1,32
 165 641 165 641 165 732.5 c 128,-1,33
 165 824 165 824 144 866 c 1,34,35
 171 889 171 889 208.5 889 c 128,-1,36
 246 889 246 889 263 864.5 c 128,-1,37
 280 840 280 840 280 785 c 128,-1,38
 280 730 280 730 241 494.5 c 128,-1,39
 202 259 202 259 202 158 c 0,40,41
 202 80 202 80 252 80 c 0,0,1
578 911 m 0,42,43
 556 911 556 911 442 1002 c 1,44,45
 311 911 311 911 283 911 c 0,46,47
 272 911 272 911 256 939 c 1,48,49
 349 1009 349 1009 380 1050 c 0,50,51
 391 1064 391 1064 402 1084 c 1,52,53
 419 1089 419 1089 450 1089 c 128,-1,54
 481 1089 481 1089 496 1078 c 0,55,56
 497 1077 497 1077 504.5 1065 c 128,-1,57
 512 1053 512 1053 520.5 1040.5 c 128,-1,58
 529 1028 529 1028 542 1012 c 1,59,60
 575 967 575 967 605 939 c 1,61,62
 591 911 591 911 578 911 c 0,42,43
EndSplineSet
Position2: "'cpsp' Capital Spacing in Latin lookup 0 subtable" dx=0 dy=0 dh=20 dv=0
EndChar

StartChar: Udieresis
Encoding: 220 220 158
Width: 742
GlyphClass: 2
Flags: W
LayerCount: 2
Fore
SplineSet
252 80 m 0,0,1
 299 80 299 80 388 170.5 c 128,-1,2
 477 261 477 261 537 367 c 1,3,4
 539 380 539 380 548.5 441.5 c 128,-1,5
 558 503 558 503 561 526.5 c 128,-1,6
 564 550 564 550 570 596 c 0,7,8
 580 671 580 671 580 747.5 c 128,-1,9
 580 824 580 824 559 866 c 1,10,11
 569 875 569 875 589.5 882 c 128,-1,12
 610 889 610 889 625 889 c 0,13,14
 660 889 660 889 677 864.5 c 128,-1,15
 694 840 694 840 694 785 c 128,-1,16
 694 730 694 730 655.5 498.5 c 128,-1,17
 617 267 617 267 617 169.5 c 128,-1,18
 617 72 617 72 655 29 c 1,19,20
 624 -7 624 -7 586 -7 c 0,21,22
 508 -7 508 -7 508 125 c 0,23,24
 508 169 508 169 519 243 c 1,25,26
 451 137 451 137 365.5 60.5 c 128,-1,27
 280 -16 280 -16 223 -16 c 0,28,29
 98 -16 98 -16 98 153 c 0,30,31
 98 207 98 207 131.5 424 c 128,-1,32
 165 641 165 641 165 732.5 c 128,-1,33
 165 824 165 824 144 866 c 1,34,35
 171 889 171 889 208.5 889 c 128,-1,36
 246 889 246 889 263 864.5 c 128,-1,37
 280 840 280 840 280 785 c 128,-1,38
 280 730 280 730 241 494.5 c 128,-1,39
 202 259 202 259 202 158 c 0,40,41
 202 80 202 80 252 80 c 0,0,1
389 1012 m 0,42,43
 389 992 389 992 378 951 c 1,44,45
 341 928 341 928 310.5 928 c 128,-1,46
 280 928 280 928 267.5 939 c 128,-1,47
 255 950 255 950 255 974 c 128,-1,48
 255 998 255 998 262 1032 c 1,49,50
 299 1055 299 1055 331 1055 c 0,51,52
 389 1055 389 1055 389 1012 c 0,42,43
623 1012 m 0,53,54
 623 987 623 987 612 951 c 1,55,56
 575 928 575 928 544.5 928 c 128,-1,57
 514 928 514 928 501.5 939 c 128,-1,58
 489 950 489 950 489 970 c 128,-1,59
 489 990 489 990 496 1032 c 1,60,61
 534 1055 534 1055 565 1055 c 0,62,63
 623 1055 623 1055 623 1012 c 0,53,54
EndSplineSet
Position2: "'cpsp' Capital Spacing in Latin lookup 0 subtable" dx=0 dy=0 dh=20 dv=0
EndChar

StartChar: Yacute
Encoding: 221 221 159
Width: 552
GlyphClass: 2
Flags: W
LayerCount: 2
Fore
SplineSet
458 700.5 m 128,-1,1
 484 756 484 756 484 793 c 128,-1,2
 484 830 484 830 474 849 c 1,3,4
 500 885 500 885 545.5 885 c 128,-1,5
 591 885 591 885 591 837 c 0,6,7
 591 800 591 800 547.5 720.5 c 128,-1,8
 504 641 504 641 486.5 610 c 128,-1,9
 469 579 469 579 423 502 c 128,-1,10
 377 425 377 425 370 414 c 0,11,12
 335 355 335 355 326 306 c 1,13,14
 314 210 314 210 314 155 c 0,15,16
 314 69 314 69 350 29 c 1,17,18
 319 -7 319 -7 281 -7 c 128,-1,19
 243 -7 243 -7 224 21.5 c 128,-1,20
 205 50 205 50 205 108 c 128,-1,21
 205 166 205 166 228 309 c 1,22,23
 125 823 125 823 27 823 c 1,24,25
 38 857 38 857 63 873 c 128,-1,26
 88 889 88 889 111 889 c 0,27,28
 171 889 171 889 208 785 c 1,29,30
 251 658 251 658 302 419 c 1,31,32
 330 476 330 476 381 560.5 c 128,-1,0
 432 645 432 645 458 700.5 c 128,-1,1
273 911 m 0,33,34
 260 911 260 911 246 939 c 1,35,36
 326 999 326 999 359.5 1029.5 c 128,-1,37
 393 1060 393 1060 406 1084 c 1,38,39
 430 1089 430 1089 456.5 1089 c 128,-1,40
 483 1089 483 1089 496.5 1080.5 c 128,-1,41
 510 1072 510 1072 510 1061.5 c 128,-1,42
 510 1051 510 1051 503.5 1044 c 128,-1,43
 497 1037 497 1037 458.5 1009.5 c 128,-1,44
 420 982 420 982 354 946.5 c 128,-1,45
 288 911 288 911 273 911 c 0,33,34
EndSplineSet
Position2: "'cpsp' Capital Spacing in Latin lookup 0 subtable" dx=0 dy=0 dh=20 dv=0
EndChar

StartChar: Thorn
Encoding: 222 222 160
Width: 615
GlyphClass: 2
Flags: W
LayerCount: 2
Fore
SplineSet
207 166 m 2,0,1
 207 70 207 70 245 29 c 1,2,3
 214 -7 214 -7 176 -7 c 0,4,5
 98 -7 98 -7 98 125 c 0,6,7
 98 180 98 180 133.5 410.5 c 128,-1,8
 169 641 169 641 169 732.5 c 128,-1,9
 169 824 169 824 148 866 c 1,10,11
 175 889 175 889 212.5 889 c 128,-1,12
 250 889 250 889 267 864.5 c 128,-1,13
 284 840 284 840 284 783 c 0,14,15
 284 763 284 763 283 751 c 1,16,17
 331 756 331 756 369 756 c 0,18,19
 615 756 615 756 615 551 c 0,20,21
 615 487 615 487 586.5 431 c 128,-1,22
 558 375 558 375 516 336.5 c 128,-1,23
 474 298 474 298 416 266 c 0,24,25
 323 214 323 214 207 185 c 1,26,-1
 207 166 l 2,0,1
336 699 m 0,27,28
 311 699 311 699 276 694 c 1,29,30
 272 663 272 663 245 499 c 128,-1,31
 218 335 218 335 211 252 c 1,32,33
 331 276 331 276 415 338 c 0,34,35
 459 371 459 371 484.5 420.5 c 128,-1,36
 510 470 510 470 510 530 c 0,37,38
 510 614 510 614 465.5 656.5 c 128,-1,39
 421 699 421 699 336 699 c 0,27,28
EndSplineSet
EndChar

StartChar: germandbls
Encoding: 223 223 161
Width: 688
GlyphClass: 2
Flags: W
LayerCount: 2
Fore
SplineSet
452 967 m 0,0,1
 551 967 551 967 602 918 c 128,-1,2
 653 869 653 869 653 793.5 c 128,-1,3
 653 718 653 718 602 643 c 128,-1,4
 551 568 551 568 463 526 c 1,5,6
 654 480 654 480 654 280 c 0,7,8
 654 173 654 173 582 82 c 0,9,10
 547 38 547 38 488 11 c 128,-1,11
 429 -16 429 -16 355 -16 c 0,12,13
 244 -16 244 -16 195 56 c 1,14,15
 192 -3 192 -3 192 -50 c 0,16,17
 192 -144 192 -144 230 -187 c 1,18,19
 200 -223 200 -223 161 -223 c 0,20,21
 83 -223 83 -223 83 -95.5 c 128,-1,22
 83 32 83 32 152 546 c 1,23,24
 77 544 77 544 39 520 c 1,25,26
 39 551 39 551 42 567.5 c 128,-1,27
 45 584 45 584 56 600 c 0,28,29
 77 630 77 630 164 630 c 1,30,31
 190 766 190 766 258 862 c 0,32,33
 293 911 293 911 342.5 939 c 128,-1,34
 392 967 392 967 452 967 c 0,0,1
440 893 m 0,35,36
 358 893 358 893 319 826.5 c 128,-1,37
 280 760 280 760 260 616 c 0,38,39
 225 376 225 376 205 176 c 1,40,41
 226 186 226 186 253 189 c 1,42,43
 253 58 253 58 363 58 c 0,44,45
 441 58 441 58 488.5 121 c 128,-1,46
 536 184 536 184 536 270.5 c 128,-1,47
 536 357 536 357 493.5 420 c 128,-1,48
 451 483 451 483 361 494 c 1,49,50
 334 490 334 490 307 488 c 1,51,52
 306 495 306 495 306 517 c 128,-1,53
 306 539 306 539 313.5 546.5 c 128,-1,54
 321 554 321 554 349 556 c 0,55,56
 439 564 439 564 494 633 c 128,-1,57
 549 702 549 702 549 778 c 0,58,59
 549 828 549 828 521.5 860.5 c 128,-1,60
 494 893 494 893 440 893 c 0,35,36
EndSplineSet
Position2: "'cpsp' Capital Spacing in Latin lookup 0 subtable" dx=0 dy=0 dh=20 dv=0
EndChar

StartChar: agrave
Encoding: 224 224 162
Width: 687
GlyphClass: 2
Flags: W
LayerCount: 2
Fore
SplineSet
215 -14 m 0,0,1
 147 -14 147 -14 107.5 53 c 128,-1,2
 68 120 68 120 68 237 c 0,3,4
 68 425 68 425 152.5 554.5 c 128,-1,5
 237 684 237 684 361 684 c 0,6,7
 446 684 446 684 502 617 c 1,8,9
 510 648 510 648 522.5 661 c 128,-1,10
 535 674 535 674 561.5 674 c 128,-1,11
 588 674 588 674 611 648 c 1,12,13
 593 600 593 600 580 487 c 128,-1,14
 567 374 567 374 567 276.5 c 128,-1,15
 567 179 567 179 577.5 125.5 c 128,-1,16
 588 72 588 72 613 30 c 1,17,18
 584 -7 584 -7 545 -7 c 0,19,20
 459 -7 459 -7 459 204 c 0,21,22
 459 238 459 238 467 323 c 1,23,24
 415 178 415 178 343.5 82 c 128,-1,25
 272 -14 272 -14 215 -14 c 0,0,1
365 615 m 0,26,27
 280 615 280 615 226.5 516 c 128,-1,28
 173 417 173 417 173 262 c 0,29,30
 173 183 173 183 193.5 137.5 c 128,-1,31
 214 92 214 92 249.5 92 c 128,-1,32
 285 92 285 92 339.5 170 c 128,-1,33
 394 248 394 248 439 360.5 c 128,-1,34
 484 473 484 473 494 563 c 1,35,36
 426 615 426 615 365 615 c 0,26,27
269.5 873 m 128,-1,38
 263 880 263 880 263 890.5 c 128,-1,39
 263 901 263 901 276.5 909.5 c 128,-1,40
 290 918 290 918 316.5 918 c 128,-1,41
 343 918 343 918 367 913 c 1,42,43
 380 890 380 890 413.5 859.5 c 128,-1,44
 447 829 447 829 528 768 c 1,45,46
 512 740 512 740 499 740 c 128,-1,47
 486 740 486 740 419.5 776 c 128,-1,48
 353 812 353 812 314.5 839 c 128,-1,37
 276 866 276 866 269.5 873 c 128,-1,38
EndSplineSet
EndChar

StartChar: aacute
Encoding: 225 225 163
Width: 687
GlyphClass: 2
Flags: W
LayerCount: 2
Fore
SplineSet
215 -14 m 0,0,1
 147 -14 147 -14 107.5 53 c 128,-1,2
 68 120 68 120 68 237 c 0,3,4
 68 425 68 425 152.5 554.5 c 128,-1,5
 237 684 237 684 361 684 c 0,6,7
 446 684 446 684 502 617 c 1,8,9
 510 648 510 648 522.5 661 c 128,-1,10
 535 674 535 674 561.5 674 c 128,-1,11
 588 674 588 674 611 648 c 1,12,13
 593 600 593 600 580 487 c 128,-1,14
 567 374 567 374 567 276.5 c 128,-1,15
 567 179 567 179 577.5 125.5 c 128,-1,16
 588 72 588 72 613 30 c 1,17,18
 584 -7 584 -7 545 -7 c 0,19,20
 459 -7 459 -7 459 204 c 0,21,22
 459 238 459 238 467 323 c 1,23,24
 415 178 415 178 343.5 82 c 128,-1,25
 272 -14 272 -14 215 -14 c 0,0,1
365 615 m 0,26,27
 280 615 280 615 226.5 516 c 128,-1,28
 173 417 173 417 173 262 c 0,29,30
 173 183 173 183 193.5 137.5 c 128,-1,31
 214 92 214 92 249.5 92 c 128,-1,32
 285 92 285 92 339.5 170 c 128,-1,33
 394 248 394 248 439 360.5 c 128,-1,34
 484 473 484 473 494 563 c 1,35,36
 426 615 426 615 365 615 c 0,26,27
333 740 m 0,37,38
 320 740 320 740 306 768 c 1,39,40
 386 828 386 828 419.5 858.5 c 128,-1,41
 453 889 453 889 466 913 c 1,42,43
 490 918 490 918 516.5 918 c 128,-1,44
 543 918 543 918 556.5 909.5 c 128,-1,45
 570 901 570 901 570 890.5 c 128,-1,46
 570 880 570 880 563.5 873 c 128,-1,47
 557 866 557 866 518.5 838.5 c 128,-1,48
 480 811 480 811 414 775.5 c 128,-1,49
 348 740 348 740 333 740 c 0,37,38
EndSplineSet
EndChar

StartChar: acircumflex
Encoding: 226 226 164
Width: 687
GlyphClass: 2
Flags: W
LayerCount: 2
Fore
SplineSet
215 -14 m 0,0,1
 147 -14 147 -14 107.5 53 c 128,-1,2
 68 120 68 120 68 237 c 0,3,4
 68 425 68 425 152.5 554.5 c 128,-1,5
 237 684 237 684 361 684 c 0,6,7
 446 684 446 684 502 617 c 1,8,9
 510 648 510 648 522.5 661 c 128,-1,10
 535 674 535 674 561.5 674 c 128,-1,11
 588 674 588 674 611 648 c 1,12,13
 593 600 593 600 580 487 c 128,-1,14
 567 374 567 374 567 276.5 c 128,-1,15
 567 179 567 179 577.5 125.5 c 128,-1,16
 588 72 588 72 613 30 c 1,17,18
 584 -7 584 -7 545 -7 c 0,19,20
 459 -7 459 -7 459 204 c 0,21,22
 459 238 459 238 467 323 c 1,23,24
 415 178 415 178 343.5 82 c 128,-1,25
 272 -14 272 -14 215 -14 c 0,0,1
365 615 m 0,26,27
 280 615 280 615 226.5 516 c 128,-1,28
 173 417 173 417 173 262 c 0,29,30
 173 183 173 183 193.5 137.5 c 128,-1,31
 214 92 214 92 249.5 92 c 128,-1,32
 285 92 285 92 339.5 170 c 128,-1,33
 394 248 394 248 439 360.5 c 128,-1,34
 484 473 484 473 494 563 c 1,35,36
 426 615 426 615 365 615 c 0,26,27
541 740 m 0,37,38
 519 740 519 740 405 831 c 1,39,40
 274 740 274 740 246 740 c 0,41,42
 235 740 235 740 219 768 c 1,43,44
 312 838 312 838 344 879 c 0,45,46
 354 893 354 893 365 913 c 1,47,48
 382 918 382 918 413 918 c 128,-1,49
 444 918 444 918 459 907 c 0,50,51
 460 906 460 906 467.5 894 c 128,-1,52
 475 882 475 882 483.5 869.5 c 128,-1,53
 492 857 492 857 504 840 c 0,54,55
 538 796 538 796 568 768 c 1,56,57
 554 740 554 740 541 740 c 0,37,38
EndSplineSet
EndChar

StartChar: atilde
Encoding: 227 227 165
Width: 687
GlyphClass: 2
Flags: W
LayerCount: 2
Fore
SplineSet
215 -14 m 0,0,1
 147 -14 147 -14 107.5 53 c 128,-1,2
 68 120 68 120 68 237 c 0,3,4
 68 425 68 425 152.5 554.5 c 128,-1,5
 237 684 237 684 361 684 c 0,6,7
 446 684 446 684 502 617 c 1,8,9
 510 648 510 648 522.5 661 c 128,-1,10
 535 674 535 674 561.5 674 c 128,-1,11
 588 674 588 674 611 648 c 1,12,13
 593 600 593 600 580 487 c 128,-1,14
 567 374 567 374 567 276.5 c 128,-1,15
 567 179 567 179 577.5 125.5 c 128,-1,16
 588 72 588 72 613 30 c 1,17,18
 584 -7 584 -7 545 -7 c 0,19,20
 459 -7 459 -7 459 204 c 0,21,22
 459 238 459 238 467 323 c 1,23,24
 415 178 415 178 343.5 82 c 128,-1,25
 272 -14 272 -14 215 -14 c 0,0,1
365 615 m 0,26,27
 280 615 280 615 226.5 516 c 128,-1,28
 173 417 173 417 173 262 c 0,29,30
 173 183 173 183 193.5 137.5 c 128,-1,31
 214 92 214 92 249.5 92 c 128,-1,32
 285 92 285 92 339.5 170 c 128,-1,33
 394 248 394 248 439 360.5 c 128,-1,34
 484 473 484 473 494 563 c 1,35,36
 426 615 426 615 365 615 c 0,26,27
560 871 m 0,37,38
 560 828 560 828 531 792 c 128,-1,39
 502 756 502 756 465.5 756 c 128,-1,40
 429 756 429 756 403.5 772.5 c 128,-1,41
 378 789 378 789 358 805.5 c 128,-1,42
 338 822 338 822 319 822 c 128,-1,43
 300 822 300 822 286 805 c 128,-1,44
 272 788 272 788 267 755 c 1,45,46
 223 755 223 755 223 787 c 0,47,48
 223 830 223 830 252 866 c 128,-1,49
 281 902 281 902 317.5 902 c 128,-1,50
 354 902 354 902 379.5 885.5 c 128,-1,51
 405 869 405 869 425 852.5 c 128,-1,52
 445 836 445 836 464 836 c 128,-1,53
 483 836 483 836 497 853 c 128,-1,54
 511 870 511 870 516 903 c 1,55,56
 560 903 560 903 560 871 c 0,37,38
EndSplineSet
EndChar

StartChar: adieresis
Encoding: 228 228 166
Width: 687
GlyphClass: 2
Flags: W
LayerCount: 2
Fore
SplineSet
215 -14 m 0,0,1
 147 -14 147 -14 107.5 53 c 128,-1,2
 68 120 68 120 68 237 c 0,3,4
 68 425 68 425 152.5 554.5 c 128,-1,5
 237 684 237 684 361 684 c 0,6,7
 446 684 446 684 502 617 c 1,8,9
 510 648 510 648 522.5 661 c 128,-1,10
 535 674 535 674 561.5 674 c 128,-1,11
 588 674 588 674 611 648 c 1,12,13
 593 600 593 600 580 487 c 128,-1,14
 567 374 567 374 567 276.5 c 128,-1,15
 567 179 567 179 577.5 125.5 c 128,-1,16
 588 72 588 72 613 30 c 1,17,18
 584 -7 584 -7 545 -7 c 0,19,20
 459 -7 459 -7 459 204 c 0,21,22
 459 238 459 238 467 323 c 1,23,24
 415 178 415 178 343.5 82 c 128,-1,25
 272 -14 272 -14 215 -14 c 0,0,1
365 615 m 0,26,27
 280 615 280 615 226.5 516 c 128,-1,28
 173 417 173 417 173 262 c 0,29,30
 173 183 173 183 193.5 137.5 c 128,-1,31
 214 92 214 92 249.5 92 c 128,-1,32
 285 92 285 92 339.5 170 c 128,-1,33
 394 248 394 248 439 360.5 c 128,-1,34
 484 473 484 473 494 563 c 1,35,36
 426 615 426 615 365 615 c 0,26,27
367 841 m 0,37,38
 367 821 367 821 356 780 c 1,39,40
 319 757 319 757 288.5 757 c 128,-1,41
 258 757 258 757 245.5 768 c 128,-1,42
 233 779 233 779 233 803 c 128,-1,43
 233 827 233 827 240 861 c 1,44,45
 277 884 277 884 309 884 c 0,46,47
 367 884 367 884 367 841 c 0,37,38
601 841 m 0,48,49
 601 816 601 816 590 780 c 1,50,51
 553 757 553 757 522.5 757 c 128,-1,52
 492 757 492 757 479.5 768 c 128,-1,53
 467 779 467 779 467 799 c 128,-1,54
 467 819 467 819 474 861 c 1,55,56
 512 884 512 884 543 884 c 0,57,58
 601 884 601 884 601 841 c 0,48,49
EndSplineSet
EndChar

StartChar: aring
Encoding: 229 229 167
Width: 687
GlyphClass: 2
Flags: W
LayerCount: 2
Fore
SplineSet
215 -14 m 0,0,1
 147 -14 147 -14 107.5 53 c 128,-1,2
 68 120 68 120 68 237 c 0,3,4
 68 425 68 425 152.5 554.5 c 128,-1,5
 237 684 237 684 361 684 c 0,6,7
 446 684 446 684 502 617 c 1,8,9
 510 648 510 648 522.5 661 c 128,-1,10
 535 674 535 674 561.5 674 c 128,-1,11
 588 674 588 674 611 648 c 1,12,13
 593 600 593 600 580 487 c 128,-1,14
 567 374 567 374 567 276.5 c 128,-1,15
 567 179 567 179 577.5 125.5 c 128,-1,16
 588 72 588 72 613 30 c 1,17,18
 584 -7 584 -7 545 -7 c 0,19,20
 459 -7 459 -7 459 204 c 0,21,22
 459 238 459 238 467 323 c 1,23,24
 415 178 415 178 343.5 82 c 128,-1,25
 272 -14 272 -14 215 -14 c 0,0,1
365 615 m 0,26,27
 280 615 280 615 226.5 516 c 128,-1,28
 173 417 173 417 173 262 c 0,29,30
 173 183 173 183 193.5 137.5 c 128,-1,31
 214 92 214 92 249.5 92 c 128,-1,32
 285 92 285 92 339.5 170 c 128,-1,33
 394 248 394 248 439 360.5 c 128,-1,34
 484 473 484 473 494 563 c 1,35,36
 426 615 426 615 365 615 c 0,26,27
405 928 m 0,37,38
 378 928 378 928 365.5 892.5 c 128,-1,39
 353 857 353 857 353 819 c 0,40,41
 353 755 353 755 395 755 c 0,42,43
 422 755 422 755 434.5 790.5 c 128,-1,44
 447 826 447 826 447 863 c 0,45,46
 447 928 447 928 405 928 c 0,37,38
420 974 m 0,47,48
 440 974 440 974 460.5 964 c 128,-1,49
 481 954 481 954 494 942 c 0,50,51
 523 915 523 915 523 853.5 c 128,-1,52
 523 792 523 792 480.5 750 c 128,-1,53
 438 708 438 708 384 708 c 0,54,55
 359 708 359 708 324 728 c 0,56,57
 305 739 305 739 292.5 763.5 c 128,-1,58
 280 788 280 788 280 822 c 0,59,60
 280 890 280 890 323 932 c 128,-1,61
 366 974 366 974 420 974 c 0,47,48
EndSplineSet
EndChar

StartChar: ae
Encoding: 230 230 168
Width: 929
GlyphClass: 2
Flags: W
LayerCount: 2
Fore
SplineSet
361 684 m 0,0,1
 458 684 458 684 541 594 c 1,2,3
 628 684 628 684 738 684 c 0,4,5
 815 684 815 684 855 646 c 128,-1,6
 895 608 895 608 895 555.5 c 128,-1,7
 895 503 895 503 872.5 456.5 c 128,-1,8
 850 410 850 410 810.5 370.5 c 128,-1,9
 771 331 771 331 709 306 c 128,-1,10
 647 281 647 281 576 281 c 0,11,12
 546 281 546 281 521 285 c 1,13,14
 522 174 522 174 562.5 115.5 c 128,-1,15
 603 57 603 57 676 57 c 0,16,17
 780 57 780 57 827 158 c 1,18,19
 851 135 851 135 851 102 c 0,20,21
 851 46 851 46 788.5 14.5 c 128,-1,22
 726 -17 726 -17 657 -17 c 0,23,24
 550 -17 550 -17 490 43.5 c 128,-1,25
 430 104 430 104 417 205 c 1,26,27
 369 106 369 106 314 46 c 128,-1,28
 259 -14 259 -14 215 -14 c 0,29,30
 147 -14 147 -14 107.5 53 c 128,-1,31
 68 120 68 120 68 237 c 0,32,33
 68 425 68 425 152.5 554.5 c 128,-1,34
 237 684 237 684 361 684 c 0,0,1
193.5 137.5 m 128,-1,36
 214 92 214 92 247.5 92 c 128,-1,37
 281 92 281 92 326 152 c 128,-1,38
 371 212 371 212 417 308 c 1,39,40
 430 444 430 444 507 552 c 1,41,42
 436 615 436 615 365 615 c 0,43,44
 280 615 280 615 226.5 516 c 128,-1,45
 173 417 173 417 173 262 c 0,46,35
 173 183 173 183 193.5 137.5 c 128,-1,36
764.5 582.5 m 128,-1,48
 739 609 739 609 694 609 c 128,-1,49
 649 609 649 609 616.5 584 c 128,-1,50
 584 559 584 559 566 516 c 0,51,52
 532 436 532 436 524 348 c 1,53,54
 548 345 548 345 569 345 c 0,55,56
 671 345 671 345 730.5 397.5 c 128,-1,57
 790 450 790 450 790 515 c 0,58,47
 790 556 790 556 764.5 582.5 c 128,-1,48
EndSplineSet
EndChar

StartChar: ccedilla
Encoding: 231 231 169
Width: 532
GlyphClass: 2
Flags: W
LayerCount: 2
Fore
SplineSet
377 -95 m 128,-1,1
 404 -114 404 -114 404 -156 c 128,-1,2
 404 -198 404 -198 368 -235 c 128,-1,3
 332 -272 332 -272 257 -272 c 0,4,5
 218 -272 218 -272 193.5 -255 c 128,-1,6
 169 -238 169 -238 169 -216 c 0,7,8
 169 -191 169 -191 220 -172 c 1,9,10
 222 -194 222 -194 235.5 -208.5 c 128,-1,11
 249 -223 249 -223 272 -223 c 128,-1,12
 295 -223 295 -223 311 -203 c 128,-1,13
 327 -183 327 -183 327 -158 c 0,14,15
 327 -119 327 -119 287 -113 c 2,16,-1
 235 -105 l 2,17,18
 222 -103 222 -103 222 -97 c 128,-1,19
 222 -91 222 -91 255 -12 c 1,20,21
 162 5 162 5 115 78.5 c 128,-1,22
 68 152 68 152 68 259 c 0,23,24
 68 332 68 332 91 406.5 c 128,-1,25
 114 481 114 481 154 543.5 c 128,-1,26
 194 606 194 606 257 645 c 128,-1,27
 320 684 320 684 393 684 c 0,28,29
 532 684 532 684 532 603 c 0,30,31
 532 548 532 548 487 511 c 1,32,33
 463 558 463 558 430.5 583.5 c 128,-1,34
 398 609 398 609 352 609 c 128,-1,35
 306 609 306 609 274 584.5 c 128,-1,36
 242 560 242 560 224.5 524.5 c 128,-1,37
 207 489 207 489 196 444 c 0,38,39
 176 366 176 366 176 294 c 0,40,41
 176 178 176 178 216 117.5 c 128,-1,42
 256 57 256 57 331 57 c 0,43,44
 425 57 425 57 469 158 c 1,45,46
 490 136 490 136 490 102 c 0,47,48
 490 46 490 46 431.5 14.5 c 128,-1,49
 373 -17 373 -17 305 -17 c 1,50,-1
 285 -69 l 1,51,0
 350 -76 350 -76 377 -95 c 128,-1,1
EndSplineSet
EndChar

StartChar: egrave
Encoding: 232 232 170
Width: 583
GlyphClass: 2
Flags: W
LayerCount: 2
Fore
SplineSet
230 281 m 0,0,1
 203 281 203 281 176 284 c 1,2,3
 177 173 177 173 217.5 115 c 128,-1,4
 258 57 258 57 331 57 c 0,5,6
 434 57 434 57 481 158 c 1,7,8
 505 135 505 135 505 102 c 0,9,10
 505 46 505 46 442.5 14.5 c 128,-1,11
 380 -17 380 -17 312 -17 c 0,12,13
 191 -17 191 -17 129.5 60 c 128,-1,14
 68 137 68 137 68 259 c 0,15,16
 68 332 68 332 91 406.5 c 128,-1,17
 114 481 114 481 154 543.5 c 128,-1,18
 194 606 194 606 257 645 c 128,-1,19
 320 684 320 684 395 684 c 128,-1,20
 470 684 470 684 509.5 646 c 128,-1,21
 549 608 549 608 549 548 c 0,22,23
 549 451 549 451 459.5 366 c 128,-1,24
 370 281 370 281 230 281 c 0,0,1
418.5 582.5 m 128,-1,26
 393 609 393 609 348.5 609 c 128,-1,27
 304 609 304 609 271.5 584 c 128,-1,28
 239 559 239 559 220 517 c 0,29,30
 186 439 186 439 178 348 c 1,31,32
 202 345 202 345 223 345 c 0,33,34
 325 345 325 345 384.5 397.5 c 128,-1,35
 444 450 444 450 444 515 c 0,36,25
 444 556 444 556 418.5 582.5 c 128,-1,26
237.5 873 m 128,-1,38
 231 880 231 880 231 890.5 c 128,-1,39
 231 901 231 901 244.5 909.5 c 128,-1,40
 258 918 258 918 284.5 918 c 128,-1,41
 311 918 311 918 335 913 c 1,42,43
 348 890 348 890 381.5 859.5 c 128,-1,44
 415 829 415 829 496 768 c 1,45,46
 480 740 480 740 467 740 c 128,-1,47
 454 740 454 740 387.5 776 c 128,-1,48
 321 812 321 812 282.5 839 c 128,-1,37
 244 866 244 866 237.5 873 c 128,-1,38
EndSplineSet
EndChar

StartChar: eacute
Encoding: 233 233 171
Width: 583
GlyphClass: 2
Flags: W
LayerCount: 2
Fore
SplineSet
230 281 m 0,0,1
 203 281 203 281 176 284 c 1,2,3
 177 173 177 173 217.5 115 c 128,-1,4
 258 57 258 57 331 57 c 0,5,6
 434 57 434 57 481 158 c 1,7,8
 505 135 505 135 505 102 c 0,9,10
 505 46 505 46 442.5 14.5 c 128,-1,11
 380 -17 380 -17 312 -17 c 0,12,13
 191 -17 191 -17 129.5 60 c 128,-1,14
 68 137 68 137 68 259 c 0,15,16
 68 332 68 332 91 406.5 c 128,-1,17
 114 481 114 481 154 543.5 c 128,-1,18
 194 606 194 606 257 645 c 128,-1,19
 320 684 320 684 395 684 c 128,-1,20
 470 684 470 684 509.5 646 c 128,-1,21
 549 608 549 608 549 548 c 0,22,23
 549 451 549 451 459.5 366 c 128,-1,24
 370 281 370 281 230 281 c 0,0,1
418.5 582.5 m 128,-1,26
 393 609 393 609 348.5 609 c 128,-1,27
 304 609 304 609 271.5 584 c 128,-1,28
 239 559 239 559 220 517 c 0,29,30
 186 439 186 439 178 348 c 1,31,32
 202 345 202 345 223 345 c 0,33,34
 325 345 325 345 384.5 397.5 c 128,-1,35
 444 450 444 450 444 515 c 0,36,25
 444 556 444 556 418.5 582.5 c 128,-1,26
288 740 m 0,37,38
 275 740 275 740 261 768 c 1,39,40
 341 828 341 828 374.5 858.5 c 128,-1,41
 408 889 408 889 421 913 c 1,42,43
 445 918 445 918 471.5 918 c 128,-1,44
 498 918 498 918 511.5 909.5 c 128,-1,45
 525 901 525 901 525 890.5 c 128,-1,46
 525 880 525 880 518.5 873 c 128,-1,47
 512 866 512 866 473.5 838.5 c 128,-1,48
 435 811 435 811 369 775.5 c 128,-1,49
 303 740 303 740 288 740 c 0,37,38
EndSplineSet
EndChar

StartChar: ecircumflex
Encoding: 234 234 172
Width: 583
GlyphClass: 2
Flags: W
LayerCount: 2
Fore
SplineSet
230 281 m 0,0,1
 203 281 203 281 176 284 c 1,2,3
 177 173 177 173 217.5 115 c 128,-1,4
 258 57 258 57 331 57 c 0,5,6
 434 57 434 57 481 158 c 1,7,8
 505 135 505 135 505 102 c 0,9,10
 505 46 505 46 442.5 14.5 c 128,-1,11
 380 -17 380 -17 312 -17 c 0,12,13
 191 -17 191 -17 129.5 60 c 128,-1,14
 68 137 68 137 68 259 c 0,15,16
 68 332 68 332 91 406.5 c 128,-1,17
 114 481 114 481 154 543.5 c 128,-1,18
 194 606 194 606 257 645 c 128,-1,19
 320 684 320 684 395 684 c 128,-1,20
 470 684 470 684 509.5 646 c 128,-1,21
 549 608 549 608 549 548 c 0,22,23
 549 451 549 451 459.5 366 c 128,-1,24
 370 281 370 281 230 281 c 0,0,1
418.5 582.5 m 128,-1,26
 393 609 393 609 348.5 609 c 128,-1,27
 304 609 304 609 271.5 584 c 128,-1,28
 239 559 239 559 220 517 c 0,29,30
 186 439 186 439 178 348 c 1,31,32
 202 345 202 345 223 345 c 0,33,34
 325 345 325 345 384.5 397.5 c 128,-1,35
 444 450 444 450 444 515 c 0,36,25
 444 556 444 556 418.5 582.5 c 128,-1,26
514 740 m 0,37,38
 492 740 492 740 378 831 c 1,39,40
 247 740 247 740 219 740 c 0,41,42
 208 740 208 740 192 768 c 1,43,44
 286 838 286 838 316 879 c 0,45,46
 327 893 327 893 338 913 c 1,47,48
 355 918 355 918 386 918 c 128,-1,49
 417 918 417 918 432 907 c 0,50,51
 433 906 433 906 440.5 894 c 128,-1,52
 448 882 448 882 456.5 869.5 c 128,-1,53
 465 857 465 857 478 840 c 0,54,55
 511 796 511 796 541 768 c 1,56,57
 527 740 527 740 514 740 c 0,37,38
EndSplineSet
EndChar

